<?xml version="1.0" encoding="utf-8"?>
<!-- Generator: Adobe Illustrator 21.0.0, SVG Export Plug-In . SVG Version: 6.00 Build 0)  -->
<svg version="1.1" id="Layer_1" xmlns="http://www.w3.org/2000/svg" xmlns:xlink="http://www.w3.org/1999/xlink" x="0px" y="0px"
	 viewBox="0 0 1000 682.5" style="enable-background:new 0 0 1000 682.5;" xml:space="preserve">
<style type="text/css">
	.st0{fill:#F3F3F3;}
</style>
<g>
	<path class="st0" d="M58,319.7c9.2-13.7,27.5-22.9,45.8-18.3c18.3,0,41.2,0,59.5,0s27.5-4.6,32-22.9c9.2-32,22.9-59.5,36.6-87
		c9.2-18.3,18.3-27.5,36.6-27.5c18.3,4.6,22.9,18.3,27.5,36.6c9.2,64.1,22.9,132.7,32,201.4c4.6-4.6,4.6-9.2,4.6-13.7
		c36.6-119,73.2-233.4,109.9-352.4c0-4.6,4.6-4.6,4.6-9.2c4.6-18.3,13.7-27.5,32-22.9c18.3,0,27.5,13.7,27.5,32
		c4.6,45.8,13.7,91.5,18.3,137.3c9.2,87,22.9,169.4,36.6,256.3c4.6-32,9.2-64.1,18.3-96.1c9.2-50.3,18.3-100.7,22.9-151
		c4.6-18.3,9.2-32,22.9-36.6c18.3-4.6,27.5,4.6,36.6,18.3c13.7,27.5,27.5,50.3,41.2,77.8c4.6,13.7,13.7,18.3,27.5,18.3
		c68.7,0,137.3,0,210.5,0c22.9,0,36.6,13.7,36.6,32s-13.7,32-36.6,32c-77.8,0-160.2,0-238,0c-32,0-36.6-22.9-50.3-45.8
		c-4.6,27.5-9.2,50.3-13.7,73.2c-18.3,100.7-32,201.4-50.3,302.1c-4.6,18.3-13.7,27.5-32,27.5c-13.7,0-27.5-13.7-32-27.5
		C511.1,557.7,502,457,488.2,360.9c-4.6-59.5-13.7-114.4-18.3-169.4c0-4.6,0-4.6-4.6-13.7c-18.3,54.9-32,100.7-45.8,151
		c-22.9,68.7-45.8,141.9-64.1,210.5c-4.6,18.3-13.7,32-32,27.5c-18.3,0-27.5-13.7-27.5-32c-13.7-77.8-22.9-151-36.6-233.4
		c-18.3,18.3-22.9,27.5-22.9,36.6c-9.2,18.3-18.3,22.9-36.6,22.9c-32,0-64.1,0-96.1,0c-18.3,0-32-4.6-41.2-22.9
		C58,333.4,58,324.2,58,319.7z"/>
</g>
</svg>
