<?xml version="1.0" encoding="utf-8"?>
<!-- Generator: Adobe Illustrator 21.0.0, SVG Export Plug-In . SVG Version: 6.00 Build 0)  -->
<svg version="1.1" id="paperproto" xmlns="http://www.w3.org/2000/svg" xmlns:xlink="http://www.w3.org/1999/xlink" x="0px" y="0px"
	 viewBox="0 0 10.6 19.9" style="enable-background:new 0 0 10.6 19.9;" xml:space="preserve">
<style type="text/css">
	.st0{fill:#E9EBE5;}
</style>
<title>zombie_selfie</title>
<g>
	<path class="st0" d="M1.7,3.2C1.4,3.2,1.4,3,1.4,2.9c0-0.2,0.2-0.2,0.3-0.2c2.4,0,4.8,0,7.2,0c0.1,0,0.3,0,0.3,0.2
		c0,0.2,0,0.3-0.2,0.4c0.1,0.2,0.2,0.4,0.3,0.5C9.4,4,9.5,4.2,9.6,4.4c0.2,0.3,0.3,0.7,0.3,1.1c0,4.3,0,8.6,0,12.9
		c0,0.5-0.1,0.8-0.5,1c-0.1,0.1-0.2,0.2-0.3,0.4C9,19.9,9,19.9,8.8,19.9c-2.4,0-4.7,0-7.1,0c-0.1,0-0.2,0-0.2-0.1
		c-0.1-0.1-0.2-0.3-0.3-0.4c-0.4-0.2-0.5-0.5-0.5-1c0-2,0-4.1,0-6.1c0-2.2,0-4.4,0-6.7c0-0.6,0.1-1,0.4-1.5C1.3,3.9,1.5,3.6,1.7,3.2
		z M1,5.7c0,3.9,0,7.7,0,11.6c2.9,0.2,5.8,0.2,8.7,0c0-3.9,0-7.8,0-11.6C6.7,5.7,3.9,5.7,1,5.7z"/>
	<path class="st0" d="M6.3,2.5c-0.2,0-0.3,0-0.4,0c0-0.5-0.3-0.8-0.7-0.8C4.9,1.7,4.7,2,4.7,2.5c-0.1,0-0.3,0-0.4,0
		c0-0.6-0.1-1.1-0.1-1.6c0-0.2,0.1-0.4,0.3-0.6c0.5-0.4,1.3-0.4,1.7,0C6.4,0.4,6.5,0.7,6.4,1C6.4,1.5,6.4,2,6.3,2.5z M5.3,1.4
		c0.1,0,0.3,0,0.4,0c0.2,0,0.3-0.1,0.4-0.3c0.1-0.3,0-0.5-0.2-0.6C5.6,0.3,5,0.3,4.7,0.5C4.5,0.7,4.5,0.9,4.5,1.1
		c0,0.2,0.2,0.2,0.4,0.3C5,1.4,5.2,1.4,5.3,1.4z"/>
	<path class="st0" d="M5.6,2.5c-0.2,0-0.4,0-0.6,0C4.9,2.3,4.9,2.1,5.1,2.1c0.1,0,0.3-0.1,0.4,0C5.6,2.1,5.6,2.3,5.6,2.5z"/>
	<path class="st0" d="M1.2,6c2.7,0,5.4,0,8.1,0c0,3.6,0,7.3,0,10.9c-2.7,0.2-5.4,0.2-8.1,0C1.2,13.3,1.2,9.6,1.2,6z"/>
</g>
</svg>
