<svg id="contact" xmlns="http://www.w3.org/2000/svg" viewBox="0 0 19.92 16.64"><defs><style>.cls-1{fill:#e9ebe5;}</style></defs><title>zombie_selfie</title><path class="cls-1" d="M10.1,10.09a24.52,24.52,0,0,1,2.17,1.55,10.78,10.78,0,0,1,3.29,5.83c0.15,0.65,0,.84-0.66.84-4.58,0-9.16,0-13.74,0L0,18.32c0.68-3.6,2.35-6.93,5.83-8.3A18.64,18.64,0,0,1,4.43,8a4.5,4.5,0,0,1,.73-5,3.44,3.44,0,0,1,4.23-.7,4.82,4.82,0,0,1,1.73,6.58A11.61,11.61,0,0,1,10.1,10.09Z" transform="translate(0 -1.68)"/><path class="cls-1" d="M15,9.29l0.71,0.4a9.47,9.47,0,0,1,3.78,4.72,6,6,0,0,1,.45,1.41c0.1,0.62-.11.82-0.74,0.83s-1.13,0-1.7,0a1.25,1.25,0,0,1-1.31-1,9.77,9.77,0,0,0-3.72-5.27,5.06,5.06,0,0,1-.81-0.91,5.87,5.87,0,0,0-.36-7.3A2.85,2.85,0,0,1,15,2.66c2.09,2.14,1.89,4.86.07,6.44A1,1,0,0,0,15,9.29Z" transform="translate(0 -1.68)"/></svg>