<svg id="DW" xmlns="http://www.w3.org/2000/svg" viewBox="0 0 19.96 13.53"><defs><style>.cls-1{fill:#e9ebe5;}</style></defs><title>zombie_selfie</title><path class="cls-1" d="M20,4.86V18.39H0V4.86H20Zm-0.93.91H1V17.46H19.05V5.77Z" transform="translate(-0.02 -4.86)"/><path class="cls-1" d="M16.46,9.84l-1.59,4.42-1.29-2.61-1.31,2.62c-0.57-1.54-1.08-3.05-1.59-4.42h1l0.76,2.36c0.38-.8.73-1.49,1.14-2.36,0.39,0.84.79,1.65,1.13,2.36,0.25-.66.88-2.36,0.88-2.36h0.88Z" transform="translate(-0.02 -4.86)"/><path class="cls-1" d="M6.34,9.68c1.22-.06,2.41-0.25,3.17.92a2,2,0,0,1,0,2.36c-0.76,1.17-1.95,1-3.17.94V9.68Zm0.85,0.77v2.69c1.21,0,1.77-.42,1.77-1.35S8.38,10.4,7.19,10.45Z" transform="translate(-0.02 -4.86)"/><path class="cls-1" d="M4.5,14a4.31,4.31,0,0,1,.13-1.28A1.17,1.17,0,0,1,4.5,12,0.52,0.52,0,0,1,5,12a0.64,0.64,0,0,1,.23.52A14.25,14.25,0,0,1,4.5,14Z" transform="translate(-0.02 -4.86)"/><circle class="cls-1" cx="4.69" cy="5.72" r="0.56"/><circle class="cls-1" cx="4.69" cy="7.49" r="0.56"/></svg>