<svg id="eeg" xmlns="http://www.w3.org/2000/svg" viewBox="0 0 17.69 19.8"><defs><style>.cls-1{fill:#e9ebe5;}</style></defs><title>zombie_selfie</title><path class="cls-1" d="M1.35,6a0.42,0.42,0,0,0,0,.07c-0.06.42-.14,0.84-0.17,1.26a9.34,9.34,0,0,0,.09,2.3A10.12,10.12,0,0,0,2.86,13.7C3,14,3.23,14.22,3.39,14.5A6.1,6.1,0,0,1,4.11,17,8.06,8.06,0,0,1,4,19.24c0,0.22-.1.44-0.15,0.68h7.3a0.13,0.13,0,0,0,.14-0.1,2,2,0,0,1,1.51-1.35,6.31,6.31,0,0,1,1.91-.06l1.07,0.06a1.4,1.4,0,0,0,1-.34,1,1,0,0,0,.38-0.89c0-.23-0.1-0.46-0.14-0.7a1.39,1.39,0,0,1,.07-0.76,0.79,0.79,0,0,1,.4-0.39,0.24,0.24,0,0,0,.09-0.15,0.4,0.4,0,0,0-.22-0.43c-0.1-.06-0.1-0.09,0-0.17l0.08-.06,0.26-.19a0.18,0.18,0,0,0,.05-0.26l-0.36-.82A0.19,0.19,0,0,1,17.5,13a3.47,3.47,0,0,1,.41-0.18c0.21-.08.43-0.14,0.64-0.24s0.35-.25.16-0.52l0,0-1.27-1.92c-0.17-.26-0.35-0.52-0.52-0.79a1,1,0,0,1-.15-0.65A1.58,1.58,0,0,1,17,8.1a0.39,0.39,0,0,0,0-.39c-0.1-.21-0.2-0.41-0.31-0.61a1.47,1.47,0,0,1-.2-0.63c0-.16,0-0.32-0.07-0.48H13.62a0.11,0.11,0,0,0-.14.1q-0.6,2.5-1.2,5a1.52,1.52,0,0,1-.15.42,0.49,0.49,0,0,1-.87,0,1,1,0,0,1-.13-0.34c-0.19-.95-0.37-1.9-0.55-2.85L10,5.15,9.88,4.71a0,0,0,0,0,0,0L8.5,10.35a1.19,1.19,0,0,1-.19.49,0.49,0.49,0,0,1-.8,0,0.91,0.91,0,0,1-.14-0.3c0-.17-0.07-0.35-0.11-0.53L6.75,7.37l-0.2-1,0,0.06c-0.23.9-.45,1.81-0.68,2.71a1.1,1.1,0,0,1-.13.32,0.48,0.48,0,0,1-.83,0,1.11,1.11,0,0,1-.15-0.31q-0.49-1.52-1-3A0.11,0.11,0,0,0,3.63,6H1.35ZM8,7.68l0-.09L9.33,2a1.28,1.28,0,0,1,.21-0.55,0.5,0.5,0,0,1,.79,0,0.81,0.81,0,0,1,.14.27c0,0.19.08,0.38,0.12,0.56l0.49,2.57,0.49,2.56,0.18,0.92a0.57,0.57,0,0,0,.05-0.15l0.71-3a0.48,0.48,0,0,1,.31-0.37,1,1,0,0,1,.32-0.05h3l0-.11a5,5,0,0,0-.82-1.66,0.25,0.25,0,0,1,0-.18c0-.13.06-0.26,0.09-0.39A0.5,0.5,0,0,0,15.25,2a4.93,4.93,0,0,0-.53-0.5A6.16,6.16,0,0,0,12.79.65a11.77,11.77,0,0,0-1.86-.4c-0.43-.06-0.86-0.1-1.28-0.12A19.16,19.16,0,0,0,6.92.22,9,9,0,0,0,5.38.51,4.6,4.6,0,0,0,2.92,2.17a7.43,7.43,0,0,0-1,2c-0.08.23-.16,0.46-0.24,0.71H3.93l0.28,0a0.55,0.55,0,0,1,.51.43C4.78,5.55,4.86,5.79,4.93,6L5.21,6.9l0-.08L5.94,4C6,3.82,6,3.6,6.11,3.4A0.52,0.52,0,0,1,6.56,3a0.55,0.55,0,0,1,.59.47c0,0.14.06,0.28,0.09,0.42L7.79,6.75Z" transform="translate(-1.13 -0.12)"/><path class="cls-1" d="M1.35,6H3.63a0.11,0.11,0,0,1,.13.1q0.48,1.52,1,3a1.11,1.11,0,0,0,.15.31,0.48,0.48,0,0,0,.83,0A1.1,1.1,0,0,0,5.84,9.1c0.23-.9.45-1.81,0.68-2.71l0-.06,0.2,1L7.26,10c0,0.18.06,0.35,0.11,0.53a0.91,0.91,0,0,0,.14.3,0.49,0.49,0,0,0,.8,0,1.19,1.19,0,0,0,.19-0.49L9.85,4.74a0,0,0,0,1,0,0L10,5.15l0.61,3.19c0.18,1,.36,1.9.55,2.85a1,1,0,0,0,.13.34,0.49,0.49,0,0,0,.87,0,1.52,1.52,0,0,0,.15-0.42q0.61-2.5,1.2-5A0.11,0.11,0,0,1,13.62,6h2.81c0,0.16.06,0.32,0.07,0.48a1.47,1.47,0,0,0,.2.63c0.11,0.2.21,0.4,0.31,0.61a0.39,0.39,0,0,1,0,.39,1.58,1.58,0,0,0-.23.59,1,1,0,0,0,.15.65c0.16,0.27.34,0.53,0.52,0.79L18.69,12l0,0c0.19,0.28.08,0.41-.16,0.52s-0.43.16-.64,0.24a3.47,3.47,0,0,0-.41.18,0.19,0.19,0,0,0-.09.29l0.36,0.82a0.18,0.18,0,0,1-.05.26l-0.26.19-0.08.06c-0.09.08-.09,0.11,0,0.17a0.4,0.4,0,0,1,.22.43,0.24,0.24,0,0,1-.09.15,0.79,0.79,0,0,0-.4.39,1.39,1.39,0,0,0-.07.76c0,0.23.11,0.46,0.14,0.7a1,1,0,0,1-.38.89,1.4,1.4,0,0,1-1,.34l-1.07-.06a6.31,6.31,0,0,0-1.91.06,2,2,0,0,0-1.51,1.35,0.13,0.13,0,0,1-.14.1H3.84c0.05-.23.11-0.45,0.15-0.68A8.06,8.06,0,0,0,4.11,17a6.1,6.1,0,0,0-.72-2.47C3.23,14.22,3,14,2.86,13.7A10.12,10.12,0,0,1,1.25,9.62a9.34,9.34,0,0,1-.09-2.3c0-.42.11-0.84,0.17-1.26A0.42,0.42,0,0,1,1.35,6Z" transform="translate(-1.13 -0.12)"/><path class="cls-1" d="M8,7.68L7.79,6.75,7.24,3.91c0-.14-0.05-0.28-0.09-0.42A0.55,0.55,0,0,0,6.56,3a0.52,0.52,0,0,0-.45.38C6,3.6,6,3.82,5.94,4L5.24,6.82l0,0.08L4.93,6C4.86,5.79,4.78,5.55,4.71,5.31A0.55,0.55,0,0,0,4.2,4.88l-0.28,0H1.64c0.08-.25.16-0.48,0.24-0.71a7.43,7.43,0,0,1,1-2A4.6,4.6,0,0,1,5.38.51,9,9,0,0,1,6.92.22,19.16,19.16,0,0,1,9.65.13c0.43,0,.86.06,1.28,0.12a11.77,11.77,0,0,1,1.86.4,6.16,6.16,0,0,1,1.93.88,4.93,4.93,0,0,1,.53.5,0.5,0.5,0,0,1,.11.5c0,0.13-.07.26-0.09,0.39a0.25,0.25,0,0,0,0,.18,5,5,0,0,1,.82,1.66l0,0.11h-3a1,1,0,0,0-.32.05,0.48,0.48,0,0,0-.31.37l-0.71,3a0.57,0.57,0,0,1-.05.15l-0.18-.92L11.08,4.91,10.59,2.34c0-.19-0.07-0.38-0.12-0.56a0.81,0.81,0,0,0-.14-0.27,0.5,0.5,0,0,0-.79,0A1.28,1.28,0,0,0,9.33,2L8,7.59Z" transform="translate(-1.13 -0.12)"/></svg>