<?xml version="1.0" encoding="utf-8"?>
<!-- Generator: Adobe Illustrator 19.2.1, SVG Export Plug-In . SVG Version: 6.00 Build 0)  -->
<svg version="1.1" id="paperproto" xmlns="http://www.w3.org/2000/svg" xmlns:xlink="http://www.w3.org/1999/xlink" x="0px" y="0px"
	 viewBox="0 0 10.6 19.9" style="enable-background:new 0 0 10.6 19.9;" xml:space="preserve">
<style type="text/css">
	.st0{fill:#E9EBE5;}
</style>
<title>zombie_selfie</title>
<g>
	<path class="st0" d="M5.6,1.8c0.1,0,0.1,0.1,0.3,0.2c-0.4,0-0.7,0-1,0c-0.3,0,0.1-0.1,0-0.2C5.1,1.8,5.3,1.8,5.6,1.8z"/>
	<path class="st0" d="M5.7,6.2c-0.9,0-1.7,0-2.6,0C3,6.2,2.8,6.3,2.8,6.1c0-0.2,0.1-0.3,0.3-0.3c1.8,0,3.5,0,5.3,0
		c0.2,0,0.4,0,0.3,0.3c0,0.3-0.2,0.1-0.3,0.1C7.5,6.2,6.6,6.2,5.7,6.2z"/>
	<path class="st0" d="M8,6.8C7.8,6.8,7.6,6.9,7.5,6.6c0-0.1-0.2-0.1-0.3,0C7,6.9,6.8,6.8,6.5,6.8c-0.7,0-1.5,0-2.2,0
		c-0.2,0-0.4,0.1-0.5-0.2c0-0.1-0.2-0.1-0.3,0C3.3,7,3,6.8,2.7,6.8c-0.2,0-0.2,0-0.2-0.2c0-0.2,0.1-0.2,0.3-0.2c0.9,0,1.9,0,2.8,0
		c0.9,0,1.7,0,2.6,0c0.2,0,0.4-0.1,0.4,0.2c0,0.3-0.2,0.2-0.4,0.2C8.1,6.8,8,6.8,8,6.8z"/>
	<path class="st0" d="M2.5,5.6C2.6,5.3,2.7,5.2,3,5.2c1.5,0,3.1,0,4.6,0c0.3,0,0.4,0.1,0.5,0.4C6.3,5.6,4.4,5.6,2.5,5.6z"/>
	<path class="st0" d="M5.5,10.4c-0.4,0-0.9,0-1.3,0c-0.1,0-0.3,0-0.3-0.2C3.9,10,4,10,4.2,10c0.9,0,1.8,0,2.7,0c0.1,0,0.3,0,0.3,0.2
		c0,0.2-0.1,0.2-0.3,0.2C6.4,10.4,5.9,10.4,5.5,10.4z"/>
	<path class="st0" d="M5.3,9.8c-0.4,0-0.9,0-1.3,0c-0.2,0-0.2,0-0.2-0.2c0-0.2,0.1-0.2,0.2-0.2c0.9,0,1.8,0,2.7,0
		c0.2,0,0.2,0,0.2,0.2c0,0.2-0.1,0.2-0.2,0.2C6.2,9.8,5.7,9.8,5.3,9.8z"/>
	<path class="st0" d="M5.3,9.2c-0.4,0-0.9,0-1.3,0c-0.1,0-0.3,0-0.2-0.2c0-0.2,0.1-0.2,0.2-0.2c0.9,0,1.8,0,2.7,0
		c0.2,0,0.2,0,0.2,0.2c0,0.2-0.1,0.2-0.2,0.2C6.2,9.2,5.7,9.2,5.3,9.2z"/>
	<path class="st0" d="M5.3,7c0.5,0,0.9,0,1.4,0c0.1,0,0.2,0,0.2,0.2c0,0.2,0,0.2-0.2,0.2c-0.9,0-1.9,0-2.8,0c-0.2,0-0.2-0.1-0.2-0.2
		C3.7,7,3.8,7,3.9,7C4.4,7,4.8,7,5.3,7z"/>
	<path class="st0" d="M3,4.9c0.6-0.4,4-0.4,4.6,0C6.1,4.9,4.6,4.9,3,4.9z"/>
	<path class="st0" d="M5.3,2.8c0.4,0,0.7,0,1.1,0c0.2,0,0.2,0.1,0.2,0.2c0,0.2-0.1,0.2-0.2,0.2c-0.7,0-1.4,0-2.1,0
		C4,3.2,3.9,3.2,3.9,3C4,2.8,4,2.8,4.2,2.8C4.5,2.8,4.9,2.8,5.3,2.8z"/>
	<path class="st0" d="M5.3,11c-0.4,0-0.9,0-1.3,0c-0.2,0-0.3,0-0.3-0.2c0-0.2,0.1-0.2,0.3-0.2c0.9,0,1.8,0,2.7,0
		c0.1,0,0.3,0,0.3,0.2c0,0.2-0.1,0.2-0.3,0.2C6.2,11,5.7,11,5.3,11z"/>
	<path class="st0" d="M5.3,8.6c-0.5,0-0.9,0-1.4,0c-0.1,0-0.3,0-0.3-0.2c0-0.2,0.1-0.2,0.3-0.2c0.9,0,1.8,0,2.7,0
		c0.2,0,0.3,0,0.3,0.2c0,0.2-0.2,0.2-0.3,0.2C6.2,8.6,5.8,8.6,5.3,8.6z"/>
	<path class="st0" d="M5.1,8C4.7,8,4.2,8,3.8,8C3.6,8,3.5,8,3.5,7.8c0-0.2,0.1-0.2,0.3-0.2c0.9,0,1.8,0,2.7,0c0.1,0,0.3,0,0.3,0.2
		C6.7,8,6.6,8,6.4,8C6,8,5.5,8,5.1,8z"/>
	<path class="st0" d="M4,3.4c0.9,0,1.7,0,2.5,0c0,0.3-0.1,0.4-0.4,0.4c-0.5,0-1.1,0-1.6,0C4.1,3.8,4,3.7,4,3.4z"/>
	<path class="st0" d="M6.4,2.6c-0.8,0-1.6,0-2.3,0c0.1-0.3,0.2-0.4,0.5-0.4c0.4,0,0.9,0,1.3,0C6.2,2.1,6.3,2.3,6.4,2.6z"/>
	<path class="st0" d="M6,17.1c-0.2,0-0.3,0-0.5,0c-0.2,0-0.2-0.1-0.2-0.2c0-0.1,0-0.2,0.2-0.2c0.4,0,0.7,0,1.1,0
		c0.1,0,0.2,0.1,0.2,0.2c0,0.1,0,0.2-0.2,0.2C6.4,17.1,6.2,17.1,6,17.1z"/>
	<path class="st0" d="M4.6,12.9c-0.2,0-0.3,0-0.5,0c-0.1,0-0.2,0-0.2-0.2c0-0.1,0-0.2,0.2-0.2c0.4,0,0.7,0,1.1,0
		c0.2,0,0.2,0.1,0.2,0.2c0,0.2-0.1,0.2-0.2,0.2C4.9,12.9,4.7,12.9,4.6,12.9z"/>
	<path class="st0" d="M4.6,13.5c-0.2,0-0.4,0-0.5,0c-0.2,0-0.2-0.1-0.2-0.2c0-0.1,0-0.2,0.2-0.2c0.4,0,0.7,0,1.1,0
		c0.2,0,0.2,0.1,0.2,0.2c0,0.1,0,0.2-0.2,0.2C4.9,13.5,4.8,13.5,4.6,13.5z"/>
	<path class="st0" d="M4.6,15.9c-0.2,0-0.4,0-0.6,0c-0.1,0-0.2,0-0.2-0.2c0-0.1,0-0.2,0.2-0.2c0.4,0,0.7,0,1.1,0
		c0.2,0,0.2,0.1,0.2,0.2c0,0.2,0,0.2-0.2,0.2C4.9,15.9,4.8,15.9,4.6,15.9z"/>
	<path class="st0" d="M4.4,16.5c-0.2,0-0.3,0-0.5,0c-0.2,0-0.2-0.1-0.2-0.2c0-0.1,0-0.2,0.2-0.2c0.4,0,0.7,0,1.1,0
		c0.2,0,0.2,0.1,0.2,0.2c0,0.1,0,0.2-0.2,0.2C4.7,16.5,4.6,16.5,4.4,16.5z"/>
	<path class="st0" d="M6.2,16.5c-0.2,0-0.3,0-0.5,0c-0.2,0-0.2-0.1-0.2-0.2c0-0.1,0-0.2,0.2-0.2c0.4,0,0.7,0,1.1,0
		c0.2,0,0.2,0.1,0.2,0.2c0,0.1,0,0.2-0.2,0.2C6.5,16.5,6.4,16.5,6.2,16.5z"/>
	<path class="st0" d="M6.4,15.9c-0.2,0-0.4,0-0.5,0c-0.1,0-0.2-0.1-0.2-0.2c0-0.1,0-0.2,0.2-0.2c0.4,0,0.7,0,1.1,0
		c0.2,0,0.2,0.1,0.2,0.2c0,0.1-0.1,0.2-0.2,0.2C6.7,15.9,6.6,15.9,6.4,15.9z"/>
	<path class="st0" d="M6.2,14.1c-0.2,0-0.4,0-0.5,0c-0.2,0-0.2-0.1-0.2-0.2c0-0.1,0.1-0.2,0.2-0.2c0.4,0,0.7,0,1.1,0
		c0.2,0,0.2,0.1,0.2,0.2c0,0.1-0.1,0.2-0.2,0.2C6.5,14.1,6.4,14.1,6.2,14.1C6.2,14.1,6.2,14.1,6.2,14.1z"/>
	<path class="st0" d="M4.4,13.7c0.2,0,0.3,0,0.5,0c0.1,0,0.2,0,0.2,0.2c0,0.2-0.1,0.2-0.2,0.2c-0.3,0-0.7,0-1,0
		c-0.2,0-0.2-0.1-0.2-0.2c0-0.2,0-0.2,0.2-0.2C4.1,13.7,4.2,13.7,4.4,13.7z"/>
	<path class="st0" d="M4.2,16.7c0.2,0,0.4,0,0.5,0c0.1,0,0.2,0.1,0.2,0.2c0,0.1,0,0.2-0.2,0.2c-0.4,0-0.7,0-1.1,0
		c-0.2,0-0.2-0.1-0.2-0.2c0-0.1,0-0.2,0.2-0.2C3.8,16.7,4,16.7,4.2,16.7z"/>
	<path class="st0" d="M6.4,13.5c-0.2,0-0.4,0-0.5,0c-0.2,0-0.2-0.1-0.2-0.2c0-0.1,0-0.2,0.2-0.2c0.4,0,0.7,0,1.1,0
		c0.1,0,0.2,0.1,0.2,0.2c0,0.1,0,0.2-0.2,0.2C6.8,13.5,6.6,13.5,6.4,13.5z"/>
	<path class="st0" d="M6.4,12.9c-0.2,0-0.3,0-0.5,0c-0.1,0-0.2,0-0.2-0.2c0-0.2,0.1-0.2,0.2-0.2c0.3,0,0.6,0,1,0
		c0.2,0,0.2,0.1,0.2,0.2c0,0.2-0.1,0.2-0.2,0.2C6.7,12.9,6.6,12.9,6.4,12.9z"/>
	<path class="st0" d="M6.2,17.3c0.1,0,0.3,0,0.4,0c0.1,0,0.3-0.1,0.3,0.1c0,0.1-0.1,0.3-0.3,0.3c-0.3,0-0.5,0-0.8,0
		c-0.2,0-0.3-0.2-0.3-0.3c0-0.2,0.2-0.1,0.3-0.1C6,17.3,6.1,17.3,6.2,17.3z"/>
	<path class="st0" d="M3.7,17.3c0.5,0,0.9,0,1.4,0c0,0.3-0.2,0.4-0.4,0.4C4.3,17.6,3.9,17.9,3.7,17.3z"/>
	<path class="st0" d="M4.3,4C5,4,5.5,4,6.1,4C5.7,4.5,5,4.5,4.3,4z"/>
	<path class="st0" d="M6,14.7c-0.2,0-0.4,0-0.5,0c-0.2,0-0.2-0.1-0.2-0.2c0-0.1,0.1-0.2,0.2-0.2c0.4,0,0.7,0,1.1,0
		c0.1,0,0.2,0,0.2,0.2c0,0.1,0,0.2-0.2,0.2C6.4,14.7,6.2,14.7,6,14.7z"/>
	<path class="st0" d="M6.6,12.2c-0.2,0-0.3,0-0.5,0c-0.1,0-0.2,0-0.2-0.2c0-0.1,0-0.2,0.2-0.2c0.4,0,0.7,0,1.1,0
		c0.1,0,0.2,0.1,0.2,0.2c0,0.2-0.1,0.2-0.2,0.2C6.9,12.2,6.8,12.2,6.6,12.2z"/>
	<path class="st0" d="M4.8,12.2c-0.2,0-0.4,0-0.5,0c-0.1,0-0.2,0-0.2-0.2c0-0.1,0-0.2,0.2-0.2c0.4,0,0.7,0,1.1,0
		c0.1,0,0.2,0.1,0.2,0.2c0,0.1,0,0.2-0.2,0.2C5.1,12.2,5,12.2,4.8,12.2z"/>
	<path class="st0" d="M4.4,15.3c-0.2,0-0.3,0-0.5,0c-0.1,0-0.2,0-0.2-0.2c0-0.1,0-0.2,0.2-0.2c0.3,0,0.7,0,1,0
		c0.1,0,0.2,0.1,0.2,0.2c0,0.2-0.1,0.2-0.2,0.2C4.7,15.3,4.6,15.3,4.4,15.3z"/>
	<path class="st0" d="M6.2,11.2c0.2,0,0.4,0,0.5,0c0.1,0,0.2,0.1,0.2,0.2c0,0.1,0,0.2-0.2,0.2c-0.4,0-0.7,0-1.1,0
		c-0.1,0-0.2,0-0.2-0.2c0-0.1,0-0.2,0.2-0.2C5.9,11.2,6,11.2,6.2,11.2z"/>
	<path class="st0" d="M4.4,11.6c-0.2,0-0.3,0-0.5,0c-0.1,0-0.2,0-0.2-0.2c0-0.1,0-0.2,0.2-0.2c0.3,0,0.7,0,1,0c0.1,0,0.2,0,0.2,0.2
		c0,0.2-0.1,0.2-0.2,0.2C4.7,11.6,4.6,11.6,4.4,11.6z"/>
	<path class="st0" d="M6.2,15.3c-0.2,0-0.4,0-0.5,0c-0.1,0-0.2,0-0.2-0.2c0-0.1,0.1-0.2,0.2-0.2c0.4,0,0.7,0,1.1,0
		c0.1,0,0.2,0.1,0.2,0.2c0,0.1,0,0.2-0.2,0.2C6.6,15.3,6.4,15.3,6.2,15.3z"/>
	<path class="st0" d="M4.2,14.7c-0.2,0-0.4,0-0.5,0c-0.1,0-0.2-0.1-0.2-0.2c0-0.1,0-0.2,0.2-0.2c0.4,0,0.7,0,1.1,0
		c0.1,0,0.2,0,0.2,0.2c0,0.1,0,0.2-0.2,0.2C4.5,14.7,4.4,14.7,4.2,14.7z"/>
	<path class="st0" d="M2.9,10.4c-0.1,0-0.2,0-0.3,0c-0.2,0-0.2-0.1-0.2-0.2c0-0.1,0.1-0.2,0.2-0.2c0.2,0,0.4,0,0.6,0
		c0.1,0,0.3,0,0.3,0.2c0,0.2-0.1,0.2-0.3,0.2C3.1,10.4,3,10.4,2.9,10.4z"/>
	<path class="st0" d="M8,10.4c-0.1,0-0.2,0-0.3,0c-0.2,0-0.2-0.1-0.2-0.2C7.5,10,7.6,10,7.7,10c0.2,0,0.3,0,0.5,0
		c0.1,0,0.3-0.1,0.3,0.2c0,0.2-0.1,0.3-0.3,0.2C8.1,10.4,8.1,10.4,8,10.4z"/>
	<path class="st0" d="M2.8,7.4c-0.1,0-0.2,0-0.3,0c-0.2,0-0.1-0.1-0.1-0.2c0-0.1,0-0.2,0.2-0.2C2.6,7,2.8,7,3,7
		c0.1,0,0.3-0.1,0.3,0.2c0,0.2-0.2,0.2-0.3,0.2C2.9,7.4,2.8,7.4,2.8,7.4C2.8,7.4,2.8,7.4,2.8,7.4z"/>
	<path class="st0" d="M7.8,7C7.9,7,8,7,8.1,7c0.1,0,0.2,0,0.2,0.2c0,0.1,0,0.2-0.2,0.2c-0.2,0-0.3,0-0.5,0c-0.1,0-0.3,0-0.3-0.2
		C7.3,7,7.5,7,7.6,7C7.7,7,7.7,7,7.8,7z"/>
	<path class="st0" d="M2.7,9.2c-0.2,0-0.3,0.1-0.4-0.1c0-0.1-0.1-0.3,0.1-0.3c0.3-0.1,0.6-0.1,0.9,0c0.1,0,0.1,0.2,0.1,0.3
		C3.1,9.3,2.9,9.2,2.7,9.2z"/>
	<path class="st0" d="M7.8,9.8c-0.1,0-0.2,0-0.3,0c-0.1,0-0.2-0.1-0.2-0.2c0-0.1,0-0.2,0.2-0.2c0.2,0,0.4,0,0.5,0
		c0.2,0,0.3,0,0.3,0.2c0,0.2-0.2,0.2-0.3,0.2C8,9.8,7.9,9.8,7.8,9.8z"/>
	<path class="st0" d="M7.8,9.2c-0.1,0-0.2,0-0.3,0c-0.1,0-0.2,0-0.2-0.2c0-0.1,0-0.2,0.2-0.2c0.2,0,0.4,0,0.5,0c0.2,0,0.3,0,0.3,0.2
		c0,0.3-0.2,0.2-0.3,0.2C8,9.2,7.9,9.2,7.8,9.2z"/>
	<path class="st0" d="M2.8,9.8c-0.2,0-0.4,0.1-0.5-0.1c-0.1-0.1-0.1-0.2,0-0.3c0-0.1,0.9-0.1,0.9,0c0.1,0.1,0.1,0.3,0,0.3
		C3.1,9.9,2.9,9.8,2.8,9.8z"/>
	<path class="st0" d="M7.6,8C7.5,8,7.4,8,7.4,8C7.2,8,7.1,8,7.1,7.8c0-0.2,0.1-0.2,0.2-0.2c0.2,0,0.3,0,0.5,0c0.1,0,0.3-0.1,0.3,0.2
		C8.1,8,8,8,7.8,8C7.8,8,7.7,8,7.6,8z"/>
	<path class="st0" d="M2.6,8C2.5,8,2.4,8,2.3,8C2.1,8,2.1,7.9,2.1,7.8c0-0.1,0.1-0.2,0.2-0.2c0.2,0,0.4,0,0.6,0c0.1,0,0.3,0,0.3,0.2
		C3.1,8,3,8,2.8,8C2.8,8,2.7,8,2.6,8z"/>
	<path class="st0" d="M2.8,8.6c-0.1,0-0.2,0-0.3,0c-0.1,0-0.2-0.1-0.2-0.2c0-0.1,0-0.2,0.2-0.2c0.2,0,0.4,0,0.6,0
		c0.2,0,0.2,0,0.2,0.2c0,0.2-0.1,0.2-0.2,0.2C3,8.6,2.9,8.6,2.8,8.6z"/>
	<path class="st0" d="M7.8,8.6c-0.1,0-0.2,0-0.3,0c-0.1,0-0.2-0.1-0.2-0.2c0-0.1,0-0.2,0.2-0.2c0.2,0,0.4,0,0.6,0
		c0.2,0,0.2,0,0.2,0.2c0,0.2-0.1,0.2-0.2,0.2C8,8.6,7.9,8.6,7.8,8.6z"/>
	<path class="st0" d="M3.3,10.7c-0.3,0.5-0.6,0.5-0.9,0C2.7,10.7,3,10.7,3.3,10.7z"/>
	<path class="st0" d="M8.3,10.7c-0.3,0.5-0.6,0.5-0.9,0C7.7,10.7,7.9,10.7,8.3,10.7z"/>
	<path class="st0" d="M10.5,10.2c0,0.1,0,0.2-0.1,0.3c-0.1,0-0.1-0.1-0.1-0.1c0-0.1,0-0.2,0.1-0.3C10.5,10,10.5,10.1,10.5,10.2z"/>
	<path class="st0" d="M9.4,15.5c0.1,0,0.1,0.1,0.1,0.1c0,0.1,0,0.2-0.2,0.3c-0.1,0-0.1,0-0.1-0.1C9.2,15.6,9.2,15.5,9.4,15.5z"/>
	<path class="st0" d="M0.3,10.3c0,0.1,0,0.2-0.1,0.2c-0.2,0-0.1-0.2-0.2-0.3c0-0.1,0-0.2,0.1-0.2C0.3,10,0.3,10.2,0.3,10.3z"/>
	<path class="st0" d="M1.3,15.9c-0.2,0-0.2-0.1-0.2-0.3c0-0.1,0-0.2,0.1-0.2c0.2,0,0.1,0.2,0.2,0.3C1.4,15.8,1.4,15.9,1.3,15.9z"/>
	<path class="st0" d="M9.8,13.8c0,0.1,0,0.2-0.2,0.3c-0.1,0-0.1-0.1-0.1-0.2c0-0.1,0-0.2,0.2-0.3C9.8,13.6,9.8,13.7,9.8,13.8z"/>
	<path class="st0" d="M10.2,12c0,0.1,0,0.3-0.2,0.2c-0.1,0-0.1-0.1-0.1-0.2c0-0.1,0-0.2,0.2-0.2C10.2,11.8,10.2,11.9,10.2,12z"/>
	<path class="st0" d="M0.7,12.1c0,0.1,0,0.2-0.1,0.2c-0.2,0-0.1-0.1-0.2-0.2c0-0.1,0-0.2,0.1-0.2C0.7,11.8,0.7,12,0.7,12.1z"/>
	<path class="st0" d="M1,13.9c0,0.1,0,0.2-0.1,0.2c-0.2,0-0.2-0.1-0.2-0.2c0-0.1,0-0.2,0.1-0.2C1,13.6,1,13.8,1,13.9z"/>
	<path class="st0" d="M9.1,16.3c0-0.1,0-0.2,0.2-0.2c0.1,0,0.1,0.1,0.1,0.2c0,0.1,0,0.3-0.2,0.2C9.1,16.5,9.1,16.4,9.1,16.3z"/>
	<path class="st0" d="M1.6,17.7c-0.1,0-0.1-0.1-0.2-0.2c0-0.1,0-0.2,0.1-0.2c0.1,0,0.1,0.2,0.1,0.2C1.8,17.6,1.7,17.7,1.6,17.7z"/>
	<path class="st0" d="M1.4,16.5c-0.2,0-0.1-0.2-0.2-0.3c0-0.1,0-0.2,0.1-0.2c0.2,0,0.1,0.1,0.2,0.3C1.5,16.4,1.5,16.5,1.4,16.5z"/>
	<path class="st0" d="M11,6.6c0-0.1,0-0.2,0.1-0.2c0.1,0,0.1,0.1,0.1,0.1c0,0.1,0,0.3-0.2,0.3C10.9,6.8,11,6.7,11,6.6z"/>
	<path class="st0" d="M0.9,13.5c-0.2,0-0.2-0.1-0.2-0.2c0-0.1,0-0.2,0.1-0.2c0.2,0,0.1,0.2,0.2,0.3C1,13.4,0.9,13.4,0.9,13.5z"/>
	<path class="st0" d="M10.6,9.4c0.1,0.2,0.1,0.3-0.1,0.4c0,0-0.1,0-0.1,0C10.4,9.6,10.4,9.5,10.6,9.4z"/>
	<path class="st0" d="M9,17.7c-0.1,0-0.1-0.1-0.1-0.2c0-0.1,0-0.2,0.1-0.3c0.1,0,0.1,0,0.1,0.1C9.1,17.5,9.1,17.7,9,17.7z"/>
	<path class="st0" d="M-0.5,6.4c0.2,0,0.1,0.2,0.1,0.3c0,0.1,0,0.2-0.1,0.1c-0.2,0-0.1-0.2-0.1-0.3C-0.6,6.4-0.6,6.4-0.5,6.4z"/>
	<path class="st0" d="M10.6,9.2c-0.1,0-0.1-0.1-0.1-0.2c0-0.1,0-0.2,0.1-0.3c0.1,0,0.1,0.1,0.1,0.2C10.7,9.1,10.7,9.2,10.6,9.2z"/>
	<path class="st0" d="M9.9,13.2c0,0.1,0,0.2-0.1,0.2c-0.1,0-0.1-0.1-0.1-0.2c0-0.1,0-0.2,0.1-0.2C9.9,13,9.9,13.1,9.9,13.2z"/>
	<path class="st0" d="M0.2,9.7c0,0.1,0,0.2-0.1,0.2C0,9.8,0,9.7,0,9.6c0-0.1,0-0.2,0.1-0.1C0.2,9.4,0.2,9.6,0.2,9.7z"/>
	<path class="st0" d="M1.8,18.3c-0.1,0-0.1-0.1-0.2-0.2c0-0.1,0-0.2,0.1-0.2c0.1,0,0.1,0.1,0.1,0.2C1.8,18.2,1.9,18.3,1.8,18.3z"/>
	<path class="st0" d="M0.1,9.1c0,0.1,0,0.2-0.1,0.2c-0.1,0-0.1-0.2-0.1-0.2c0-0.1,0-0.2,0.1-0.2C0.1,8.8,0,9,0.1,9.1z"/>
	<path class="st0" d="M8.8,18.3c-0.1,0-0.1-0.1-0.1-0.2c0-0.1,0-0.2,0.1-0.2C9,17.9,9,18,9,18.1C9,18.2,9,18.3,8.8,18.3z"/>
	<path class="st0" d="M1.5,17.1c-0.1-0.1-0.1-0.2-0.1-0.3c0-0.1,0.1-0.1,0.1-0.1c0.1,0.1,0.1,0.2,0.1,0.3
		C1.6,17.1,1.6,17.1,1.5,17.1z"/>
	<path class="st0" d="M-0.4,7c0.2,0,0.1,0.1,0.1,0.2c0,0.1,0,0.2,0,0.2c-0.1,0-0.2-0.1-0.2-0.2C-0.5,7.1-0.5,7-0.4,7z"/>
	<path class="st0" d="M0.8,12.7c0,0.1,0,0.2-0.1,0.2c-0.2,0-0.1-0.2-0.1-0.3c0,0,0-0.1,0.1-0.1C0.8,12.5,0.8,12.6,0.8,12.7z"/>
	<path class="st0" d="M9.2,16.9c0,0,0,0.2-0.1,0.2C9,17.1,9,17,9,17c0-0.1,0-0.2,0.1-0.3C9.2,16.7,9.2,16.7,9.2,16.9z"/>
	<path class="st0" d="M10.2,11.2c0.1,0,0.1,0.1,0.1,0.2c0,0.1,0,0.2-0.2,0.2c-0.1,0-0.1-0.1-0.1-0.2C10.1,11.4,10.1,11.3,10.2,11.2z
		"/>
	<path class="st0" d="M0.4,10.9c0,0.1,0,0.2-0.1,0.2c-0.2,0-0.1-0.1-0.1-0.2c0-0.1,0-0.1,0.1-0.1C0.5,10.6,0.4,10.8,0.4,10.9z"/>
	<path class="st0" d="M11.1,7c-0.1,0.2,0,0.4-0.2,0.4c-0.1,0-0.1-0.1-0.1-0.1c0-0.1,0-0.3,0.1-0.3C11.1,7,11.1,7.1,11.1,7z"/>
	<path class="st0" d="M-0.1,7.8c0,0.1,0,0.2-0.1,0.2c-0.1,0-0.1-0.1-0.2-0.2c0-0.1,0-0.2,0.1-0.1C-0.1,7.6-0.2,7.8-0.1,7.8z"/>
	<path class="st0" d="M9.9,12.9c-0.1,0-0.1-0.1-0.1-0.1c0-0.1,0-0.2,0.1-0.3c0.1,0,0.1,0,0.1,0.1C10,12.7,10.1,12.8,9.9,12.9z"/>
	<path class="st0" d="M11,7.8c0,0.1,0,0.2-0.1,0.2c-0.1,0-0.1-0.1-0.1-0.1c0-0.1,0-0.2,0.1-0.2C11,7.6,11,7.7,11,7.8z"/>
	<path class="st0" d="M-0.2,8.2C0,8.2,0,8.4,0,8.5c0,0.1,0,0.2-0.1,0.2c-0.2,0-0.1-0.1-0.1-0.2C-0.3,8.3-0.3,8.2-0.2,8.2z"/>
	<path class="st0" d="M9.7,14.4c0,0.1,0,0.2-0.1,0.2c-0.1,0-0.1-0.1-0.1-0.1c0-0.1,0-0.2,0.1-0.2C9.7,14.3,9.7,14.3,9.7,14.4z"/>
	<path class="st0" d="M1.1,14.5c0,0.1,0,0.2-0.1,0.2c-0.1,0-0.1-0.2-0.1-0.3c0-0.1,0-0.1,0.1-0.1C1.2,14.3,1.1,14.4,1.1,14.5z"/>
	<path class="st0" d="M0.5,11.6c-0.1,0-0.1-0.1-0.1-0.2c0-0.1,0-0.2,0.1-0.1c0.2,0,0.1,0.2,0.1,0.3C0.6,11.6,0.5,11.6,0.5,11.6z"/>
	<path class="st0" d="M9.5,14.9c0.1,0,0.1,0.1,0.1,0.2c0,0.1,0,0.2-0.1,0.2c-0.1,0-0.1-0.1-0.1-0.1C9.4,15,9.3,14.9,9.5,14.9z"/>
	<path class="st0" d="M1.2,15.3C1,15.2,1.1,15.1,1,15c0-0.1,0-0.2,0.1-0.1C1.3,14.9,1.2,15.1,1.2,15.3C1.3,15.3,1.2,15.2,1.2,15.3z"
		/>
	<path class="st0" d="M10.4,10.8c0,0.1,0,0.2-0.1,0.2c-0.1,0-0.1-0.1-0.1-0.1c0-0.1,0-0.2,0.1-0.2C10.4,10.6,10.4,10.7,10.4,10.8z"
		/>
	<path class="st0" d="M10.7,8.6c-0.1,0-0.1-0.1-0.1-0.2c0-0.1,0-0.2,0.1-0.2c0.1,0,0.1,0.1,0.1,0.2C10.8,8.5,10.8,8.6,10.7,8.6z"/>
	<path class="st0" d="M0.7,19.5c0.4-0.8,1-1,1.8-1c2,0.1,4,0,6,0c0.5,0,0.8,0.1,1,0.5c0.1,0.2,0.2,0.3,0.4,0.5
		C6.8,19.5,3.8,19.5,0.7,19.5z M4,18.7c-0.2,0-0.3,0.1-0.3,0.3c0,0.2,0,0.4,0.3,0.3c0.9,0,1.8,0,2.7,0c0.3,0,0.3-0.1,0.3-0.3
		c0-0.2-0.1-0.3-0.3-0.3c-0.4,0-0.9,0-1.3,0C4.9,18.7,4.4,18.7,4,18.7z M7.3,19.1c0,0.1,0.1,0.2,0.2,0.2c0.1,0,0.2-0.1,0.2-0.2
		c0-0.1-0.1-0.2-0.2-0.2C7.4,18.9,7.3,19,7.3,19.1z M2.9,19.1c0,0.1,0.1,0.2,0.2,0.2c0.1,0,0.2-0.1,0.2-0.2c0-0.1-0.1-0.2-0.2-0.2
		C3,18.9,2.9,19,2.9,19.1z M8.3,18.9c0-0.1-0.1-0.2-0.2-0.2c-0.1,0-0.2,0.1-0.2,0.2c0,0.1,0.1,0.2,0.2,0.2C8.2,19.1,8.3,19,8.3,18.9
		z M2.3,18.9c0,0.1,0.1,0.2,0.2,0.2c0.1,0,0.2-0.1,0.2-0.2c0-0.1-0.1-0.2-0.2-0.2C2.4,18.7,2.3,18.8,2.3,18.9z"/>
</g>
</svg>
