<?xml version="1.0" encoding="utf-8"?>
<!-- Generator: Adobe Illustrator 19.2.1, SVG Export Plug-In . SVG Version: 6.00 Build 0)  -->
<svg version="1.1" id="eeg" xmlns="http://www.w3.org/2000/svg" xmlns:xlink="http://www.w3.org/1999/xlink" x="0px" y="0px"
	 viewBox="0 0 17.7 19.8" style="enable-background:new 0 0 17.7 19.8;" xml:space="preserve">
<style type="text/css">
	.st0{fill:#E9EBE5;}
</style>
<title>zombie_selfie</title>
<g>
	<path class="st0" d="M9.7,1.1c0.6,0.3,1.3,0.6,1.9,1c1.1,0.9,1.6,2.1,1.6,3.7c0,0.9,0,1.8,0,2.8c0.2,0,0.3,0,0.5,0
		c0.4,0,0.7,0.3,0.7,0.8c0,0.4,0,0.8,0,1.3c0,0.5-0.3,0.8-0.7,0.8c-3.1,0-6.3,0-9.4,0c-0.5,0-0.7-0.3-0.7-0.8c0-0.4,0-0.7,0-1.1
		c0-0.6,0.2-0.8,0.8-0.8c0.1,0,0.3,0,0.5,0c0-0.9,0-1.7,0-2.5c0-2.5,1.3-4.3,3.4-4.8c0,0,0.1-0.1,0.1-0.1C8.8,1.1,9.2,1.1,9.7,1.1z
		 M12,8.5c0-1,0-2,0-3c-0.1-1.6-1.2-2.9-2.6-3C7.9,2.3,6.5,3.3,6.2,4.8C6,6,6,7.3,6,8.5C8,8.5,10,8.5,12,8.5z"/>
	<path class="st0" d="M7.8,18.7c-0.4,0-0.8,0-1.1,0c0-2.2,0-4.5,0-6.7c0.4,0,0.7,0,1.1,0C7.8,14.2,7.8,16.4,7.8,18.7z"/>
	<path class="st0" d="M11.4,18.7c-0.4,0-0.8,0-1.1,0c0-2.2,0-4.5,0-6.7c0.4,0,0.7,0,1.1,0C11.4,14.2,11.4,16.4,11.4,18.7z"/>
</g>
</svg>
