<svg id="moonshot" xmlns="http://www.w3.org/2000/svg" viewBox="0 0 6.75 19.98"><defs><style>.cls-1{fill:#e9ebe5;}</style></defs><title>zombie_selfie</title><path class="cls-1" d="M8.59,2.6c-0.11.13-.16,0.15-0.24,0.09a0.25,0.25,0,0,1,0-.29c0.12-.13.16,0,0.26,0.1L8.52,2.06l-0.07.14a0.18,0.18,0,0,1-.22-0.1,0.26,0.26,0,0,1,0-.2c0.08-.1.15,0,0.24,0.07L8.43,1.53l0,0.09a0.21,0.21,0,0,1-.06.1,0.21,0.21,0,0,1-.14,0A0.22,0.22,0,0,1,8.3,1.31L8.38,1.43h0L8.22,0.27l0,0L8.43,0.43,9.19,1.35a0.14,0.14,0,0,0,.25,0c0.12-.14.23-0.28,0.35-0.43l0.61-.78A1.13,1.13,0,0,0,10.48,0l0.07,0c-0.06.41-.17,0.82-0.26,1.25a0.34,0.34,0,0,0,.11-0.06c0.06-.08.12,0,0.17,0a0.17,0.17,0,0,1,0,.23,0.25,0.25,0,0,1-.16,0,0.3,0.3,0,0,1-.07,0c-0.07,0-.13,0-0.15.06s0,0.17,0,.26h0l0-.06a0.21,0.21,0,0,1,.1-0.07,0.19,0.19,0,0,1,.12.09,0.35,0.35,0,0,1,0,.18,0.15,0.15,0,0,1-.15.17A0.41,0.41,0,0,1,10.21,2a0.38,0.38,0,0,0-.16.34l0.36,0c0,0.14,0,.15-0.35.11C10,2.55,9.93,2.6,9.87,2.65A0.37,0.37,0,0,0,9.68,3c0,0.63,0,1.25.06,1.88q0.05,1.68.1,3.36c0,1.05.07,2.1,0.11,3.15a0.89,0.89,0,0,0,.08.32,0.36,0.36,0,0,0,.54.19,1.24,1.24,0,0,0,.27-0.19l1.69-1.55L12.68,10l0,0s0,0.09,0,.14L11.43,14a0.85,0.85,0,0,0,0,.57c0.15,0.44.28,0.89,0.41,1.34L13,19.67a1.35,1.35,0,0,1,.05.2A0.48,0.48,0,0,1,13,20l-0.12-.06a0.62,0.62,0,0,1-.09-0.09l-2.58-2.78L10.12,17A0.76,0.76,0,0,0,9,17c-0.22.22-.43,0.44-0.64,0.67L8,18,6.48,19.6l-0.16.14h0a1,1,0,0,1,0-.12l1.57-4.82c0-.09.06-0.19,0.1-0.28a1.8,1.8,0,0,0,0-1c-0.06-.41-0.14-0.82-0.21-1.23a0.1,0.1,0,0,1,.11-0.13,1.47,1.47,0,0,0,1-.44,0.23,0.23,0,0,0,.05-0.15c0-.52,0-1,0-1.55q0-2.16,0-4.32,0-1.24,0-2.49A0.44,0.44,0,0,0,8.65,2.7,0.28,0.28,0,0,1,8.59,2.6Z" transform="translate(-6.29 -0.02)"/></svg>