<?xml version="1.0" encoding="utf-8"?>
<!-- Generator: Adobe Illustrator 21.0.0, SVG Export Plug-In . SVG Version: 6.00 Build 0)  -->
<svg version="1.1" id="paperproto" xmlns="http://www.w3.org/2000/svg" xmlns:xlink="http://www.w3.org/1999/xlink" x="0px" y="0px"
	 viewBox="0 0 15.1 19.9" style="enable-background:new 0 0 15.1 19.9;" xml:space="preserve">
<style type="text/css">
	.st0{fill:#E9EBE5;}
</style>
<g>
	<path class="st0" d="M4.6,7.6c0.7-1.2,1.6-2.5,2.4-3.7C7.1,4,7.1,4,7.1,4.2c0.7,1,1.6,1.9,2.4,3c0.1,0.1,0.3,0.1,0.3,0.1
		C9.9,7.3,9.9,7.1,10,7c0.4-1.3,0.7-2.5,1.2-3.8V3c1.3,0.9,2.5,1.9,3.8,3c-0.3,0.3-0.6,0.6-0.9,0.7c-0.3,0.3-0.6,0.6-0.9,0.9
		c-0.4,0.6-1.2,1-1.9,1.2C10.5,8.9,9.6,9,8.6,9.3c-0.1,0-0.1,0-0.3,0C7.1,8.7,5.8,8.2,4.6,7.6L4.6,7.6z"/>
	<path class="st0" d="M9.2,20c-0.7-3.5-1.5-7.1-2.4-10.8c0.1,0.1,0.4,0.1,0.6,0.3c0.9,0.4,1.9,0.9,2.8,1.3c0.1,0,0.1,0.1,0.1,0.3
		c0,2.7,0,5.3-0.1,8c0,0.1,0,0.1-0.1,0.3C9.9,19.5,9.6,19.8,9.2,20z"/>
	<path class="st0" d="M6.4,9.5c0.7,3.2,1.3,6.5,2.1,9.6c-1.2,0-2.5,0-3.7,0c0-0.1,0-0.1,0-0.3C4.9,16.9,5,14.9,5.2,13
		c0-0.3,0-0.4,0-0.7c0-0.4,0.1-0.7,0.3-1.2C5.8,10.8,6.1,10.2,6.4,9.5z"/>
	<path class="st0" d="M1.2,9.5c0.3,0.6,0.6,1,0.7,1.6c0.4,1.2,1,2.2,1.5,3.4c0,0.1,0,0.3,0,0.3c-0.6,1.2-1.2,2.5-1.8,3.7
		c0,0,0,0-0.1,0.1c0-0.9-0.1-1.6-0.3-2.4c-0.3-1.8-0.6-3.5-0.9-5.3c0-0.1,0-0.3,0-0.3C0.6,10.2,0.9,9.9,1.2,9.5z"/>
	<path class="st0" d="M10.9,11.1c0.6,0.4,1.2,0.7,1.8,1c0.4,0.3,0.6,0.4,0.4,1c-0.3,2.2-0.6,4.3-0.9,6.5v0.1
		c-0.4-0.1-0.7-0.4-1.2-0.6c0,0-0.1-0.1-0.1-0.3c0-2.1,0-4.3,0-6.3C10.9,12.3,10.9,11.7,10.9,11.1z"/>
	<path class="st0" d="M4.1,20c-0.3-0.1-0.6-0.4-0.9-0.6l-0.1-0.1C3,18.6,2.8,18,2.8,17.5c0-0.1,0-0.1,0-0.3C3.4,16,4,14.6,4.6,13.5
		c0,0,0,0,0.1,0C4.6,15.5,4.4,17.7,4.1,20z"/>
	<path class="st0" d="M4.3,1.7C5,2.2,5.9,2.8,6.6,3.4C5.9,4.6,5.2,5.6,4.4,6.8l0,0C4.3,5.1,4.3,3.4,4.3,1.7z"/>
	<path class="st0" d="M7.4,3.6c1.2-0.3,2.2-0.4,3.4-0.7C10.5,4,10,5.2,9.7,6.5C8.9,5.5,8.1,4.5,7.4,3.6z"/>
	<path class="st0" d="M12.3,0c0.7,1.6,1.6,3.2,2.4,4.9l0,0c-0.3-0.3-0.6-0.4-0.9-0.7C13,3.6,12.3,3,11.5,2.4c0,0-0.1-0.1-0.1-0.3
		C11.7,1.5,12,0.8,12.3,0z"/>
	<path class="st0" d="M12.8,11.8c-0.6-0.4-1.2-0.7-1.8-1.2c0.4-0.3,0.7-0.7,1.2-1C12.4,10.4,12.7,11.1,12.8,11.8
		C13,11.8,13,11.8,12.8,11.8z"/>
	<path class="st0" d="M11.8,9.2c-0.4,0.4-0.7,0.7-1.2,1.2h-0.1C10,10.2,9.6,9.9,9.2,9.8C10,9.5,10.9,9.3,11.8,9.2z"/>
	<path class="st0" d="M0.4,9.5c0.1-0.6,0.3-1,0.4-1.6L1,7.7c0.4-0.1,0.7-0.3,1.2-0.4C1.6,8,1,8.7,0.4,9.5C0.6,9.5,0.4,9.5,0.4,9.5z"
		/>
	<path class="st0" d="M2.7,19.2c-0.3,0-0.4,0-0.7,0c0.1-0.4,0.3-0.7,0.4-1l0,0C2.5,18.5,2.5,18.8,2.7,19.2z"/>
</g>
</svg>
