<svg id="paperproto" xmlns="http://www.w3.org/2000/svg" viewBox="0 0 10.6 19.94"><defs><style>.cls-1{fill:#e9ebe5;}</style></defs><title>zombie_selfie</title><path class="cls-1" d="M14,0.06a1,1,0,0,1,.71.73,1.62,1.62,0,0,1,0,.35q0,5.7,0,11.41c0,2.1,0,4.19,0,6.29A1.08,1.08,0,0,1,14,20H4.85a1,1,0,0,1-.71-0.71,1.34,1.34,0,0,1,0-.31q0-8.48,0-17,0-.49,0-1a0.94,0.94,0,0,1,.67-1l0.07,0H14ZM4.75,1.94V17.49h9.33V1.94H4.75Zm4.66,16.2a0.63,0.63,0,0,0-.62.62A0.62,0.62,0,1,0,9.41,18.13Z" transform="translate(-4.11 -0.06)"/></svg>