<?xml version="1.0" encoding="utf-8"?>
<!-- Generator: Adobe Illustrator 19.2.1, SVG Export Plug-In . SVG Version: 6.00 Build 0)  -->
<svg version="1.1" id="Layer_1" xmlns="http://www.w3.org/2000/svg" xmlns:xlink="http://www.w3.org/1999/xlink" x="0px" y="0px"
	 viewBox="0 0 20 20" style="enable-background:new 0 0 20 20;" xml:space="preserve">
<style type="text/css">
	.st0{fill:#EAEAEA;}
</style>
<g>
	<path class="st0" d="M0,9.8c0.2-0.3,0.6-0.5,1-0.4c0.4,0,0.9,0,1.3,0c0.4,0,0.6-0.1,0.7-0.5C3.2,8.2,3.5,7.6,3.8,7
		c0.2-0.4,0.4-0.6,0.8-0.6C5,6.5,5.1,6.8,5.2,7.2c0.2,1.4,0.5,2.9,0.7,4.4C6,11.5,6,11.4,6,11.3c0.8-2.6,1.6-5.1,2.4-7.7
		c0-0.1,0.1-0.1,0.1-0.2C8.6,3,8.8,2.8,9.2,2.9c0.4,0,0.6,0.3,0.6,0.7c0.1,1,0.3,2,0.4,3c0.2,1.9,0.5,3.7,0.8,5.6
		c0.1-0.7,0.2-1.4,0.4-2.1c0.2-1.1,0.4-2.2,0.5-3.3C12,6.4,12.1,6.1,12.4,6c0.4-0.1,0.6,0.1,0.8,0.4c0.3,0.6,0.6,1.1,0.9,1.7
		c0.1,0.3,0.3,0.4,0.6,0.4c1.5,0,3,0,4.6,0c0.5,0,0.8,0.3,0.8,0.7c0,0.4-0.3,0.7-0.8,0.7c-1.7,0-3.5,0-5.2,0c-0.7,0-0.8-0.5-1.1-1
		c-0.1,0.6-0.2,1.1-0.3,1.6c-0.4,2.2-0.7,4.4-1.1,6.6c-0.1,0.4-0.3,0.6-0.7,0.6c-0.3,0-0.6-0.3-0.7-0.6c-0.3-2.1-0.5-4.3-0.8-6.4
		C9.3,9.4,9.1,8.2,9,7c0-0.1,0-0.1-0.1-0.3c-0.4,1.2-0.7,2.2-1,3.3c-0.5,1.5-1,3.1-1.4,4.6c-0.1,0.4-0.3,0.7-0.7,0.6
		c-0.4,0-0.6-0.3-0.6-0.7c-0.3-1.7-0.5-3.3-0.8-5.1C4,9.8,3.9,10,3.9,10.2c-0.2,0.4-0.4,0.5-0.8,0.5c-0.7,0-1.4,0-2.1,0
		c-0.4,0-0.7-0.1-0.9-0.5C0,10.1,0,9.9,0,9.8z"/>
</g>
</svg>
