<?xml version="1.0" encoding="utf-8"?>
<!-- Generator: Adobe Illustrator 19.2.1, SVG Export Plug-In . SVG Version: 6.00 Build 0)  -->
<svg version="1.1" id="DW" xmlns="http://www.w3.org/2000/svg" xmlns:xlink="http://www.w3.org/1999/xlink" x="0px" y="0px"
	 viewBox="0 0 20 13.5" style="enable-background:new 0 0 20 13.5;" xml:space="preserve">
<style type="text/css">
	.st0{fill:#E9EBE5;}
</style>
<title>zombie_selfie</title>
<g>
	<path class="st0" d="M7.2,4.4c1.6,0,3.2,0,4.8,0c1.3,0,2.1,0.8,2.1,2.1c0,1.5,0,3,0,4.5c0,1.4-0.9,2.2-2.3,2.1
		c-1.4-0.2-2.7-0.3-4-0.5C5.9,12.3,4,12,2,11.8c-1-0.1-1.7-0.9-1.7-1.9c0-1.2,0-2.4,0-3.5c0-1.1,0.9-2,2-2C3.9,4.4,5.6,4.4,7.2,4.4z
		 M8.5,10.8C8.5,10.8,8.5,10.8,8.5,10.8C8,9.5,7.5,8.2,7,6.9C7.5,6.6,8,6.3,8.4,6c0,0,0-0.1-0.1-0.1C7.7,6.2,7.1,6.5,6.4,6.8
		C7.1,8.1,7.8,9.5,8.5,10.8z M10.9,5.3C10.9,5.3,10.9,5.3,10.9,5.3c0,0.7,0.2,1.3,0.2,1.9c0,0.6,0,1.3,0,1.9c0,0.6,0.1,1.2,0.1,1.8
		c0.1-0.1,0.1-0.1,0.1-0.2c0-1.3,0.1-2.7,0-4C11.4,6.2,11.1,5.8,10.9,5.3z M1.5,5.8C1.5,5.8,1.5,5.9,1.5,5.8c0,0.2,0.1,0.4,0.2,0.5
		C2.2,6.7,2.2,7.1,2,7.6C1.8,8.2,1.6,8.9,1.4,9.5c0,0,0.1,0,0.1,0c0.4-0.9,0.8-1.9,1.2-2.8C2.3,6.4,1.9,6.1,1.5,5.8z"/>
	<path class="st0" d="M5.1,3.9c2.1-2.1,4.5-3.6,7.5-3.7c1.2,0,2.3,0.2,3.4,0.7c1.8,0.8,2.9,2.7,2.7,4.6c0,0.1-0.2,0.3-0.3,0.4
		C17.8,5.9,17.2,6,16.6,6c0-0.5,0-0.9,0-1.4c-0.2-2.4-2.3-3.8-4.5-3.2c-1.3,0.4-2.5,1.1-3.4,2.2C8.5,3.8,8.3,3.9,8.2,3.9
		C7.2,3.9,6.1,3.9,5.1,3.9z"/>
	<path class="st0" d="M13.9,4.5c0.5,0,1,0.1,1.3,0.6c0.3,0.4,0.4,1,0.6,1.5c1.2-0.1,2.4-0.2,3.8-0.4c0,0.8,0,1.5-0.1,2.2
		c0,0.2-0.3,0.4-0.5,0.5c-0.9,0.2-1.8,0.4-2.7,0.5c-0.4,0.1-0.6,0.2-0.7,0.6c0,0.7-0.4,1.3-1.1,1.6c0-0.3,0-0.4,0-0.6
		c0-1.7,0-3.4-0.1-5.1C14.4,5.4,14.1,4.9,13.9,4.5z"/>
</g>
</svg>
