<?xml version="1.0" encoding="utf-8"?>
<!-- Generator: Adobe Illustrator 21.0.0, SVG Export Plug-In . SVG Version: 6.00 Build 0)  -->
<svg version="1.1" id="Layer_1" xmlns="http://www.w3.org/2000/svg" xmlns:xlink="http://www.w3.org/1999/xlink" x="0px" y="0px"
	 viewBox="0 0 1000 682.5" style="enable-background:new 0 0 1000 682.5;" xml:space="preserve">
<style type="text/css">
	.st0{fill:#F3F3F3;}
</style>
<path class="st0" d="M223.4,409.7c-8.2-3.3-15.5-12.7-15.5-24.5c0-15.5,12.7-26.9,26.5-26.9c14.7,0,27.3,11.4,27.3,26.5
	c0,9-3.3,16.3-8.6,25.7l-23.7,43.7h-20.8L223.4,409.7z"/>
<path class="st0" d="M261.7,284.6c0,15.6-12.6,28.2-28.2,28.2c-15.5,0-28.1-12.6-28.1-28.2c0-15.5,12.6-28.1,28.1-28.1
	C249.1,256.5,261.7,269.1,261.7,284.6z"/>
<g>
	<path class="st0" d="M313.9,241.2h66.3c66.3,0,113.6,44.1,113.6,107.9S446.8,457,380.2,457h-66.3L313.9,241.2L313.9,241.2z
		 M378,418c47.9,0,69.8-28.6,69.8-68.9s-21.9-68.9-69.8-68.9h-19.7V418H378z"/>
</g>
<g>
	<g>
		<path class="st0" d="M531.5,252.7h47l31.4,86.7c5.4,14.9,11.4,39,11.4,39s6.3-24.4,13.3-39l41.6-88.6h4.4l42.2,88.6
			c7,14.6,13.3,39,13.3,39s6-24.1,11.4-39l31.1-86.7h43.2l-78.4,217.7h-4.5l-48.6-104.1c-5.7-12.1-12.1-32.1-12.1-32.1
			s-6.7,20-12.4,32.1l-50.5,104.1h-4.5L531.5,252.7z"/>
	</g>
</g>
<g>
	<path class="st0" d="M1000,682.5H0V0h1000V682.5z M47.6,634.9h904.8V47.6H47.6V634.9z"/>
</g>
</svg>
