<svg xmlns="http://www.w3.org/2000/svg" width="329.2" height="391" viewBox="0 0 329.2 391"><path d="M185.1,139.1c-6.1-20-13.4-39.2-17.6-59-6.2-29.6,24.4-70.7,54.3-75.5,25.8-4,42.4,14.7,31.1,38.1-17.5,36.1-6.5,66.2,14.8,95.3,8,10.9,18,20.5,25.4,31.8,9.1,13.8,16.3,28.8,24.6,43.1,1.5,2.7,3.7,6.5,6.2,7,20.2,4.3,30.1,18.7,35.1,36.7,9,32,7.1,63.9-6.9,94.3-16,35-51.9,49.8-88.5,37.8a20.5,20.5,0,0,0-12-.3c-26.3,8.3-52.6,8-79.3,2.4-7.4-1.5-15.2-.9-22.7-1.7-16.8-1.7-34.1-1.6-50.4-5.8-21.1-5.4-31-20.4-31.1-42.3,0-7.7-2-12.5-8.6-17.1C41.4,311.5,36,293.5,40.9,271.6a26.7,26.7,0,0,0-1.7-16c-6-13.6-5.1-26.6,2.8-38.8a32.8,32.8,0,0,0,5.6-22.2c-3-34.8,20.3-60.4,58.5-67.3,23.5-4.3,45.4,1.5,67.4,7.9C177.5,136.4,181.5,137.9,185.1,139.1Zm-1.5,130.1-2.8.3c.5,3.9.9,7.7,1.5,11.5,1.4,9.4,2.8,18.8,4.4,28.1.7,4.5.6,9.7,3,13.1,11,15.5,11.4,30.8.1,46.2-2.5,3.4-5.5,6.4-10.8,12.5,18.2,0,33.6,1.4,48.6-.3,27.8-3.2,50.1-17.3,66.7-40.3l12.5,9L275,378.6c21.5,2.6,40.1-.6,54.7-16.8,22.6-24.8,28.8-84.4,12-113.5-4.3-7.4-9.6-13.6-20-14.6V259a41.4,41.4,0,0,1-6.7-.4,49.8,49.8,0,0,1-5.5-2.1c2-33.7-9.3-62-32-86.1A246.2,246.2,0,0,1,257.6,146C233.7,113.2,220.8,78.5,241,38.8a21.9,21.9,0,0,0,2-6.6c1.6-8.7-2.2-13.9-10.8-14.2-5.7-.2-12.5-.4-16.9,2.4-26,16.6-42.9,38-32.7,70.6,3.1,10,5.5,20.6,10.8,29.4,13.5,22.6,11.7,43.4-2,65.4-15.5,24.8-13.6,50.3,2.8,74.4,5.6,8.2,12.4,15.7,19.3,24.3l-8.3,8.6Zm-7.8-82.1c3.5-6.6,7.6-14.5,11.8-22.3s2.6-10.7-5.4-12.9c-10.4-2.8-20.5-7-31-9.7-22.9-5.7-45.4-5.1-66.8,5.9-24.3,12.5-32.7,47.7-15.5,64s63.9,24.7,84.9,14.1c6.1-3,12.7-10.5,13.6-16.8S162.3,195.8,157,192c-8.9-6.4-19.7-10.2-30.2-15.4a26.6,26.6,0,0,1,.8-5.1c.5-1.7,1.7-3.2,3.8-7.1ZM56.1,219.4c-12.7,17.1-10.1,32.7,8.8,44.7,25.7,16.3,54.6,19.5,83.9,16.3,18.1-1.9,29.5-23.3,21.9-37.3-2.7-4.9-5.1-7-11.8-4.9C121.8,250.3,88.1,242,56.1,219.4Zm-.8,55.2c-6.5,13.9-3.4,27.3,9.6,37.6,16.3,12.7,35.5,18.4,55.7,21.2,16.4,2.3,30.8-2.2,43.4-12.4s13.4-20.8,6.1-34.1C129.6,301.8,91.9,293,55.3,274.6ZM80.1,336c1,14.1,2.9,25.6,14.8,31.6,21.6,10.9,44.8,13.3,67.6,5.8s30.9-32.6,13.6-45.7C147.3,354.2,114.8,349.1,80.1,336Z" transform="translate(-35.3 -4.1)" fill="#ffca27"/><path d="M183.6,269.2l21.6,23.9,8.3-8.6c-6.9-8.6-13.7-16.1-19.3-24.3-16.4-24.1-18.3-49.6-2.8-74.4,13.7-22,15.5-42.8,2-65.4-5.3-8.8-7.7-19.4-10.8-29.4-10.2-32.6,6.7-54,32.7-70.6,4.4-2.8,11.2-2.6,16.9-2.4,8.6.3,12.4,5.5,10.8,14.2a21.9,21.9,0,0,1-2,6.6c-20.2,39.7-7.3,74.4,16.6,107.2a246.2,246.2,0,0,0,19.9,24.4c22.7,24.1,34,52.4,32,86.1a49.8,49.8,0,0,0,5.5,2.1,41.4,41.4,0,0,0,6.7.4V233.7c10.4,1,15.7,7.2,20,14.6,16.8,29.1,10.6,88.7-12,113.5-14.6,16.2-33.2,19.4-54.7,16.8l31.8-29.3-12.5-9c-16.6,23-38.9,37.1-66.7,40.3-15,1.7-30.4.3-48.6.3,5.3-6.1,8.3-9.1,10.8-12.5,11.3-15.4,10.9-30.7-.1-46.2-2.4-3.4-2.3-8.6-3-13.1-1.6-9.3-3-18.7-4.4-28.1-.6-3.8-1-7.6-1.5-11.5Z" transform="translate(-35.3 -4.1)" fill="#ffca27"/><path d="M175.8,187.1l-44.4-22.7c-2.1,3.9-3.3,5.4-3.8,7.1a26.6,26.6,0,0,0-.8,5.1c10.5,5.2,21.3,9,30.2,15.4,5.3,3.8,11.1,12,10.4,17.4s-7.5,13.8-13.6,16.8c-21,10.6-67.9,2-84.9-14.1s-8.8-51.5,15.5-64c21.4-11,43.9-11.6,66.8-5.9,10.5,2.7,20.6,6.9,31,9.7,8,2.2,8.8,6.4,5.4,12.9S179.3,180.5,175.8,187.1Z" transform="translate(-35.3 -4.1)" fill="#ffca27"/><path d="M56.1,219.4c32,22.6,65.7,30.9,102.8,18.8,6.7-2.1,9.1,0,11.8,4.9,7.6,14-3.8,35.4-21.9,37.3-29.3,3.2-58.2,0-83.9-16.3C46,252.1,43.4,236.5,56.1,219.4Z" transform="translate(-35.3 -4.1)" fill="#ffca27"/><path d="M55.3,274.6c36.6,18.4,74.3,27.2,114.8,12.3,7.3,13.3,5.8,24.5-6.1,34.1s-27,14.7-43.4,12.4c-20.2-2.8-39.4-8.5-55.7-21.2C51.9,301.9,48.8,288.5,55.3,274.6Z" transform="translate(-35.3 -4.1)" fill="#ffca27"/><path d="M80.1,336c34.7,13.1,67.2,18.2,96-8.3,17.3,13.1,8,38.7-13.6,45.7s-46,5.1-67.6-5.8C83,361.6,81.1,350.1,80.1,336Z" transform="translate(-35.3 -4.1)" fill="#ffca27"/><path d="M185.1,139.3c-6.1-20-13.4-39.1-17.6-59-6.2-29.6,24.4-70.7,54.3-75.4,25.8-4.1,42.4,14.7,31.1,38-17.5,36.1-6.5,66.2,14.8,95.3,8,11,18,20.6,25.4,31.9,9.1,13.7,16.3,28.7,24.6,43.1,1.5,2.7,3.7,6.4,6.2,7,20.2,4.3,30.1,18.6,35.1,36.6,9,32.1,7.1,63.9-6.9,94.3-16,35.1-51.9,49.8-88.5,37.8a21.3,21.3,0,0,0-12-.3c-26.3,8.3-52.6,8-79.3,2.4-7.4-1.5-15.2-.9-22.7-1.7-16.8-1.6-34.1-1.6-50.4-5.8-21.1-5.4-31-20.4-31.1-42.3,0-7.7-2-12.5-8.6-17C41.4,311.7,36,293.8,40.9,271.8a26.3,26.3,0,0,0-1.7-15.9c-6-13.7-5.1-26.7,2.8-38.9a32.8,32.8,0,0,0,5.6-22.2c-3-34.8,20.3-60.3,58.5-67.3,23.5-4.3,45.4,1.5,67.4,7.9C177.5,136.6,181.5,138.1,185.1,139.3Zm-1.5,130.1-2.8.4c.5,3.8.9,7.6,1.5,11.4,1.4,9.4,2.8,18.8,4.4,28.2.7,4.4.6,9.6,3,13,11,15.5,11.4,30.9.1,46.2-2.5,3.4-5.5,6.4-10.8,12.5,18.2,0,33.6,1.5,48.6-.3,27.8-3.2,50.1-17.3,66.7-40.3l12.5,9L275,378.8c21.5,2.7,40.1-.6,54.7-16.7,22.6-24.9,28.8-84.5,12-113.6-4.3-7.4-9.6-13.5-20-14.6v25.4a54.3,54.3,0,0,1-6.7-.5,49.8,49.8,0,0,1-5.5-2.1c2-33.6-9.3-62-32-86.1a246.2,246.2,0,0,1-19.9-24.4C233.7,113.4,220.8,78.8,241,39a21.9,21.9,0,0,0,2-6.6c1.6-8.6-2.2-13.9-10.8-14.2-5.7-.2-12.5-.3-16.9,2.5-26,16.5-42.9,37.9-32.7,70.5,3.1,10,5.5,20.6,10.8,29.4,13.5,22.7,11.7,43.4-2,65.4-15.5,24.9-13.6,50.3,2.8,74.4,5.6,8.2,12.4,15.7,19.3,24.3l-8.3,8.7Zm-7.8-82.1L187.6,165c3.4-6.4,2.6-10.7-5.4-12.9-10.4-2.8-20.5-7-31-9.6-22.9-5.8-45.4-5.2-66.8,5.8-24.3,12.5-32.7,47.8-15.5,64s63.9,24.7,84.9,14.1c6.1-3,12.7-10.5,13.6-16.7S162.3,196,157,192.3c-8.9-6.4-19.7-10.3-30.2-15.5a25.7,25.7,0,0,1,.8-5c.5-1.8,1.7-3.3,3.8-7.2ZM56.1,219.7c-12.7,17-10.1,32.6,8.8,44.6,25.7,16.3,54.6,19.5,83.9,16.3,18.1-1.9,29.5-23.3,21.9-37.3-2.7-4.9-5.1-7-11.8-4.8C121.8,250.5,88.1,242.3,56.1,219.7Zm-.8,55.1c-6.5,13.9-3.4,27.3,9.6,37.6,16.3,12.8,35.5,18.4,55.7,21.2,16.4,2.3,30.8-2.2,43.4-12.4s13.4-20.7,6.1-34C129.6,302,91.9,293.2,55.3,274.8Zm24.8,61.4c1,14.1,2.9,25.7,14.8,31.6,21.6,10.9,44.8,13.3,67.6,5.8s30.9-32.6,13.6-45.7C147.3,354.4,114.8,349.3,80.1,336.2Z" transform="translate(-35.3 -4.1)"/></svg>