<?xml version="1.0" encoding="utf-8"?>
<!-- Generator: Adobe Illustrator 21.0.0, SVG Export Plug-In . SVG Version: 6.00 Build 0)  -->
<svg version="1.1" id="Layer_1" xmlns="http://www.w3.org/2000/svg" xmlns:xlink="http://www.w3.org/1999/xlink" x="0px" y="0px"
	 viewBox="0 0 34.4 28" style="enable-background:new 0 0 34.4 28;" xml:space="preserve">
<style type="text/css">
	.st0{fill:#231E1E;}
	.st1{fill:#EEAF57;}
	.st2{fill:#ED1D23;}
	.st3{fill:#241F21;}
</style>
<g>
	<path class="st0" d="M7.7,6c1.3-1.9,3.8-2.7,5.9-1.7c1.3,0.6,2.1,1.7,2.5,3c0.3,1.1,0.3,2.1,0.4,3.2c0,0.3,0,0.6,0,0.9
		c0.1,0,0.2-0.1,0.3-0.1c0.6-0.4,1.2-1,1.7-1.5c0.2-0.2,0.3-0.3,0.6-0.3c0.8-0.1,1.5,0.1,2.2,0.3c0.8,0.3,1.5,0.6,2.2,0.9
		c0.1,0.1,0.3,0.1,0.4,0c0.6-0.3,1.2-0.7,1.8-1.1c0,0,0.1-0.1,0.2-0.1c0.1,0,0,0.1,0,0.2c0.1,2.5-0.8,4.4-2.9,5.8
		c-1.1,0.8-2.3,1.5-3.4,2.2c-1.4,0.9-2.7,1.9-3.7,3.2c-0.6,0.8-1.1,1.7-1.3,2.6c0,0.2,0,0.2,0.2,0.2c1.7,0,3.3,0,5,0
		c0.2,0,0.2-0.1,0.2-0.3c-0.1-0.4-0.4-0.6-0.6-0.8c-0.1-0.1-0.2-0.1-0.2-0.2c0.6-0.2,0.7-0.4,0.5-1c-0.2-0.5-0.5-1-0.8-1.4
		c-0.2-0.2-0.4-0.5-0.6-0.7c-0.1-0.1-0.1-0.1,0-0.2c0.5-0.4,1.1-0.8,1.7-1.1c0.1,0.6,0.1,1.2,0.2,1.7c0.2,1.3,0.6,2.5,1.4,3.7
		c0.2,0.3,0.5,0.5,0.9,0.5c1.5,0,2.9,0,4.4,0c0.2,0,0.3,0.1,0.4,0.2c0.3,0.6,0.7,1.2,1,1.8c0.1,0.1,0.1,0.2,0,0.3
		c-0.3,0.5-0.7,1-1,1.5c-0.1,0.1-0.2,0.2-0.3,0.2c-5.4,0-10.8,0-16.2,0c-1.1,0-2.2,0-3.2,0c-0.1,0-0.2,0-0.4,0
		c0.2-0.3,0.3-0.5,0.4-0.7c0.2-0.4,0.4-0.7,0.7-1.1c0.1-0.1,0.1-0.2,0-0.4c-0.3-0.5-0.6-1-1-1.6C6.7,24,6.8,24,7,24c2,0,4,0,5.9,0
		c0.3,0,0.4-0.1,0.4-0.4c0-0.3-0.2-0.6-0.3-0.9c0,0,0-0.1,0-0.1c0.2,0,0.4,0.1,0.6-0.1c0.2-0.1,0.2-0.3,0.3-0.5
		c0.4-1,0.4-1.9-0.2-2.8c-0.2-0.4-0.4-0.9-0.7-1.3c-0.2-0.3-0.4-0.5-0.7-0.7c-0.1,0-0.1-0.1-0.2-0.1c-0.1,0-0.1,0.1-0.1,0.2
		c0,0.3,0.1,0.5,0.1,0.8c0,0.1,0.1,0.2,0.1,0.3c-0.4-0.1-0.6-0.3-0.9-0.6c-0.5-0.6-0.7-1.4-0.9-2.2c-0.1-0.5-0.1-0.9-0.1-1.4
		c-0.4,1-0.6,2-1.5,2.8c0.1-0.3,0.2-0.6,0.2-0.9c0.2-1.1,0.1-2.2-0.3-3.3c-0.2-0.5-0.3-1-0.4-1.5c-0.1-0.8-0.2-1.5,0.2-2.2
		C8.4,9,8.2,9.1,8,9.4c-0.5,0.6-0.7,1.4-0.9,2.1C7,11.9,7,12.3,6.9,12.7c-0.5-1.7-0.8-3.4,0.2-5.1c0.5-0.8,1.3-1.4,2.1-1.8
		c0.3-0.1,0.6-0.3,0.9-0.4c-0.3-0.1-0.6-0.1-0.9,0C8.7,5.4,8.2,5.7,7.7,6C7.7,6.1,7.7,6.1,7.7,6z M20.8,25.7
		C20.8,25.7,20.8,25.7,20.8,25.7c0.2,0.5,0.3,0.9,0.4,1.4c0,0.1,0,0.3,0.2,0.2c0.2,0,0.1-0.2,0.1-0.3c0-0.6,0-1.3,0-1.9
		c0-0.1-0.1-0.2,0.1-0.3c0.1,0,0-0.1,0-0.1c0-0.1-0.1-0.1-0.1-0.1c-0.1,0-0.3-0.1-0.4,0c-0.1,0.1,0.1,0.2,0.1,0.2c0,0,0,0,0,0
		c0,0.3,0,0.7,0,1c0,0,0,0-0.1,0c-0.1-0.3-0.2-0.7-0.2-1c-0.1-0.3-0.1-0.4-0.4-0.3c-0.2,0-0.1,0.2-0.1,0.2c0.2,0.1,0.1,0.2,0.1,0.3
		c0,0.6,0,1.1,0,1.7c0,0.1,0.1,0.2-0.1,0.3c-0.1,0-0.1,0.2,0,0.2c0.1,0,0.3,0.1,0.4,0c0.1-0.1,0-0.2-0.1-0.3c0,0,0,0,0-0.1
		C20.8,26.6,20.8,26.1,20.8,25.7z M24.4,26.8C24.4,26.8,24.4,26.8,24.4,26.8c0,0.2,0,0.3,0,0.5c0,0.1,0,0.1,0.1,0.1
		c0.1,0,0.2,0,0.2,0c0,0,0-0.1,0-0.2c-0.2-0.1-0.1-0.2-0.1-0.3c0-0.2,0.1-0.5-0.1-0.7c0-0.1-0.1-0.2,0-0.3c0.3-0.8,0-1.2-0.8-1.2
		c0,0,0,0-0.1,0c-0.2,0-0.2,0.2-0.1,0.2c0.2,0.1,0.1,0.2,0.1,0.4c0,0.6,0,1.1,0,1.7c0,0.1,0.1,0.2-0.1,0.3c-0.1,0,0,0.1,0,0.2
		c0,0.1,0.1,0,0.1,0c0.1,0,0.1,0,0.2,0c0.1,0,0.2,0,0.2-0.1c0-0.1,0-0.2-0.1-0.2c-0.1,0,0-0.1,0-0.2c0-0.2,0-0.4,0-0.6
		c0-0.1-0.1-0.2,0.1-0.2c0.2,0,0.3,0.1,0.3,0.2C24.4,26.5,24.4,26.6,24.4,26.8z M19.6,26.8C19.6,26.8,19.6,26.8,19.6,26.8
		c0,0.1,0,0.2,0,0.3c0,0.1-0.1,0.2,0.1,0.2c0.1,0,0.2,0,0.3,0c0.1-0.1,0-0.2-0.1-0.2c0,0,0-0.1,0-0.1c0-0.3,0.1-0.6-0.1-0.9
		c0,0,0-0.1,0-0.1c0.1-0.2,0.1-0.3,0.1-0.5c0-0.7-0.1-0.8-0.8-0.8c-0.3,0-0.3,0-0.1,0.3c0,0,0,0.1,0,0.2c0,0.6,0,1.2,0,1.9
		c0,0.1,0,0.1,0,0.2c-0.1,0-0.1,0.1-0.1,0.2c0,0.1,0.1,0,0.2,0c0.1,0,0.1,0,0.2,0c0.1,0,0.1,0,0.1-0.1c0-0.1,0-0.2,0-0.2
		c-0.2,0-0.1-0.1-0.1-0.2c0-0.2,0-0.4,0-0.6c0-0.1-0.1-0.2,0.1-0.2c0.2,0,0.3,0,0.3,0.2C19.6,26.5,19.6,26.6,19.6,26.8z M14.2,26.8
		C14.2,26.8,14.2,26.8,14.2,26.8c0,0.2,0,0.3,0,0.5c0,0.1,0,0.1,0.1,0.1c0.1,0,0.2,0,0.3,0c0,0,0-0.1,0-0.1
		c-0.2-0.1-0.1-0.4-0.1-0.5c0-0.2,0-0.4-0.1-0.6c0,0,0-0.1,0-0.1c0.1-0.1,0.1-0.3,0.1-0.4c0-0.8,0-0.8-0.8-0.8c-0.1,0-0.2,0-0.2,0.1
		c0,0.1,0,0.1,0.1,0.2c0.1,0,0,0.1,0,0.2c0,0.6,0,1.2,0,1.9c0,0.1,0,0.1,0,0.2c-0.1,0-0.1,0.1-0.1,0.2c0,0.1,0.1,0,0.2,0.1
		c0.1,0,0.1,0,0.2,0c0.1,0,0.1,0,0.1-0.1c0-0.1,0-0.1,0-0.2c-0.1,0-0.1-0.1-0.1-0.2c0-0.2,0-0.4,0-0.6c0-0.1-0.1-0.2,0.1-0.2
		c0.2,0,0.3,0.1,0.3,0.2C14.2,26.5,14.2,26.6,14.2,26.8z M11.9,25.9c0,0.3,0,0.6,0,0.9c0,0.3,0.1,0.5,0.4,0.5c0.3,0,0.5-0.2,0.5-0.5
		c0-0.6,0-1.2,0-1.8c0-0.1,0-0.2,0.1-0.2c0.1,0,0.1-0.1,0.1-0.2c0-0.1-0.1-0.1-0.2-0.1c-0.1,0-0.2,0-0.2,0c-0.2,0-0.2,0.2-0.1,0.2
		c0.1,0.1,0.1,0.2,0.1,0.2c0,0.6,0,1.2,0,1.7c0,0.1,0,0.3-0.2,0.3c-0.2,0-0.2-0.2-0.2-0.3c0-0.6,0-1.2,0-1.8c0-0.1,0-0.2,0.1-0.2
		c0.1,0,0.1-0.1,0-0.2c0,0-0.5-0.1-0.5,0c0,0.1-0.1,0.2,0,0.2c0.2,0,0.1,0.2,0.1,0.3C11.9,25.4,11.9,25.7,11.9,25.9z M11.3,26
		c0-0.3,0-0.6,0-0.9c0-0.3-0.2-0.5-0.4-0.5c-0.3,0-0.5,0.1-0.5,0.4c0,0.6,0,1.2,0,1.9c0,0.3,0.2,0.5,0.5,0.5c0.3,0,0.4-0.2,0.4-0.5
		C11.3,26.6,11.3,26.3,11.3,26z M18.3,26C18.3,26,18.3,26,18.3,26c0-0.3,0-0.6,0-0.9c0-0.3-0.2-0.5-0.4-0.5c-0.3,0-0.5,0.2-0.5,0.5
		c0,0.6,0,1.2,0,1.8c0,0.3,0.2,0.5,0.5,0.5c0.3,0,0.5-0.2,0.5-0.5C18.3,26.6,18.3,26.3,18.3,26z M22.6,27.3c0.6,0,0.6,0,0.5-0.5
		c0,0,0,0,0-0.1c0-0.1-0.1-0.1-0.1-0.1c-0.1,0-0.1,0-0.1,0.1c0,0.1,0,0.1,0,0.2c0,0.1,0,0.2-0.2,0.2c-0.2,0-0.2-0.1-0.2-0.2
		c0-0.2,0-0.4,0-0.6c0-0.2,0-0.3,0.2-0.2c0.1,0,0.2,0,0.2-0.1c0-0.2-0.1-0.1-0.2-0.1c-0.1,0-0.2,0-0.2-0.1c0-0.2,0-0.5,0-0.7
		c0-0.2,0.1-0.1,0.2-0.1c0.1,0,0.2,0,0.2,0.1c0,0.1,0,0.1,0,0.2c0,0.1,0,0.2,0.1,0.2c0.1,0,0.1-0.1,0.1-0.2c0-0.1,0-0.2,0-0.3
		c0-0.2-0.1-0.2-0.2-0.2c-0.2,0-0.4,0-0.6,0c-0.1,0-0.2,0-0.2,0.1c0,0.1,0,0.1,0.1,0.2c0.1,0,0,0.1,0,0.2c0,0.6,0,1.2,0,1.8
		c0,0.1,0,0.2-0.1,0.2c-0.1,0-0.1,0.1,0,0.2c0,0.1,0.1,0.1,0.1,0.1C22.3,27.3,22.4,27.3,22.6,27.3z M25.8,26.6c0,0.1,0,0.2,0,0.3
		c0,0.1-0.1,0.2-0.2,0.2c-0.1,0-0.2-0.1-0.2-0.2c0-0.1,0-0.1,0-0.2c0-0.1,0-0.1-0.1-0.1c-0.1,0-0.1,0-0.1,0.1c0,0.4,0,0.5,0.4,0.6
		c0,0,0,0,0.1,0c0.2,0,0.4-0.1,0.4-0.3c0-0.5,0.1-0.9-0.4-1.2c-0.3-0.2-0.3-0.5-0.2-0.8c0-0.1,0.1-0.1,0.2-0.1
		c0.1,0,0.2,0.1,0.2,0.2c0,0.1,0,0.1,0,0.2c0,0.1,0,0.1,0.1,0.1c0.1,0,0.1,0,0.1-0.1c0-0.2,0-0.3,0-0.5c0-0.1-0.2,0-0.3,0
		c-0.3-0.1-0.5,0.1-0.5,0.3c-0.1,0.4,0,0.9,0.4,1.1C25.8,26.2,25.9,26.4,25.8,26.6z M15.9,26C15.9,26,15.9,26,15.9,26
		c0,0.3,0,0.6,0,1c0,0.3,0.2,0.4,0.4,0.4c0.2,0,0.4-0.1,0.4-0.4c0-0.1,0-0.3,0-0.4c0-0.1,0-0.1-0.1-0.1c-0.1,0-0.1,0.1-0.1,0.2
		c0,0.1,0,0.2,0,0.3c0,0.1,0,0.2-0.2,0.2c-0.1,0-0.2-0.1-0.2-0.2c0-0.6,0-1.2,0-1.8c0-0.1,0-0.2,0.2-0.3c0.2,0,0.2,0.1,0.2,0.3
		c0,0.1,0,0.2,0.1,0.2c0.2,0,0.1-0.2,0.1-0.2c0-0.2,0.1-0.5-0.3-0.5c-0.4,0-0.5,0.1-0.5,0.5C15.9,25.4,15.9,25.7,15.9,26z M9.3,24.6
		c-0.1,0-0.2,0-0.3,0c-0.1,0-0.2-0.1-0.3,0.1c0,0.1,0,0.2,0.1,0.2c0,0,0,0.1,0,0.1c0,0.6,0,1.3,0,1.9c0,0.1,0,0.1,0,0.1
		c-0.1,0-0.1,0.1-0.1,0.2c0,0.1,0.1,0,0.2,0c0.1,0,0.2,0,0.3,0c0.1,0,0.1,0,0.1-0.1c0-0.1,0-0.1-0.1-0.1c-0.2,0-0.1-0.1-0.1-0.2
		c0-0.2,0-0.4,0-0.6c0-0.2,0.1-0.2,0.2-0.2c0.1,0,0.2,0.1,0.2-0.1c0-0.2-0.1-0.1-0.2-0.1c-0.2,0-0.3,0-0.2-0.2c0-0.2,0-0.3,0-0.5
		c0-0.2,0.1-0.3,0.3-0.2c0.2,0,0.1,0.2,0.1,0.3c0,0.1,0,0.2,0.1,0.2c0.1,0,0.1-0.1,0.1-0.2C9.9,24.6,9.9,24.6,9.3,24.6z"/>
	<path class="st1" d="M17.7,3.5c-0.1-0.6,0.4-1.1,0.8-1.5c0.4-0.4,0.8-0.7,1.3-1C20,1,20,0.9,20.1,0.9c0.1,0,0.1,0.1,0.1,0.2
		c0,1.3,0.6,2.3,1.3,3.4c0.6,0.8,1.5,1.4,2.4,1.9c0.8,0.5,1.5,1.1,1.8,2.1c0.1,0.2,0.1,0.5,0,0.7c0,0.2-0.2,0.3-0.4,0.4
		c-0.5,0.4-1,0.7-1.6,0.9c-0.1,0.1-0.2,0-0.4,0c-0.7-0.3-1.3-0.6-2-0.8c-0.9-0.3-1.7-0.5-2.7-0.3c-0.1,0-0.2,0-0.2-0.1
		c0-0.9-0.2-1.8-0.4-2.8C18,5.5,17.8,4.6,17.7,3.5z"/>
	<path class="st2" d="M22.4,1.1c-0.2,0.2-0.5,0.4-0.8,0.7c0.3,0.1,0.5,0.1,0.8,0.2c0.6,0.2,1.1,0.6,1.3,1.2c0.1,0.6-0.1,1-0.7,1.1
		c-0.6,0.1-1.1-0.2-1.5-0.7c-0.6-0.8-0.9-1.7-1-2.7c0-0.2,0-0.3,0.2-0.3c0.2-0.1,0.5-0.3,0.8-0.5c0,0.3,0,0.6-0.1,0.9
		c0,0.1,0,0.2,0.2,0.1C21.8,1.2,22.1,1.1,22.4,1.1C22.4,1.1,22.4,1.1,22.4,1.1z"/>
	<path class="st2" d="M14.6,0.3c0.1,0,0.2,0,0.3,0.1c0.4,0.2,0.8,0.4,1.2,0.5c0.3,0.1,0.5,0,0.8-0.2c0.1-0.1,0.3-0.2,0.4-0.3
		c0.4-0.4,0.9-0.5,1.4-0.3c0.4,0.1,0.8,0.2,1.1,0.3c0.1,0,0.1,0,0.1,0.1c0,0.1-0.1,0.1-0.1,0.1c-0.7,0.2-1.3,0.7-1.9,1.2
		c-0.9,0.7-1.8,0.6-2.5-0.3C15,1.2,14.8,0.8,14.6,0.3z"/>
	<path class="st3" d="M7.7,6.1C7.6,6.2,7.6,6.2,7.7,6.1C7.6,6.1,7.6,6.1,7.7,6.1L7.7,6.1z"/>
	<path class="st3" d="M7.6,6.1C7.6,6.1,7.7,6.1,7.6,6.1C7.7,6.1,7.7,6.1,7.6,6.1C7.7,6.1,7.7,6.1,7.6,6.1C7.7,6.1,7.6,6.1,7.6,6.1z"
		/>
	<path class="st3" d="M24,25.4c0-0.1,0-0.2,0-0.3c0-0.1,0-0.2,0.1-0.2c0.1,0,0.2,0,0.2,0.2c0,0.2,0,0.5,0,0.7c0,0.1-0.1,0.1-0.2,0.2
		c-0.1,0-0.1-0.1-0.1-0.2C23.9,25.6,24,25.5,24,25.4z"/>
	<path class="st3" d="M19.2,25.4c0-0.1,0-0.2,0-0.3c0-0.1-0.1-0.2,0.1-0.2c0.1,0,0.3,0,0.3,0.2c0,0.2,0,0.5,0,0.7
		c0,0.2-0.1,0.2-0.3,0.2c-0.2,0-0.1-0.1-0.1-0.2C19.2,25.6,19.2,25.5,19.2,25.4z"/>
	<path class="st3" d="M13.8,25.4c0-0.1,0-0.2,0-0.3c0-0.1,0-0.2,0.1-0.2c0.1,0,0.2,0,0.3,0.2c0,0.2,0,0.4,0,0.7
		c0,0.2-0.1,0.2-0.3,0.2c-0.2,0-0.1-0.1-0.1-0.2C13.8,25.6,13.8,25.5,13.8,25.4z"/>
	<path class="st3" d="M11,26c0,0.3,0,0.6,0,0.8c0,0.1,0,0.3-0.2,0.3c-0.2,0-0.2-0.1-0.2-0.3c0-0.6,0-1.2,0-1.8
		c0-0.1,0.1-0.3,0.2-0.3c0.2,0,0.2,0.1,0.2,0.3C11,25.4,11,25.7,11,26z"/>
	<path class="st3" d="M18.1,26c0,0.3,0,0.6,0,0.8c0,0.1,0,0.3-0.2,0.3c-0.2,0-0.2-0.1-0.2-0.3c0-0.6,0-1.2,0-1.8
		c0-0.1,0-0.3,0.2-0.3c0.2,0,0.2,0.1,0.2,0.3C18,25.4,18,25.7,18.1,26C18,26,18,26,18.1,26z"/>
</g>
</svg>
