<?xml version="1.0" encoding="utf-8"?>
<!-- Generator: Adobe Illustrator 16.0.5, SVG Export Plug-In . SVG Version: 6.00 Build 0)  -->
<!DOCTYPE svg PUBLIC "-//W3C//DTD SVG 1.1//EN" "http://www.w3.org/Graphics/SVG/1.1/DTD/svg11.dtd">
<svg version="1.1" id="Layer_1" xmlns="http://www.w3.org/2000/svg" xmlns:xlink="http://www.w3.org/1999/xlink" x="0px" y="0px"
	 width="200px" height="200px" viewBox="0 0 200 200" enable-background="new 0 0 200 200" xml:space="preserve">
<path d="M-629.944,342.962c-49.135,0-88.966,39.831-88.966,88.966s39.831,88.965,88.966,88.965c49.134,0,88.966-39.83,88.966-88.965
	S-580.81,342.962-629.944,342.962z M-629.944,515.375c-46.087,0-83.448-37.359-83.448-83.447s37.361-83.449,83.448-83.449
	s83.448,37.361,83.448,83.449S-583.857,515.375-629.944,515.375z"/>
<text transform="matrix(1 0 0 1 -695.0454 435.0645)" font-family="'WalkwayExpandBold'" font-size="87">d</text>
<text transform="matrix(1 0 0 1 -635.1147 471.4434)" font-family="'WalkwayExpandBold'" font-size="87">p</text>
<text transform="matrix(1 0 0 1 -741.2207 -89.3496)" font-family="'WalkwayObliqueBold'" font-size="129.282">d</text>
<text transform="matrix(1 0 0 1 -674.9482 -61.0459)" font-family="'WalkwayObliqueBold'" font-size="129.282">p</text>
<path d="M-665.47-197.593c-49.135,0-88.966,39.831-88.966,88.965c0,49.135,39.831,88.966,88.966,88.966
	c49.134,0,88.966-39.831,88.966-88.966C-576.504-157.762-616.336-197.593-665.47-197.593z M-665.47-25.179
	c-46.087,0-83.448-37.36-83.448-83.448c0-46.087,37.361-83.448,83.448-83.448s83.448,37.361,83.448,83.448
	C-582.021-62.54-619.383-25.179-665.47-25.179z"/>
<path fill="#FDFDFE" d="M549.967,76.946c0,49.154-39.736,88.966-88.891,88.966s-89.001-39.847-89.001-89.001
	s39.771-88.93,88.925-88.93C510.154-12.019,549.967,27.792,549.967,76.946z"/>
<g>
	<text transform="matrix(1 0 0 1 385.25 96.2246)" font-family="'WalkwayObliqueBold'" font-size="129.282">d</text>
</g>
<text transform="matrix(1 0 0 1 451.5225 124.5283)" font-family="'WalkwayObliqueBold'" font-size="129.282">p</text>
<line fill="none" x1="452.436" y1="146.24" x2="459.029" y2="146.24"/>
<polygon points="454.773,165.697 459.141,145.658 453.029,143.351 448.134,164.988 448.849,165.089 452.582,165.519 "/>
<polygon points="468.197,-11.732 463.576,9.193 469.871,10.666 474.767,-10.972 472.826,-11.275 470.389,-11.557 "/>
<g>
	<path d="M446.669,159.169C446.848,159.195,446.463,159.143,446.669,159.169c-39.546-6.555-69.116-40.817-69.116-82.223
		c0-46.087,37.361-83.448,83.447-83.448c1.035,0,2.061,0.041,3.086,0.078c-0.115-0.011-0.196-0.019-0.196-0.019l0.698-5.492
		c0.053-0.001,0.119,0.001,0.174,0c-1.248-0.052-2.5-0.084-3.762-0.084c-49.135,0-88.965,39.832-88.965,88.965
		c0,43.548,31.29,79.783,72.613,87.461L446.669,159.169z"/>
	<path d="M447.473,164.89c-0.011-0.001-0.022-0.003-0.033-0.005C447.451,164.887,447.461,164.889,447.473,164.89z"/>
	<path d="M449.996,165.234c-0.229-0.028-0.453-0.057-0.675-0.086C449.546,165.178,449.771,165.207,449.996,165.234z"/>
	<path d="M479.026-10.19l-2.113,5.222c38.474,7.431,67.536,41.271,67.536,81.915c0,46.088-37.361,83.448-83.449,83.448
		c-0.431,0-0.855-0.026-1.284-0.032h0.003l-0.577,5.506c-0.157,0.009-0.349,0.008-0.525,0.012c0.792,0.021,1.587,0.032,2.384,0.032
		c49.135,0,88.967-39.831,88.967-88.966C549.967,33.988,519.518-1.857,479.026-10.19z"/>
</g>
<path fill="#FFFFFF" d="M-835.82,123.479c-49.135,0-88.966,39.832-88.966,88.966c0,49.135,39.831,88.966,88.966,88.966
	c49.134,0,88.966-39.831,88.966-88.966C-746.854,163.311-786.687,123.479-835.82,123.479z M-835.82,295.893
	c-46.087,0-83.448-37.36-83.448-83.448c0-46.087,37.361-83.448,83.448-83.448s83.448,37.361,83.448,83.448
	C-752.372,258.532-789.733,295.893-835.82,295.893z"/>
<path fill-rule="evenodd" clip-rule="evenodd" fill="#EBEBEB" d="M149.926,18.014c-1.196,4.351-2.511,9.752-4.199,15.037
	c-0.95,2.978-0.465,4.69,2.093,6.844c4.597,3.874,8.634,8.427,12.73,12.864c1.287,1.399,2.221,1.952,4.188,1.327
	c4.958-1.574,10.028-2.813,15.049-4.177c4.673-1.266,6.778-0.225,8.641,4.245c2.098,5.03,4.223,10.048,6.289,15.09
	c1.652,4.032,0.829,6.46-2.94,8.639c-4.72,2.727-9.544,5.282-14.158,8.173c-0.963,0.603-1.684,2.328-1.724,3.561
	c-0.196,6.605-0.218,13.225-0.099,19.837c0.017,1.094,0.741,2.635,1.624,3.188c4.617,2.888,9.383,5.523,14.107,8.237
	c4.013,2.309,4.879,4.637,3.156,8.843c-2.063,5.044-4.164,10.072-6.282,15.093c-1.876,4.445-3.988,5.434-8.675,4.159
	c-5.027-1.374-10.027-2.853-15.099-4.004c-1.152-0.26-2.935,0.245-3.798,1.062c-4.896,4.638-9.668,9.409-14.299,14.308
	c-0.81,0.859-1.281,2.651-1.019,3.809c1.154,5.074,2.644,10.074,3.999,15.104c1.264,4.661,0.259,6.745-4.224,8.644
	c-4.904,2.076-9.821,4.134-14.748,6.166c-4.565,1.887-6.778,1.032-9.293-3.434c-2.561-4.545-5.071-9.125-7.827-13.549
	c-0.562-0.901-2.108-1.65-3.218-1.679c-6.856-0.178-13.715-0.199-20.572-0.083c-1.023,0.017-2.462,0.732-2.979,1.575
	c-2.785,4.541-5.351,9.221-7.975,13.864c-2.474,4.368-4.734,5.179-9.373,3.259c-4.924-2.035-9.834-4.104-14.75-6.155
	c-4.226-1.761-5.35-3.953-4.172-8.391c1.338-5.033,2.625-10.084,4.177-15.049c0.633-2.024,0.213-3.07-1.343-4.515
	c-4.767-4.419-9.339-9.064-13.811-13.791c-1.317-1.387-2.281-1.881-4.218-1.268c-4.85,1.525-9.807,2.71-14.715,4.058
	c-4.934,1.353-7.021,0.39-8.938-4.192c-2.103-5.027-4.233-10.04-6.286-15.087c-1.652-4.061-0.84-6.41,2.982-8.613
	c4.313-2.484,8.627-4.979,13.028-7.304c2.274-1.196,2.922-2.709,2.835-5.317c-0.215-6.481,0.139-12.981,0.055-19.47
	c-0.013-0.994-0.893-2.354-1.771-2.893c-4.442-2.727-9.003-5.262-13.544-7.823c-4.568-2.579-5.336-4.72-3.313-9.615
	c1.993-4.815,4.007-9.624,6.019-14.43c1.859-4.442,3.991-5.506,8.647-4.252c5.14,1.383,10.244,2.919,15.422,4.133
	c1.042,0.246,2.68-0.31,3.485-1.081c4.874-4.659,9.653-9.421,14.29-14.315c0.823-0.87,1.376-2.644,1.118-3.788
	c-1.15-5.075-2.647-10.07-4.007-15.098c-1.31-4.845-0.277-6.907,4.41-8.854c4.922-2.045,9.835-4.12,14.77-6.136
	c4.219-1.721,6.594-0.876,8.871,3.107c2.645,4.631,5.314,9.251,7.868,13.933c0.851,1.558,1.749,1.916,3.624,1.841
	c6.618-0.261,13.259-0.244,19.877,0.007c1.841,0.07,2.776-0.217,3.642-1.808c2.54-4.688,5.217-9.307,7.875-13.934
	c2.337-4.073,4.572-4.877,8.835-3.147c5.271,2.135,10.524,4.308,15.765,6.51C149.065,12.556,149.935,13.887,149.926,18.014z
	 M99.98,30.818c-37.908,0-68.639,30.731-68.639,68.639c0,37.909,30.731,68.639,68.639,68.639c37.909,0,68.638-30.729,68.638-68.639
	C168.618,61.549,137.889,30.818,99.98,30.818z"/>
</svg>
