<?xml version="1.0" encoding="utf-8"?>
<!-- Generator: Adobe Illustrator 19.2.1, SVG Export Plug-In . SVG Version: 6.00 Build 0)  -->
<svg version="1.1" xmlns="http://www.w3.org/2000/svg" xmlns:xlink="http://www.w3.org/1999/xlink" x="0px" y="0px"
	 viewBox="0 0 209.091 210.337" enable-background="new 0 0 209.091 210.337" xml:space="preserve">
<g id="Layer_1" display="none">
	<path display="inline" d="M-624.974,349.295c-49.135,0-88.966,39.831-88.966,88.966c0,49.135,39.831,88.965,88.966,88.965
		c49.134,0,88.966-39.83,88.966-88.965C-536.008,389.126-575.84,349.295-624.974,349.295z M-624.974,521.708
		c-46.087,0-83.448-37.359-83.448-83.447s37.361-83.449,83.448-83.449c46.087,0,83.448,37.361,83.448,83.449
		S-578.887,521.708-624.974,521.708z"/>
	<text transform="matrix(1 0 0 1 -690.0756 441.3983)" display="inline" font-family="'WalkwayExpandBold'" font-size="87px">d</text>
	<text transform="matrix(1 0 0 1 -630.1449 477.7772)" display="inline" font-family="'WalkwayExpandBold'" font-size="87px">p</text>
	<text transform="matrix(1 0 0 1 -736.2509 -83.0163)" display="inline" font-family="'WalkwayObliqueBold'" font-size="129.282px">d</text>
	<text transform="matrix(1 0 0 1 -669.9784 -54.7126)" display="inline" font-family="'WalkwayObliqueBold'" font-size="129.282px">p</text>
	<path display="inline" d="M-660.5-191.259c-49.135,0-88.966,39.831-88.966,88.965c0,49.135,39.831,88.966,88.966,88.966
		c49.134,0,88.966-39.831,88.966-88.966C-571.534-151.428-611.366-191.259-660.5-191.259z M-660.5-18.846
		c-46.087,0-83.448-37.36-83.448-83.448c0-46.087,37.361-83.448,83.448-83.448c46.087,0,83.448,37.361,83.448,83.448
		C-577.052-56.206-614.413-18.846-660.5-18.846z"/>
	<path display="inline" fill="#FDFDFE" d="M554.937,83.28c0,49.154-39.736,88.966-88.891,88.966s-89.001-39.847-89.001-89.001
		s39.772-88.93,88.925-88.93C515.124-5.686,554.937,34.125,554.937,83.28z"/>
	<g display="inline">
		<text transform="matrix(1 0 0 1 390.2198 102.5579)" font-family="'WalkwayObliqueBold'" font-size="129.282px">d</text>
	</g>
	<text transform="matrix(1 0 0 1 456.4923 130.8616)" display="inline" font-family="'WalkwayObliqueBold'" font-size="129.282px">p</text>
	<line display="inline" fill="none" x1="457.405" y1="152.574" x2="463.999" y2="152.574"/>
	<polygon display="inline" points="459.743,172.031 464.11,151.992 457.999,149.684 453.104,171.322 453.818,171.422 
		457.552,171.852 	"/>
	<polygon display="inline" points="473.167,-5.399 468.546,15.527 474.841,16.999 479.736,-4.638 477.796,-4.942 475.359,-5.223 	
		"/>
	<g display="inline">
		<path d="M451.639,165.502C451.818,165.529,451.433,165.476,451.639,165.502c-39.546-6.555-69.116-40.817-69.116-82.223
			c0-46.087,37.361-83.448,83.447-83.448c1.035,0,2.061,0.041,3.086,0.078c-0.115-0.011-0.196-0.019-0.196-0.019l0.698-5.492
			c0.053-0.001,0.119,0.001,0.174-0.001c-1.248-0.052-2.5-0.084-3.762-0.084c-49.135,0-88.965,39.831-88.965,88.965
			c0,43.548,31.29,79.783,72.613,87.461L451.639,165.502z"/>
		<path d="M452.443,171.223c-0.011-0.001-0.023-0.003-0.033-0.005C452.421,171.22,452.431,171.222,452.443,171.223z"/>
		<path d="M454.966,171.568c-0.229-0.028-0.453-0.057-0.675-0.086C454.516,171.511,454.741,171.54,454.966,171.568z"/>
		<path d="M483.996-3.857l-2.113,5.222c38.474,7.431,67.536,41.271,67.536,81.915c0,46.088-37.361,83.448-83.449,83.448
			c-0.431,0-0.855-0.026-1.284-0.032h0.003l-0.577,5.506c-0.157,0.009-0.349,0.008-0.525,0.012c0.792,0.021,1.587,0.032,2.384,0.032
			c49.135,0,88.967-39.831,88.967-88.966C554.937,40.322,524.487,4.476,483.996-3.857z"/>
	</g>
	<path display="inline" fill="#FFFFFF" d="M-830.85,129.812c-49.135,0-88.966,39.832-88.966,88.966
		c0,49.135,39.831,88.966,88.966,88.966c49.134,0,88.966-39.831,88.966-88.966C-741.885,169.644-781.717,129.812-830.85,129.812z
		 M-830.85,302.226c-46.087,0-83.448-37.36-83.448-83.448c0-46.087,37.361-83.448,83.448-83.448
		c46.087,0,83.448,37.361,83.448,83.448C-747.402,264.866-784.764,302.226-830.85,302.226z"/>
	<path display="inline" fill-rule="evenodd" clip-rule="evenodd" fill="#EBEBEB" d="M359.46,339.84
		c-1.196,4.352-2.511,9.753-4.199,15.037c-0.95,2.979-0.465,4.691,2.093,6.845c4.597,3.874,8.634,8.427,12.73,12.864
		c1.287,1.398,2.221,1.951,4.188,1.327c4.958-1.573,10.028-2.813,15.049-4.177c4.673-1.266,6.778-0.225,8.641,4.245
		c2.098,5.03,4.223,10.048,6.289,15.09c1.652,4.032,0.829,6.46-2.94,8.639c-4.72,2.728-9.544,5.282-14.158,8.173
		c-0.963,0.603-1.684,2.328-1.724,3.561c-0.196,6.605-0.218,13.225-0.099,19.838c0.017,1.094,0.741,2.635,1.624,3.188
		c4.617,2.888,9.383,5.523,14.107,8.237c4.013,2.309,4.879,4.637,3.156,8.843c-2.064,5.044-4.164,10.072-6.282,15.093
		c-1.876,4.445-3.988,5.434-8.675,4.159c-5.027-1.374-10.027-2.853-15.099-4.004c-1.152-0.26-2.935,0.245-3.798,1.061
		c-4.896,4.638-9.668,9.409-14.299,14.308c-0.809,0.859-1.281,2.651-1.018,3.809c1.154,5.074,2.643,10.074,3.999,15.104
		c1.264,4.661,0.259,6.745-4.224,8.643c-4.904,2.076-9.821,4.134-14.748,6.166c-4.565,1.887-6.778,1.032-9.293-3.434
		c-2.561-4.545-5.071-9.125-7.827-13.549c-0.561-0.901-2.108-1.65-3.218-1.679c-6.856-0.178-13.715-0.199-20.572-0.083
		c-1.023,0.017-2.461,0.732-2.979,1.575c-2.785,4.541-5.35,9.221-7.975,13.864c-2.475,4.368-4.734,5.179-9.373,3.259
		c-4.924-2.035-9.834-4.105-14.75-6.155c-4.227-1.761-5.351-3.953-4.173-8.391c1.339-5.033,2.625-10.084,4.177-15.049
		c0.633-2.024,0.213-3.07-1.343-4.515c-4.767-4.419-9.339-9.065-13.811-13.791c-1.317-1.387-2.28-1.881-4.218-1.268
		c-4.85,1.525-9.807,2.71-14.716,4.058c-4.935,1.353-7.021,0.39-8.938-4.192c-2.103-5.027-4.233-10.04-6.286-15.087
		c-1.652-4.06-0.84-6.41,2.982-8.613c4.312-2.484,8.627-4.979,13.027-7.304c2.275-1.196,2.922-2.709,2.836-5.317
		c-0.215-6.481,0.139-12.981,0.055-19.47c-0.013-0.994-0.893-2.354-1.771-2.893c-4.441-2.727-9.002-5.262-13.544-7.822
		c-4.568-2.579-5.336-4.721-3.313-9.615c1.993-4.816,4.008-9.625,6.02-14.431c1.859-4.442,3.99-5.506,8.646-4.253
		c5.141,1.384,10.244,2.92,15.423,4.133c1.042,0.246,2.681-0.31,3.485-1.08c4.874-4.659,9.652-9.422,14.29-14.315
		c0.823-0.87,1.376-2.645,1.118-3.789c-1.15-5.074-2.648-10.069-4.008-15.098c-1.311-4.844-0.277-6.906,4.41-8.854
		c4.922-2.045,9.834-4.119,14.77-6.136c4.219-1.722,6.594-0.876,8.871,3.106c2.645,4.632,5.313,9.252,7.867,13.934
		c0.852,1.557,1.75,1.916,3.624,1.841c6.618-0.261,13.259-0.243,19.877,0.007c1.841,0.07,2.776-0.217,3.642-1.808
		c2.54-4.688,5.217-9.308,7.875-13.934c2.337-4.073,4.572-4.878,8.835-3.147c5.271,2.136,10.524,4.309,15.765,6.51
		C358.6,334.383,359.469,335.713,359.46,339.84z M309.515,352.645c-37.908,0-68.64,30.73-68.64,68.639
		c0,37.909,30.731,68.639,68.64,68.639s68.638-30.73,68.638-68.639C378.152,383.375,347.423,352.645,309.515,352.645z"/>
	
		<rect x="-381.758" y="-211.183" display="inline" fill-rule="evenodd" clip-rule="evenodd" fill="#161616" width="18.654" height="72.677"/>
	<path display="inline" fill-rule="evenodd" clip-rule="evenodd" fill="#161616" d="M-280.885-92.97
		c-4.725-2.714-9.49-5.35-14.108-8.237c-0.883-0.553-1.607-2.094-1.624-3.188c-0.119-6.612-0.098-13.232,0.099-19.837
		c0.04-1.233,0.761-2.958,1.724-3.561c4.614-2.891,9.439-5.446,14.158-8.173c3.77-2.178,4.593-4.607,2.94-8.639
		c-2.066-5.042-4.191-10.06-6.289-15.09c-1.862-4.47-3.968-5.511-8.641-4.245c-5.02,1.364-10.091,2.603-15.049,4.177
		c-1.967,0.624-2.9,0.072-4.188-1.327c-4.097-4.437-8.134-8.991-12.73-12.864c-2.243-1.889-14.579-12.248-30.855-15.385v20.467
		c23.214,7.229,40.067,28.886,40.067,54.48c0,31.507-25.542,57.05-57.05,57.05s-57.051-25.543-57.051-57.05
		c0-25.594,16.853-47.251,40.067-54.48v-20.64c-14.843,3.037-30.907,15.662-30.907,15.662c-4.637,4.894-8.125,8.302-12.999,12.961
		c-0.805,0.77-2.443,1.327-3.485,1.081c-5.179-1.214-10.282-2.749-15.422-4.133c-4.656-1.253-6.788-0.189-8.647,4.252
		c-2.012,4.806-4.026,9.615-6.019,14.43c-2.023,4.895-1.255,7.037,3.313,9.615c4.542,2.562,9.102,5.097,13.544,7.823
		c0.878,0.539,1.758,1.899,1.771,2.893c0.083,6.488-0.27,12.988-0.055,19.47c0.087,2.608-0.56,4.121-2.835,5.317
		c-4.401,2.324-8.715,4.819-13.028,7.304c-3.822,2.203-4.634,4.553-2.982,8.613c2.053,5.047,4.183,10.06,6.286,15.087
		c1.917,4.582,4.003,5.545,8.938,4.192c4.909-1.348,9.866-2.532,14.715-4.058c1.938-0.613,2.901-0.119,4.218,1.268
		c4.471,4.727,9.043,9.372,13.811,13.791c1.556,1.444,1.976,2.49,1.343,4.515c-1.552,4.965-2.838,10.016-4.177,15.049
		c-1.178,4.437-0.054,6.63,4.172,8.391c4.916,2.051,9.827,4.12,14.751,6.155c4.638,1.92,6.899,1.109,9.373-3.259
		c2.625-4.643,5.19-9.323,7.975-13.864c0.517-0.843,1.956-1.559,2.979-1.575c6.856-0.116,13.715-0.095,20.572,0.083
		c1.109,0.028,2.656,0.777,3.218,1.679c2.756,4.424,5.267,9.004,7.827,13.549c2.515,4.466,4.728,5.32,9.293,3.434
		c4.927-2.032,9.844-4.09,14.748-6.166c4.482-1.899,5.487-3.982,4.224-8.644c-1.355-5.03-2.845-10.03-3.999-15.104
		c-0.263-1.157,0.209-2.949,1.019-3.809c4.631-4.898,9.403-9.67,14.299-14.308c0.863-0.816,2.645-1.321,3.798-1.062
		c5.071,1.151,10.071,2.63,15.099,4.004c4.686,1.274,6.799,0.286,8.675-4.159c2.118-5.021,4.219-10.049,6.282-15.093
		C-276.006-88.333-276.872-90.661-280.885-92.97z"/>
</g>
<g id="Layer_2" display="none">
	<g display="inline">
		<path fill-rule="evenodd" clip-rule="evenodd" fill="#262626" d="M113.873,81.677c0,2.75-2.25,5-5,5h-8.654c-2.75,0-5-2.25-5-5V14
			c0-2.75,2.25-5,5-5h8.654c2.75,0,5,2.25,5,5V81.677z"/>
	</g>
	<g display="inline">
		<path fill-rule="evenodd" clip-rule="evenodd" fill="#262626" d="M87.563,30.671c0.866,0,1.575,0.697,1.575,1.548v8.524h-1.646
			L87.563,30.671z"/>
		<path fill-rule="evenodd" clip-rule="evenodd" fill="#262626" d="M196.091,127.213c-4.725-2.714-9.49-5.35-14.107-8.237
			c-0.883-0.553-1.607-2.094-1.624-3.188c-0.119-6.612-0.098-13.232,0.099-19.837c0.04-1.233,0.761-2.958,1.724-3.561
			c4.614-2.891,9.439-5.446,14.158-8.173c3.77-2.178,4.593-4.607,2.94-8.639c-2.066-5.042-4.191-10.06-6.289-15.09
			c-1.862-4.47-3.968-5.511-8.641-4.245c-5.02,1.364-10.091,2.603-15.049,4.177c-1.967,0.625-2.9,0.072-4.188-1.327
			c-4.097-4.437-8.134-8.991-12.73-12.864c-2.243-1.889-14.579-12.248-30.855-15.385v20.467
			c23.214,7.229,40.067,28.886,40.067,54.48c0,31.507-25.542,57.05-57.05,57.05s-57.051-25.543-57.051-57.05
			c0-25.594,1.036-51.156-3.838-46.497c-0.805,0.771-2.443,1.327-3.485,1.081c-5.179-1.214-10.282-2.749-15.422-4.133
			c-4.656-1.253-6.788-0.19-8.647,4.252c-2.012,4.806-4.026,9.615-6.019,14.43c-2.023,4.895-1.255,7.037,3.313,9.615
			c4.542,2.562,9.102,5.097,13.544,7.823c0.878,0.539,1.758,1.899,1.771,2.893c0.083,6.488-0.27,12.988-0.055,19.47
			c0.087,2.608-0.56,4.121-2.835,5.317c-4.401,2.324-8.715,4.819-13.028,7.304c-3.822,2.203-4.634,4.553-2.982,8.613
			c2.053,5.047,4.183,10.06,6.286,15.087c1.916,4.582,4.003,5.545,8.938,4.192c4.909-1.348,9.866-2.532,14.715-4.058
			c1.938-0.613,2.901-0.119,4.218,1.268c4.471,4.727,9.043,9.372,13.811,13.791c1.556,1.444,1.976,2.49,1.343,4.515
			c-1.552,4.965-2.838,10.016-4.177,15.049c-1.178,4.438-0.054,6.63,4.172,8.391c4.916,2.051,9.827,4.12,14.751,6.155
			c4.638,1.92,6.899,1.109,9.373-3.259c2.624-4.643,5.19-9.323,7.975-13.864c0.517-0.843,1.956-1.559,2.979-1.575
			c6.856-0.116,13.715-0.095,20.572,0.083c1.109,0.028,2.656,0.777,3.218,1.679c2.756,4.424,5.267,9.004,7.827,13.549
			c2.515,4.466,4.727,5.32,9.293,3.434c4.927-2.032,9.844-4.09,14.748-6.166c4.482-1.898,5.487-3.982,4.224-8.644
			c-1.355-5.03-2.845-10.03-3.999-15.104c-0.263-1.157,0.209-2.949,1.019-3.809c4.631-4.898,9.403-9.67,14.299-14.308
			c0.863-0.816,2.646-1.321,3.798-1.061c5.071,1.151,10.071,2.63,15.099,4.004c4.687,1.274,6.799,0.286,8.675-4.159
			c2.118-5.02,4.219-10.049,6.282-15.093C200.97,131.85,200.104,129.522,196.091,127.213z"/>
		<path fill-rule="evenodd" clip-rule="evenodd" fill="#262626" d="M27.107,118.804c0.883-0.553,1.607-2.094,1.624-3.188
			c0.073-4.068,0.093-8.138,0.052-12.206c-0.026-2.545-0.075-5.089-0.151-7.632c-0.04-1.233-0.761-2.959-1.724-3.561
			c-4.614-2.891-9.438-5.446-14.158-8.173c-3.77-2.178-4.593-4.607-2.94-8.639c2.066-5.041,4.191-10.06,6.289-15.09
			c1.862-4.47,3.968-5.511,8.641-4.245c5.021,1.364,10.091,2.603,15.049,4.177c1.967,0.625,2.9,0.072,4.188-1.327
			c4.097-4.437,8.134-8.991,12.73-12.864c2.122-1.787,13.276-11.154,28.254-14.816c0.855-0.209,1.722-0.4,2.601-0.569v1.486v18.981
			c-22.23,6.923-38.627,27.076-39.977,51.247c-0.06,1.07-0.09,2.148-0.09,3.233C47.495,137.126,22.49,121.691,27.107,118.804z"/>
		<path fill-rule="evenodd" clip-rule="evenodd" fill="#262626" d="M87.563,51.176H86.38c-0.866,0-1.575-0.723-1.575-1.607v-8.845
			h4.333v8.845C89.138,50.453,88.429,51.176,87.563,51.176z"/>
		<path fill-rule="evenodd" clip-rule="evenodd" fill="#262626" d="M121.542,30.844c-0.866,0-1.575,0.697-1.575,1.548v8.524h1.646
			L121.542,30.844z"/>
		<path fill-rule="evenodd" clip-rule="evenodd" fill="#262626" d="M121.542,51.348h1.183c0.866,0,1.575-0.723,1.575-1.607v-8.845
			h-4.333v8.845C119.967,50.625,120.676,51.348,121.542,51.348z"/>
	</g>
	<g display="inline">
		<path fill-rule="evenodd" clip-rule="evenodd" fill="#161616" d="M-153.519,92.598c0,2.75-2.25,5-5,5h-8.654c-2.75,0-5-2.25-5-5
			V24.922c0-2.75,2.25-5,5-5h8.654c2.75,0,5,2.25,5,5V92.598z"/>
	</g>
	<g display="inline">
		<path fill-rule="evenodd" clip-rule="evenodd" fill="#161616" d="M-179.829,41.593c0.866,0,1.575,0.697,1.575,1.548v8.524h-1.646
			L-179.829,41.593z"/>
		<path fill-rule="evenodd" clip-rule="evenodd" fill="#161616" d="M-71.3,138.135c-4.725-2.714-9.49-5.35-14.107-8.237
			c-0.883-0.553-1.607-2.094-1.624-3.188c-0.119-6.612-0.098-13.232,0.099-19.837c0.04-1.233,0.761-2.959,1.724-3.561
			c4.614-2.891,9.438-5.446,14.158-8.173c3.77-2.178,4.593-4.607,2.94-8.639c-2.066-5.041-4.191-10.06-6.289-15.09
			c-1.862-4.47-3.968-5.511-8.641-4.245c-5.021,1.364-10.091,2.603-15.049,4.177c-1.967,0.624-2.9,0.072-4.188-1.327
			c-4.097-4.437-8.134-8.991-12.73-12.864c-2.243-1.889-14.579-12.248-30.855-15.385v20.467
			c23.214,7.229,40.067,28.886,40.067,54.48c0,31.507-25.542,57.05-57.05,57.05s-57.051-25.543-57.051-57.05
			c0-25.594,1.036-51.156-3.838-46.497c-0.805,0.771-2.443,1.327-3.485,1.081c-5.179-1.214-10.282-2.75-15.422-4.133
			c-4.656-1.253-6.788-0.189-8.647,4.252c-2.012,4.806-4.026,9.615-6.019,14.43c-2.023,4.895-1.255,7.037,3.313,9.615
			c4.542,2.562,9.102,5.097,13.544,7.823c0.878,0.539,1.758,1.899,1.771,2.893c0.083,6.488-0.27,12.988-0.055,19.47
			c0.087,2.608-0.561,4.121-2.835,5.317c-4.401,2.324-8.715,4.819-13.028,7.304c-3.822,2.203-4.634,4.553-2.982,8.613
			c2.053,5.047,4.183,10.06,6.286,15.087c1.917,4.582,4.003,5.545,8.938,4.192c4.909-1.348,9.866-2.532,14.715-4.058
			c1.938-0.613,2.901-0.119,4.218,1.268c4.471,4.727,9.044,9.372,13.811,13.791c1.556,1.444,1.976,2.49,1.343,4.515
			c-1.552,4.965-2.838,10.016-4.177,15.049c-1.178,4.438-0.054,6.63,4.172,8.391c4.916,2.051,9.827,4.12,14.75,6.155
			c4.638,1.92,6.899,1.109,9.373-3.259c2.624-4.643,5.19-9.323,7.975-13.864c0.517-0.843,1.956-1.559,2.979-1.575
			c6.856-0.116,13.715-0.095,20.572,0.083c1.109,0.028,2.656,0.777,3.218,1.679c2.756,4.424,5.267,9.004,7.827,13.549
			c2.515,4.466,4.727,5.32,9.293,3.434c4.927-2.032,9.844-4.09,14.748-6.166c4.482-1.898,5.487-3.982,4.224-8.644
			c-1.355-5.03-2.845-10.03-3.999-15.104c-0.263-1.157,0.209-2.949,1.019-3.809c4.631-4.898,9.403-9.67,14.299-14.308
			c0.863-0.816,2.646-1.321,3.798-1.061c5.071,1.151,10.071,2.63,15.099,4.004c4.687,1.274,6.799,0.286,8.675-4.159
			c2.118-5.02,4.219-10.049,6.282-15.093C-66.421,142.772-67.287,140.444-71.3,138.135z"/>
		<path fill-rule="evenodd" clip-rule="evenodd" fill="#161616" d="M-240.284,129.725c0.883-0.553,1.607-2.094,1.624-3.188
			c0.073-4.068,0.093-8.138,0.052-12.206c-0.026-2.545-0.075-5.089-0.151-7.632c-0.04-1.233-0.761-2.959-1.724-3.561
			c-4.614-2.891-9.438-5.446-14.158-8.173c-3.77-2.178-4.593-4.607-2.94-8.639c2.066-5.041,4.191-10.06,6.289-15.09
			c1.862-4.47,3.968-5.511,8.641-4.245c5.021,1.364,10.091,2.603,15.049,4.177c1.967,0.624,2.9,0.072,4.188-1.327
			c4.097-4.437,8.134-8.991,12.73-12.864c2.122-1.787,13.276-11.154,28.254-14.816c0.855-0.209,1.722-0.4,2.601-0.569v1.486V62.06
			c-22.23,6.923-38.627,27.076-39.977,51.247c-0.06,1.07-0.09,2.148-0.09,3.233C-219.896,148.048-244.901,132.613-240.284,129.725z"
			/>
		<path fill-rule="evenodd" clip-rule="evenodd" fill="#161616" d="M-179.829,62.098h-1.183c-0.866,0-1.575-0.723-1.575-1.607
			v-8.845h4.333v8.845C-178.254,61.375-178.962,62.098-179.829,62.098z"/>
		<path fill-rule="evenodd" clip-rule="evenodd" fill="#161616" d="M-145.85,41.765c-0.866,0-1.575,0.697-1.575,1.548v8.524h1.646
			L-145.85,41.765z"/>
		<path fill-rule="evenodd" clip-rule="evenodd" fill="#161616" d="M-145.85,62.27h1.183c0.866,0,1.575-0.723,1.575-1.607v-8.845
			h-4.333v8.845C-147.425,61.547-146.716,62.27-145.85,62.27z"/>
	</g>
</g>
<g id="white">
	<g>
		<g>
			<g>
				<path fill-rule="evenodd" clip-rule="evenodd" fill="#E9EBE5" d="M113.873,81.677c0,2.75-2.25,5-5,5h-8.654c-2.75,0-5-2.25-5-5
					V14c0-2.75,2.25-5,5-5h8.654c2.75,0,5,2.25,5,5V81.677z"/>
			</g>
			<g>
				<path fill="#E9EBE5" d="M196.091,127.213c-4.725-2.714-9.49-5.35-14.108-8.237c-0.883-0.553-1.607-2.094-1.624-3.188
					c-0.119-6.612-0.098-13.232,0.099-19.837c0.04-1.233,0.761-2.958,1.724-3.561c4.614-2.891,9.439-5.446,14.158-8.173
					c3.77-2.178,4.593-4.607,2.94-8.639c-2.066-5.041-4.191-10.06-6.289-15.09c-1.862-4.47-3.968-5.511-8.641-4.245
					c-5.021,1.364-10.091,2.603-15.049,4.177c-1.967,0.624-2.9,0.072-4.188-1.327c-4.097-4.437-8.134-8.991-12.731-12.864
					c-2.242-1.889-14.573-12.242-30.842-15.383v-0.003c-0.003,0-0.006,0.001-0.009,0.001c-0.001,0-0.003-0.001-0.004-0.001v0.001
					c-0.86,0.007-1.562,0.7-1.562,1.547v8.505v0.019v8.825c0,0.884,0.709,1.607,1.575,1.607h0.099
					c23.155,7.264,39.955,28.89,39.955,54.443c0,31.507-25.542,57.05-57.05,57.05s-57.051-25.543-57.051-57.05
					c0-0.062,0-0.123,0-0.185c0-1.081,0.03-2.155,0.09-3.221c1.348-24.13,17.693-44.254,39.865-51.21h0.113
					c0.866,0,1.575-0.723,1.575-1.607v-8.825v-0.019V32.22c0-0.852-0.709-1.548-1.575-1.548l0,0.069v-0.069
					c-0.879,0.169-1.746,0.36-2.601,0.569c-14.978,3.662-26.132,13.029-28.254,14.816c-4.597,3.873-8.634,8.427-12.731,12.864
					c-0.224,0.243-0.436,0.451-0.646,0.641c-0.801,0.578-2.032,0.958-2.938,0.843c-0.192-0.041-0.389-0.089-0.604-0.157
					c-4.958-1.574-10.028-2.813-15.049-4.177c-4.673-1.266-6.778-0.225-8.641,4.245c-2.098,5.03-4.223,10.048-6.289,15.09
					c-0.659,1.608-0.917,2.959-0.758,4.143c0.175,1.989,1.542,3.409,4.344,4.991c4.542,2.562,9.102,5.097,13.544,7.823
					c0.264,0.162,0.525,0.403,0.766,0.681c0.538,0.79,0.898,1.878,0.926,2.734c0.038,1.273,0.05,2.548,0.076,3.821
					c-0.048,5.044-0.219,10.09-0.052,15.126c0.026,0.775-0.024,1.443-0.151,2.045c-0.282,0.833-0.801,1.659-1.398,2.032
					c-0.334,0.209-0.508,0.484-0.553,0.802c-0.224,0.151-0.465,0.297-0.733,0.438c-4.401,2.324-8.715,4.819-13.028,7.304
					c-3.822,2.203-4.634,4.553-2.982,8.613c2.053,5.047,4.183,10.059,6.286,15.087c1.917,4.582,4.003,5.545,8.938,4.192
					c4.909-1.348,9.866-2.532,14.715-4.058c1.938-0.613,2.901-0.119,4.218,1.268c4.471,4.727,9.043,9.372,13.811,13.791
					c1.556,1.444,1.976,2.49,1.343,4.515c-1.552,4.965-2.838,10.016-4.177,15.049c-1.178,4.438-0.054,6.63,4.172,8.391
					c4.916,2.051,9.827,4.12,14.751,6.155c4.638,1.92,6.899,1.109,9.373-3.259c2.625-4.644,5.19-9.323,7.975-13.864
					c0.517-0.843,1.956-1.559,2.979-1.575c6.856-0.116,13.715-0.095,20.572,0.083c1.109,0.028,2.656,0.777,3.218,1.679
					c2.756,4.424,5.267,9.004,7.827,13.549c2.515,4.466,4.728,5.32,9.293,3.434c4.927-2.032,9.844-4.09,14.748-6.166
					c4.482-1.898,5.487-3.982,4.224-8.644c-1.355-5.03-2.845-10.03-3.999-15.104c-0.263-1.157,0.209-2.949,1.019-3.809
					c4.631-4.898,9.403-9.67,14.299-14.308c0.863-0.816,2.646-1.321,3.798-1.061c5.071,1.151,10.071,2.63,15.099,4.004
					c4.687,1.274,6.799,0.286,8.675-4.159c2.118-5.021,4.219-10.049,6.282-15.093C200.97,131.85,200.104,129.522,196.091,127.213z"
					/>
			</g>
		</g>
	</g>
	<rect x="-341.03" y="-69.667" fill="#E9EBE5" width="139" height="84"/>
	<rect x="-341.03" y="14.333" fill="#262626" width="139" height="84"/>
	<rect x="-341.03" y="98.333" fill="#4DB1B9" width="139" height="84"/>
	<g>
		<path fill-rule="evenodd" clip-rule="evenodd" fill="#262626" d="M397.516,81.677c0,2.75-2.25,5-5,5h-8.654c-2.75,0-5-2.25-5-5V14
			c0-2.75,2.25-5,5-5h8.654c2.75,0,5,2.25,5,5V81.677z"/>
	</g>
	<path fill="#262626" d="M479.735,127.213c-4.725-2.714-9.49-5.35-14.108-8.237c-0.883-0.553-1.607-2.094-1.624-3.188
		c-0.119-6.612-0.098-13.232,0.099-19.837c0.04-1.233,0.761-2.958,1.724-3.561c4.614-2.891,9.439-5.446,14.158-8.173
		c3.77-2.178,4.593-4.607,2.94-8.639c-2.066-5.041-4.191-10.06-6.289-15.09c-1.862-4.47-3.968-5.511-8.641-4.245
		c-5.021,1.364-10.091,2.603-15.049,4.177c-1.967,0.624-2.9,0.072-4.188-1.327c-4.097-4.437-8.134-8.991-12.731-12.864
		c-2.242-1.889-14.573-12.242-30.842-15.383v-0.003c-0.003,0-0.006,0.001-0.009,0.001c-0.001,0-0.003-0.001-0.004-0.001v0.001
		c-0.86,0.007-1.562,0.7-1.562,1.547v8.505v0.019v8.825c0,0.884,0.709,1.607,1.575,1.607h0.099
		c23.155,7.264,39.955,28.89,39.955,54.443c0,31.507-25.542,57.05-57.05,57.05s-57.051-25.543-57.051-57.05c0-0.062,0-0.123,0-0.185
		c0-1.081,0.03-2.155,0.09-3.221c1.348-24.13,17.693-44.254,39.865-51.21h0.113c0.866,0,1.575-0.723,1.575-1.607v-8.825v-0.019
		V32.22c0-0.852-0.709-1.548-1.575-1.548l0,0.069v-0.069c-0.879,0.169-1.746,0.36-2.601,0.569
		c-14.978,3.662-26.132,13.029-28.254,14.816c-4.597,3.873-8.634,8.427-12.731,12.864c-0.224,0.243-0.436,0.451-0.646,0.641
		c-0.801,0.578-2.032,0.958-2.938,0.843c-0.192-0.041-0.389-0.089-0.604-0.157c-4.958-1.574-10.028-2.813-15.049-4.177
		c-4.673-1.266-6.778-0.225-8.641,4.245c-2.098,5.03-4.223,10.048-6.289,15.09c-0.659,1.608-0.917,2.959-0.758,4.143
		c0.175,1.989,1.542,3.409,4.344,4.991c4.542,2.562,9.102,5.097,13.544,7.823c0.264,0.162,0.525,0.403,0.766,0.681
		c0.538,0.79,0.898,1.878,0.926,2.734c0.038,1.273,0.05,2.548,0.076,3.821c-0.048,5.044-0.219,10.09-0.052,15.126
		c0.026,0.775-0.024,1.443-0.151,2.045c-0.282,0.833-0.801,1.659-1.398,2.032c-0.334,0.209-0.508,0.484-0.553,0.802
		c-0.224,0.151-0.465,0.297-0.733,0.438c-4.401,2.324-8.715,4.819-13.028,7.304c-3.822,2.203-4.634,4.553-2.982,8.613
		c2.053,5.047,4.183,10.059,6.286,15.087c1.917,4.582,4.003,5.545,8.938,4.192c4.909-1.348,9.866-2.532,14.715-4.058
		c1.938-0.613,2.901-0.119,4.218,1.268c4.471,4.727,9.043,9.372,13.811,13.791c1.556,1.444,1.976,2.49,1.343,4.515
		c-1.552,4.965-2.838,10.016-4.177,15.049c-1.178,4.438-0.054,6.63,4.172,8.391c4.916,2.051,9.827,4.12,14.751,6.155
		c4.638,1.92,6.899,1.109,9.373-3.259c2.625-4.644,5.19-9.323,7.975-13.864c0.517-0.843,1.956-1.559,2.979-1.575
		c6.856-0.116,13.715-0.095,20.572,0.083c1.109,0.028,2.656,0.777,3.218,1.679c2.756,4.424,5.267,9.004,7.827,13.549
		c2.515,4.466,4.728,5.32,9.293,3.434c4.927-2.032,9.844-4.09,14.748-6.166c4.482-1.898,5.487-3.982,4.224-8.644
		c-1.355-5.03-2.845-10.03-3.999-15.104c-0.263-1.157,0.209-2.949,1.019-3.809c4.631-4.898,9.403-9.67,14.299-14.308
		c0.863-0.816,2.646-1.321,3.798-1.061c5.071,1.151,10.071,2.63,15.099,4.004c4.687,1.274,6.799,0.286,8.675-4.159
		c2.118-5.021,4.219-10.049,6.282-15.093C484.614,131.85,483.748,129.522,479.735,127.213z"/>
	<g>
		<path fill-rule="evenodd" clip-rule="evenodd" fill="#E9EBE5" d="M401.873-119.66c0,2.75-2.25,5-5,5h-8.654c-2.75,0-5-2.25-5-5
			v-67.677c0-2.75,2.25-5,5-5h8.654c2.75,0,5,2.25,5,5V-119.66z"/>
	</g>
	<g>
		<path fill="#E9EBE5" d="M484.091-74.124c-4.725-2.714-9.49-5.35-14.108-8.237c-0.883-0.553-1.607-2.094-1.624-3.188
			c-0.119-6.612-0.098-13.232,0.099-19.837c0.04-1.233,0.761-2.958,1.724-3.561c4.614-2.891,9.439-5.446,14.158-8.173
			c3.77-2.178,4.593-4.607,2.94-8.639c-2.066-5.041-4.191-10.06-6.289-15.09c-1.862-4.47-3.968-5.511-8.641-4.245
			c-5.021,1.364-10.091,2.603-15.049,4.177c-1.967,0.624-2.9,0.072-4.188-1.327c-4.097-4.437-8.134-8.991-12.731-12.864
			c-2.242-1.889-14.573-12.242-30.842-15.383v-0.003c-0.003,0-0.006,0.001-0.009,0.001c-0.001,0-0.003-0.001-0.004-0.001v0.001
			c-0.86,0.007-1.562,0.7-1.562,1.547v8.505v0.019v8.825c0,0.884,0.709,1.607,1.575,1.607h0.099
			c23.155,7.264,39.955,28.89,39.955,54.443c0,31.507-25.542,57.05-57.05,57.05s-57.051-25.543-57.051-57.05
			c0-0.062,0-0.123,0-0.185c0-1.081,0.03-2.155,0.09-3.221c1.348-24.13,17.693-44.254,39.865-51.21h0.113
			c0.866,0,1.575-0.723,1.575-1.607v-8.825v-0.019v-8.505c0-0.852-0.709-1.548-1.575-1.548l0,0.069v-0.069
			c-0.879,0.169-1.746,0.36-2.601,0.569c-14.978,3.662-26.132,13.029-28.254,14.816c-4.597,3.873-8.634,8.427-12.731,12.864
			c-0.224,0.243-0.436,0.451-0.646,0.641c-0.801,0.578-2.032,0.958-2.938,0.843c-0.192-0.041-0.389-0.089-0.604-0.157
			c-4.958-1.574-10.028-2.813-15.049-4.177c-4.673-1.266-6.778-0.225-8.641,4.245c-2.098,5.03-4.223,10.048-6.289,15.09
			c-0.659,1.608-0.917,2.959-0.758,4.143c0.175,1.989,1.542,3.409,4.344,4.991c4.542,2.562,9.102,5.097,13.544,7.823
			c0.264,0.162,0.525,0.403,0.766,0.681c0.538,0.79,0.898,1.878,0.926,2.734c0.038,1.273,0.05,2.548,0.076,3.821
			c-0.048,5.044-0.219,10.09-0.052,15.126c0.026,0.775-0.024,1.443-0.151,2.045c-0.282,0.833-0.801,1.659-1.398,2.032
			c-0.334,0.209-0.508,0.484-0.553,0.802c-0.224,0.151-0.465,0.297-0.733,0.438c-4.401,2.324-8.715,4.819-13.028,7.304
			c-3.822,2.203-4.634,4.553-2.982,8.613c2.053,5.047,4.183,10.059,6.286,15.087c1.917,4.582,4.003,5.545,8.938,4.192
			c4.909-1.348,9.866-2.532,14.715-4.058c1.938-0.613,2.901-0.119,4.218,1.268c4.471,4.727,9.043,9.372,13.811,13.791
			c1.556,1.444,1.976,2.49,1.343,4.515c-1.552,4.965-2.838,10.016-4.177,15.049c-1.178,4.438-0.054,6.63,4.172,8.391
			c4.916,2.051,9.827,4.12,14.751,6.155c4.638,1.92,6.899,1.109,9.373-3.259c2.625-4.644,5.19-9.323,7.975-13.864
			c0.517-0.843,1.956-1.559,2.979-1.575c6.856-0.116,13.715-0.095,20.572,0.083c1.109,0.028,2.656,0.777,3.218,1.679
			c2.756,4.424,5.267,9.004,7.827,13.549c2.515,4.466,4.728,5.32,9.293,3.434c4.927-2.032,9.844-4.09,14.748-6.166
			c4.482-1.898,5.487-3.982,4.224-8.644c-1.355-5.03-2.845-10.03-3.999-15.104c-0.263-1.157,0.209-2.949,1.019-3.809
			c4.631-4.898,9.403-9.67,14.299-14.308c0.863-0.816,2.646-1.321,3.798-1.061c5.071,1.151,10.071,2.63,15.099,4.004
			c4.687,1.274,6.799,0.286,8.675-4.159c2.118-5.021,4.219-10.049,6.282-15.093C488.97-69.487,488.104-71.815,484.091-74.124z"/>
	</g>
</g>
<g id="Layer_4" display="none">
	<g display="inline">
		<path fill-rule="evenodd" clip-rule="evenodd" fill="#E9EBE5" d="M113.873,81.677c0,2.75-2.25,5-5,5h-8.654c-2.75,0-5-2.25-5-5V14
			c0-2.75,2.25-5,5-5h8.654c2.75,0,5,2.25,5,5V81.677z"/>
	</g>
	<g display="inline">
		<path fill-rule="evenodd" clip-rule="evenodd" fill="#E9EBE5" d="M87.563,30.671c0.866,0,1.575,0.697,1.575,1.548v8.524h-1.646
			L87.563,30.671z"/>
		<path fill-rule="evenodd" clip-rule="evenodd" fill="#E9EBE5" d="M196.091,127.213c-4.725-2.714-9.49-5.35-14.107-8.237
			c-0.883-0.553-1.607-2.094-1.624-3.188c-0.119-6.612-0.098-13.232,0.099-19.837c0.04-1.233,0.761-2.958,1.724-3.561
			c4.614-2.891,9.439-5.446,14.158-8.173c3.77-2.178,4.593-4.607,2.94-8.639c-2.066-5.042-4.191-10.06-6.289-15.09
			c-1.862-4.47-3.968-5.511-8.641-4.245c-5.02,1.364-10.091,2.603-15.049,4.177c-1.967,0.625-2.9,0.072-4.188-1.327
			c-4.097-4.437-8.134-8.991-12.73-12.864c-2.243-1.889-14.579-12.248-30.855-15.385v20.467
			c23.214,7.229,40.067,28.886,40.067,54.48c0,31.507-25.542,57.05-57.05,57.05s-57.051-25.543-57.051-57.05
			c0-25.594,1.036-51.156-3.838-46.497c-0.805,0.771-2.443,1.327-3.485,1.081c-5.179-1.214-10.282-2.749-15.422-4.133
			c-4.656-1.253-6.788-0.19-8.647,4.252c-2.012,4.806-4.026,9.615-6.019,14.43c-2.023,4.895-1.255,7.037,3.313,9.615
			c4.542,2.562,9.102,5.097,13.544,7.823c0.878,0.539,1.758,1.899,1.771,2.893c0.083,6.488-0.27,12.988-0.055,19.47
			c0.087,2.608-0.56,4.121-2.835,5.317c-4.401,2.324-8.715,4.819-13.028,7.304c-3.822,2.203-4.634,4.553-2.982,8.613
			c2.053,5.047,4.183,10.06,6.286,15.087c1.917,4.582,4.003,5.545,8.938,4.192c4.909-1.348,9.866-2.532,14.715-4.058
			c1.938-0.613,2.901-0.119,4.218,1.268c4.471,4.727,9.043,9.372,13.811,13.791c1.556,1.444,1.976,2.49,1.343,4.515
			c-1.552,4.965-2.838,10.016-4.177,15.049c-1.178,4.438-0.054,6.63,4.172,8.391c4.916,2.051,9.827,4.12,14.75,6.155
			c4.638,1.92,6.899,1.109,9.373-3.259c2.624-4.643,5.19-9.323,7.975-13.864c0.517-0.843,1.956-1.559,2.979-1.575
			c6.856-0.116,13.715-0.095,20.572,0.083c1.109,0.028,2.656,0.777,3.218,1.679c2.756,4.424,5.267,9.004,7.827,13.549
			c2.515,4.466,4.728,5.32,9.293,3.434c4.927-2.032,9.844-4.09,14.748-6.166c4.482-1.898,5.487-3.982,4.224-8.644
			c-1.355-5.03-2.845-10.03-3.999-15.104c-0.263-1.157,0.209-2.949,1.019-3.809c4.631-4.898,9.403-9.67,14.299-14.308
			c0.863-0.816,2.646-1.321,3.798-1.061c5.071,1.151,10.071,2.63,15.099,4.004c4.687,1.274,6.799,0.286,8.675-4.159
			c2.118-5.02,4.219-10.049,6.282-15.093C200.97,131.85,200.104,129.522,196.091,127.213z"/>
		<path fill-rule="evenodd" clip-rule="evenodd" fill="#E9EBE5" d="M27.107,118.804c0.883-0.553,1.607-2.094,1.624-3.188
			c0.073-4.068,0.093-8.138,0.052-12.206c-0.026-2.545-0.075-5.089-0.151-7.632c-0.04-1.233-0.761-2.959-1.724-3.561
			c-4.614-2.891-9.438-5.446-14.158-8.173c-3.77-2.178-4.593-4.607-2.94-8.639c2.066-5.041,4.191-10.06,6.289-15.09
			c1.862-4.47,3.968-5.511,8.641-4.245c5.02,1.364,10.091,2.603,15.049,4.177c1.967,0.625,2.9,0.072,4.188-1.327
			c4.097-4.437,8.134-8.991,12.73-12.864c2.122-1.787,13.276-11.154,28.254-14.816c0.855-0.209,1.722-0.4,2.601-0.569v1.486v18.981
			c-22.23,6.923-38.627,27.076-39.977,51.247c-0.06,1.07-0.09,2.148-0.09,3.233C47.495,137.126,22.49,121.691,27.107,118.804z"/>
		<path fill-rule="evenodd" clip-rule="evenodd" fill="#E9EBE5" d="M87.563,51.176H86.38c-0.866,0-1.575-0.723-1.575-1.607v-8.845
			h4.333v8.845C89.138,50.453,88.429,51.176,87.563,51.176z"/>
		<path fill-rule="evenodd" clip-rule="evenodd" fill="#E9EBE5" d="M121.542,30.844c-0.866,0-1.575,0.697-1.575,1.548v8.524h1.646
			L121.542,30.844z"/>
		<path fill-rule="evenodd" clip-rule="evenodd" fill="#E9EBE5" d="M121.542,51.348h1.183c0.866,0,1.575-0.723,1.575-1.607v-8.845
			h-4.333v8.845C119.967,50.625,120.676,51.348,121.542,51.348z"/>
	</g>
</g>
</svg>
