<?xml version="1.0" encoding="utf-8"?>
<!-- Generator: Adobe Illustrator 21.0.0, SVG Export Plug-In . SVG Version: 6.00 Build 0)  -->
<svg version="1.1" xmlns="http://www.w3.org/2000/svg" xmlns:xlink="http://www.w3.org/1999/xlink" x="0px" y="0px"
	 viewBox="0 0 191.5 147.6" style="enable-background:new 0 0 191.5 147.6;" xml:space="preserve">
<style type="text/css">
	.st0{display:none;}
	.st1{display:inline;fill:none;stroke:#262626;stroke-width:3;stroke-miterlimit:10;}
	.st2{display:inline;fill:#262626;}
	.st3{display:inline;}
	.st4{fill:#4BB1B7;}
	.st5{display:inline;fill:#E9EBE5;stroke:#262626;stroke-miterlimit:10;}
	.st6{font-family:'Lato-Bold';}
	.st7{font-size:65px;}
	.st8{fill:#262626;}
	.st9{display:inline;fill:#4AB1B6;stroke:#E9EBE5;stroke-width:0.5;stroke-miterlimit:10;}
	.st10{font-size:41px;}
	.st11{letter-spacing:8;}
	.st12{display:inline;fill:#4AB1B5;stroke:#262626;stroke-miterlimit:10;}
	.st13{display:inline;fill:#262626;stroke:#E9EBE5;stroke-width:0.5;stroke-miterlimit:10;}
	.st14{letter-spacing:4;}
	.st15{fill:none;}
	.st16{display:inline;fill:#4DB1B9;}
	.st17{fill:#F3F3F4;}
	.st18{fill-rule:evenodd;clip-rule:evenodd;fill:#262626;}
</style>
<g id="Layer_1" class="st0">
	<circle class="st1" cx="96.6" cy="100.7" r="118.4"/>
	<circle class="st2" cx="96.6" cy="100.7" r="111.3"/>
	<g class="st3">
		<path class="st4" d="M176.4,52.3c-0.3,1.4-0.7,2.9-1,4.3c-1.5,5.8-4.7,10.5-9.4,14.1c-6,4.6-12.9,6.3-20.5,5.1
			c-1.3-0.2-2.2-0.1-3.2,1c-5.4,5.5-10.9,10.9-16.3,16.4c-2.9,2.9-5.8,5.8-8.7,8.7c-0.1,0.1-0.3,0.3-0.6,0.7
			c1.6,1.5,3.1,2.9,4.6,4.4c9.3,9.3,18.6,18.5,27.8,27.8c0.6,0.6,1.2,0.8,2,0.8c6.7-0.1,12.2,2.4,16.7,7.3c5.9,6.5,6.9,17.5,2.3,25
			c-4.5,7.3-11.1,10.9-19.6,10.7c-11.3-0.3-20.5-9.8-20.5-21.1c0-1.3-0.3-2.3-1.3-3.2c-8.7-8.6-17.3-17.2-25.9-25.9
			c-1.9-1.9-3.9-3.9-5.9-5.9c-1.9,1.9-3.7,3.6-5.5,5.4c-4.9,4.9-9.8,9.8-14.7,14.8c-4.1,4.1-8.2,8.2-12.3,12.4
			c-0.4,0.4-0.6,1-0.6,1.5c0.1,5-1.3,9.6-4.3,13.6c-3.5,4.6-8.1,7.5-13.8,8.3c-8.9,1.2-16.1-1.8-21.2-9.1
			c-4.4-6.3-5.1-13.4-2.1-20.5c3.1-7.4,8.9-11.7,16.8-13c1-0.2,2.1-0.2,3.2-0.1c1,0,1.6-0.2,2.3-0.9c10.4-10.4,20.8-20.8,31.2-31.3
			c0.3-0.3,0.6-0.6,1-1.1c-2.5-2.4-4.9-4.7-7.3-7.1c-4.9-4.9-9.8-9.8-14.8-14.7c-1.4-1.4-2.8-3-4.4-4.3c-0.5-0.4-1.5-0.4-2.2-0.3
			c-3.4,0.6-6.8,0.5-10.1-0.2c-4.9-1-9.1-3.2-12.7-6.6c-4.6-4.3-7.2-9.6-8.1-15.9c-0.5-3.7-0.1-8.3,1.3-12c1.4,1.4,2.8,2.8,4.2,4.1
			c3.2,3.1,6.3,6.4,9.7,9.3c3.9,3.3,10,3,14-0.3c6-5,6.4-12.7,0.8-18.2c-3.8-3.7-7.5-7.5-11.3-11.3c-0.2-0.2-0.3-0.4-0.8-0.9
			c2.8-0.4,5.3-1,7.9-1.1c6.2-0.3,11.8,1.5,16.8,5.2c4.2,3.1,7.2,7.2,9,12.2c1.7,4.7,2,9.5,1.2,14.4c-0.1,0.5,0.1,1.3,0.5,1.7
			C79,64.9,87.5,73.4,96.1,82c0.1,0.1,0.3,0.3,0.8,0.7c0.4-0.6,0.7-1.2,1.2-1.6c8.2-8.2,16.3-16.3,24.5-24.5
			c0.7-0.7,0.8-1.3,0.7-2.3c-1.4-8.5,0.5-16.1,6.3-22.6c5.6-6.3,12.8-9.2,21.2-8.9c2.4,0.1,4.7,0.7,7.1,1.1c0.1,0.2,0.1,0.3,0.2,0.5
			c-1.6,1.5-3.1,2.9-4.7,4.4c-2.5,2.5-5,5-7.5,7.5c-4,4-4.7,9-2.6,13.4c2.4,5,7.4,7.7,12.5,7c3.2-0.4,5.5-2.2,7.7-4.4
			c3.4-3.5,6.9-7,10.4-10.4c0.3-0.3,0.6-0.5,1-0.8c0.5,2.1,0.9,4.1,1.4,6.1C176.4,48.9,176.4,50.6,176.4,52.3z M44.7,168.1
			c0.3-0.2,0.7-0.4,1.1-0.8c2.2-2.2,4.4-4.4,6.6-6.5c0.5-0.5,0.6-1,0.4-1.7c-0.9-3-1.7-6-2.4-9.1c-0.2-0.8-0.6-1.1-1.3-1.3
			c-3.1-0.8-6.1-1.7-9.2-2.4c-0.4-0.1-1.1,0.1-1.4,0.5c-2.3,2.2-4.6,4.5-6.8,6.8c-0.3,0.3-0.5,1-0.4,1.4c0.8,3.2,1.6,6.3,2.5,9.5
			c0.1,0.3,0.3,0.6,0.6,0.7C37.7,166.2,41.1,167.1,44.7,168.1z M162.2,154.4c-0.1-0.2-0.2-0.5-0.5-0.8c-2.3-2.3-4.6-4.6-6.9-6.9
			c-0.3-0.3-1-0.5-1.4-0.4c-3.1,0.8-6.2,1.6-9.3,2.5c-0.4,0.1-0.9,0.6-1,1c-0.9,3.1-1.7,6.3-2.5,9.5c-0.1,0.4,0,1,0.3,1.2
			c2.3,2.3,4.6,4.7,6.9,6.9c0.4,0.3,1.2,0.5,1.7,0.4c2.4-0.5,4.7-1.3,7.1-1.8c2.1-0.4,3.3-1.3,3.7-3.5
			C160.5,159.8,161.4,157.2,162.2,154.4z"/>
	</g>
	<text transform="matrix(1 0 0 1 -6.781 124.8292)" class="st5 st6 st7">WORK</text>
</g>
<g id="Layer_2" class="st0">
	<rect x="-44.1" y="16.8" class="st1" width="294" height="181"/>
	<rect x="-35.2" y="22.3" class="st2" width="276.2" height="170.1"/>
	<g class="st3">
		<path class="st4" d="M182.7,58.3c-0.3,1.4-0.7,2.9-1,4.3c-1.5,5.8-4.7,10.5-9.4,14.1c-6,4.6-12.9,6.3-20.5,5.1
			c-1.3-0.2-2.2-0.1-3.2,1c-5.4,5.5-10.9,10.9-16.3,16.4c-2.9,2.9-5.8,5.8-8.7,8.7c-0.1,0.1-0.3,0.3-0.6,0.7
			c1.6,1.5,3.1,2.9,4.6,4.4c9.3,9.3,18.6,18.5,27.8,27.8c0.6,0.6,1.2,0.8,2,0.8c6.7-0.1,12.2,2.4,16.7,7.3c5.9,6.5,6.9,17.5,2.3,25
			c-4.5,7.3-11.1,10.9-19.6,10.7c-11.3-0.3-20.5-9.8-20.5-21.1c0-1.3-0.3-2.3-1.3-3.2c-8.7-8.6-17.3-17.2-25.9-25.9
			c-1.9-1.9-3.9-3.9-5.9-5.9c-1.9,1.9-3.7,3.6-5.5,5.4c-4.9,4.9-9.8,9.8-14.7,14.8c-4.1,4.1-8.2,8.2-12.3,12.4
			c-0.4,0.4-0.6,1-0.6,1.5c0.1,5-1.3,9.6-4.3,13.6c-3.5,4.6-8.1,7.5-13.8,8.3c-8.9,1.2-16.1-1.8-21.2-9.1
			c-4.4-6.3-5.1-13.4-2.1-20.5c3.1-7.4,8.9-11.7,16.8-13c1-0.2,2.1-0.2,3.2-0.1c1,0,1.6-0.2,2.3-0.9c10.4-10.4,20.8-20.8,31.2-31.3
			c0.3-0.3,0.6-0.6,1-1.1c-2.5-2.4-4.9-4.7-7.3-7.1c-4.9-4.9-9.8-9.8-14.8-14.7c-1.4-1.4-2.8-3-4.4-4.3c-0.5-0.4-1.5-0.4-2.2-0.3
			c-3.4,0.6-6.8,0.5-10.1-0.2c-4.9-1-9.1-3.2-12.7-6.6c-4.6-4.3-7.2-9.6-8.1-15.9c-0.5-3.7-0.1-8.3,1.3-12c1.4,1.4,2.8,2.8,4.2,4.1
			c3.2,3.1,6.3,6.4,9.7,9.3c3.9,3.3,10,3,14-0.3c6-5,6.4-12.7,0.8-18.2c-3.8-3.7-7.5-7.5-11.3-11.3c-0.2-0.2-0.3-0.4-0.8-0.9
			c2.8-0.4,5.3-1,7.9-1.1c6.2-0.3,11.8,1.5,16.8,5.2c4.2,3.1,7.2,7.2,9,12.2c1.7,4.7,2,9.5,1.2,14.4c-0.1,0.5,0.1,1.3,0.5,1.7
			c8.5,8.6,17.1,17.1,25.6,25.7c0.1,0.1,0.3,0.3,0.8,0.7c0.4-0.6,0.7-1.2,1.2-1.6c8.2-8.2,16.3-16.3,24.5-24.5
			c0.7-0.7,0.8-1.3,0.7-2.3c-1.4-8.5,0.5-16.1,6.3-22.6c5.6-6.3,12.8-9.2,21.2-8.9c2.4,0.1,4.7,0.7,7.1,1.1c0.1,0.2,0.1,0.3,0.2,0.5
			c-1.6,1.5-3.1,2.9-4.7,4.4c-2.5,2.5-5,5-7.5,7.5c-4,4-4.7,9-2.6,13.4c2.4,5,7.4,7.7,12.5,7c3.2-0.4,5.5-2.2,7.7-4.4
			c3.4-3.5,6.9-7,10.4-10.4c0.3-0.3,0.6-0.5,1-0.8c0.5,2.1,0.9,4.1,1.4,6.1C182.7,54.9,182.7,56.6,182.7,58.3z M51,174
			c0.3-0.2,0.7-0.4,1.1-0.8c2.2-2.2,4.4-4.4,6.6-6.5c0.5-0.5,0.6-1,0.4-1.7c-0.9-3-1.7-6-2.4-9.1c-0.2-0.8-0.6-1.1-1.3-1.3
			c-3.1-0.8-6.1-1.7-9.2-2.4c-0.4-0.1-1.1,0.1-1.4,0.5c-2.3,2.2-4.6,4.5-6.8,6.8c-0.3,0.3-0.5,1-0.4,1.4c0.8,3.2,1.6,6.3,2.5,9.5
			c0.1,0.3,0.3,0.6,0.6,0.7C44,172.1,47.4,173.1,51,174z M168.5,160.4c-0.1-0.2-0.2-0.5-0.5-0.8c-2.3-2.3-4.6-4.6-6.9-6.9
			c-0.3-0.3-1-0.5-1.4-0.4c-3.1,0.8-6.2,1.6-9.3,2.5c-0.4,0.1-0.9,0.6-1,1c-0.9,3.1-1.7,6.3-2.5,9.5c-0.1,0.4,0,1,0.3,1.2
			c2.3,2.3,4.6,4.7,6.9,6.9c0.4,0.3,1.2,0.5,1.7,0.4c2.4-0.5,4.7-1.3,7.1-1.8c2.1-0.4,3.3-1.3,3.7-3.5
			C166.8,165.8,167.7,163.2,168.5,160.4z"/>
	</g>
	<text transform="matrix(1 0 0 1 -0.4643 130.7987)" class="st5 st6 st7">WORK</text>
</g>
<g id="Layer_3" class="st0">
	<g class="st3">
		<path class="st8" d="M201.4,35.6c-0.4,1.9-0.9,3.7-1.3,5.6c-1.9,7.6-6.1,13.7-12.3,18.4c-7.9,6-16.9,8.3-26.8,6.7
			c-1.7-0.3-2.9-0.1-4.2,1.2c-7,7.2-14.2,14.3-21.3,21.4c-3.8,3.8-7.6,7.6-11.4,11.4c-0.2,0.2-0.4,0.4-0.8,0.9c2,1.9,4.1,3.8,6,5.8
			c12.1,12.1,24.2,24.2,36.3,36.3c0.8,0.8,1.6,1,2.6,1c8.7-0.2,15.9,3.2,21.8,9.6c7.7,8.5,9,22.8,3,32.6c-5.9,9.6-14.5,14.3-25.6,14
			c-14.8-0.4-26.8-12.8-26.8-27.6c0-1.7-0.4-3-1.7-4.2c-11.3-11.2-22.6-22.5-33.9-33.7c-2.5-2.5-5.1-5.1-7.7-7.8
			c-2.4,2.4-4.8,4.7-7.1,7.1c-6.4,6.4-12.8,12.8-19.2,19.3c-5.4,5.4-10.7,10.7-16,16.1c-0.5,0.5-0.8,1.3-0.8,2
			c0.1,6.5-1.6,12.5-5.6,17.7c-4.6,6-10.6,9.8-18,10.8c-11.6,1.6-21.1-2.4-27.7-11.9C-3,180-3.8,170.8,0,161.5
			c4.1-9.7,11.6-15.2,21.9-17c1.4-0.2,2.8-0.2,4.1-0.2c1.2,0.1,2.1-0.3,3.1-1.2c13.6-13.6,27.2-27.2,40.8-40.8
			c0.4-0.4,0.7-0.8,1.4-1.5c-3.2-3.1-6.4-6.2-9.6-9.3c-6.4-6.4-12.9-12.8-19.3-19.2c-1.9-1.9-3.7-3.9-5.7-5.6
			c-0.6-0.5-2-0.6-2.9-0.4c-4.4,0.8-8.8,0.6-13.2-0.3c-6.3-1.3-11.9-4.2-16.5-8.7c-6-5.6-9.4-12.6-10.6-20.7
			C-7.2,32-6.6,25.9-4.8,21c1.9,1.8,3.6,3.6,5.4,5.4c4.2,4.1,8.2,8.4,12.7,12.2c5.1,4.3,13.1,3.9,18.3-0.4c7.9-6.5,8.3-16.6,1-23.8
			c-4.9-4.9-9.8-9.8-14.7-14.7c-0.2-0.2-0.4-0.5-1-1.2c3.7-0.5,6.9-1.3,10.3-1.5c8.1-0.4,15.5,2,21.9,6.8c5.5,4.1,9.4,9.4,11.8,15.9
			c2.2,6.1,2.6,12.4,1.5,18.8c-0.1,0.7,0.2,1.7,0.7,2.2C74.3,52,85.4,63.2,96.6,74.3c0.2,0.2,0.4,0.3,1.1,0.9c0.5-0.7,1-1.5,1.6-2.2
			c10.6-10.7,21.3-21.3,32-32c0.9-0.9,1.1-1.8,0.9-2.9c-1.8-11.1,0.7-21,8.2-29.5c7.4-8.3,16.7-12,27.6-11.6
			c3.1,0.1,6.2,0.9,9.3,1.4c0.1,0.2,0.2,0.4,0.3,0.7c-2,1.9-4.1,3.8-6.1,5.8c-3.3,3.2-6.5,6.5-9.8,9.7c-5.2,5.2-6.1,11.8-3.3,17.5
			c3.1,6.5,9.6,10.1,16.4,9.2c4.1-0.5,7.2-2.9,10-5.7c4.5-4.6,9-9.1,13.6-13.6c0.3-0.3,0.8-0.6,1.4-1.1c0.6,2.8,1.2,5.4,1.8,8
			C201.4,31.2,201.4,33.4,201.4,35.6z M29.5,186.7c0.4-0.3,1-0.6,1.4-1c2.9-2.8,5.7-5.7,8.6-8.5c0.7-0.7,0.8-1.3,0.6-2.2
			c-1.1-3.9-2.2-7.9-3.2-11.9c-0.3-1.1-0.8-1.4-1.7-1.7c-4-1-8-2.2-12-3.1c-0.5-0.1-1.4,0.2-1.8,0.6c-3,2.9-6,5.9-8.9,8.9
			c-0.4,0.4-0.6,1.3-0.5,1.9c1,4.1,2.1,8.2,3.3,12.3c0.1,0.4,0.5,0.8,0.8,0.9C20.4,184.3,24.8,185.4,29.5,186.7z M182.9,168.9
			c-0.1-0.2-0.3-0.7-0.6-1c-3-3-6-6.1-9.1-9c-0.4-0.4-1.3-0.6-1.8-0.5c-4.1,1-8.1,2.1-12.2,3.2c-0.6,0.2-1.2,0.8-1.4,1.3
			c-1.2,4.1-2.3,8.2-3.3,12.3c-0.1,0.5,0,1.2,0.3,1.6c3,3.1,6,6.1,9,9c0.5,0.5,1.5,0.7,2.2,0.5c3.1-0.7,6.2-1.7,9.3-2.3
			c2.7-0.5,4.3-1.6,4.8-4.6C180.7,176,181.9,172.6,182.9,168.9z"/>
	</g>
	<text transform="matrix(1 0 0 1 -6.0759 122.2987)" class="st5 st6 st7">WORK</text>
</g>
<g id="Layer_4" class="st0">
	<g class="st3">
		<path class="st8" d="M198.8,36.9c-0.4,1.9-0.9,3.7-1.3,5.6c-1.9,7.6-6.1,13.7-12.3,18.4c-7.9,6-16.9,8.3-26.8,6.7
			c-1.7-0.3-2.9-0.1-4.2,1.2c-7,7.2-14.2,14.3-21.3,21.4c-3.8,3.8-7.6,7.6-11.4,11.4c-0.2,0.2-0.4,0.4-0.8,0.9c2,1.9,4.1,3.8,6,5.8
			c12.1,12.1,24.2,24.2,36.3,36.3c0.8,0.8,1.6,1,2.6,1c8.7-0.2,15.9,3.2,21.8,9.6c7.7,8.5,9,22.8,3,32.6c-5.9,9.6-14.5,14.3-25.6,14
			C150,201.5,138,189,138,174.2c0-1.7-0.4-3-1.7-4.2c-11.3-11.2-22.6-22.5-33.9-33.7c-2.5-2.5-5.1-5.1-7.7-7.8
			c-2.4,2.4-4.8,4.7-7.1,7.1c-6.4,6.4-12.8,12.8-19.2,19.3c-5.4,5.4-10.7,10.7-16,16.1c-0.5,0.5-0.8,1.3-0.8,2
			c0.1,6.5-1.6,12.5-5.6,17.7c-4.6,6-10.6,9.8-18,10.8c-11.6,1.6-21.1-2.4-27.7-11.9c-5.7-8.3-6.6-17.4-2.7-26.7
			c4.1-9.7,11.6-15.2,21.9-17c1.4-0.2,2.8-0.2,4.1-0.2c1.2,0.1,2.1-0.3,3.1-1.2c13.6-13.6,27.2-27.2,40.8-40.8
			c0.4-0.4,0.7-0.8,1.4-1.5c-3.2-3.1-6.4-6.2-9.6-9.3c-6.4-6.4-12.9-12.8-19.3-19.2c-1.9-1.9-3.7-3.9-5.7-5.6
			c-0.6-0.5-2-0.6-2.9-0.4c-4.4,0.8-8.8,0.6-13.2-0.3c-6.3-1.3-11.9-4.2-16.5-8.7C-4.4,53.1-7.8,46.1-9,38
			c-0.7-4.8-0.2-10.8,1.7-15.7c1.9,1.8,3.6,3.6,5.4,5.4c4.2,4.1,8.2,8.4,12.7,12.2c5.1,4.3,13.1,3.9,18.3-0.4
			c7.9-6.5,8.3-16.6,1-23.8C25.1,10.8,20.3,5.9,15.4,1c-0.2-0.2-0.4-0.5-1-1.2c3.7-0.5,6.9-1.3,10.3-1.5c8.1-0.4,15.5,2,21.9,6.8
			C52,9.3,56,14.6,58.4,21.1c2.2,6.1,2.6,12.4,1.5,18.8c-0.1,0.7,0.2,1.7,0.7,2.2C71.7,53.3,82.9,64.4,94,75.6
			c0.2,0.2,0.4,0.3,1.1,0.9c0.5-0.7,1-1.5,1.6-2.2c10.6-10.7,21.3-21.3,32-32c0.9-0.9,1.1-1.8,0.9-2.9c-1.8-11.1,0.7-21,8.2-29.5
			c7.4-8.3,16.7-12,27.6-11.6c3.1,0.1,6.2,0.9,9.3,1.4c0.1,0.2,0.2,0.4,0.3,0.7c-2,1.9-4.1,3.8-6.1,5.8c-3.3,3.2-6.5,6.5-9.8,9.7
			c-5.2,5.2-6.1,11.8-3.3,17.5c3.1,6.5,9.6,10.1,16.4,9.2c4.1-0.5,7.2-2.9,10-5.7c4.5-4.6,9-9.1,13.6-13.6c0.3-0.3,0.8-0.6,1.4-1.1
			c0.6,2.8,1.2,5.4,1.8,8C198.8,32.5,198.8,34.7,198.8,36.9z M27,188c0.4-0.3,1-0.6,1.4-1c2.9-2.8,5.7-5.7,8.6-8.5
			c0.7-0.7,0.8-1.3,0.6-2.2c-1.1-3.9-2.2-7.9-3.2-11.9c-0.3-1.1-0.8-1.4-1.7-1.7c-4-1-8-2.2-12-3.1c-0.5-0.1-1.4,0.2-1.8,0.6
			c-3,2.9-6,5.9-8.9,8.9c-0.4,0.4-0.6,1.3-0.5,1.9c1,4.1,2.1,8.2,3.3,12.3c0.1,0.4,0.5,0.8,0.8,0.9C17.8,185.5,22.3,186.7,27,188z
			 M180.3,170.2c-0.1-0.2-0.3-0.7-0.6-1c-3-3-6-6.1-9.1-9c-0.4-0.4-1.3-0.6-1.8-0.5c-4.1,1-8.1,2.1-12.2,3.2
			c-0.6,0.2-1.2,0.8-1.4,1.3c-1.2,4.1-2.3,8.2-3.3,12.3c-0.1,0.5,0,1.2,0.3,1.6c3,3.1,6,6.1,9,9c0.5,0.5,1.5,0.7,2.2,0.5
			c3.1-0.7,6.2-1.7,9.3-2.3c2.7-0.5,4.3-1.6,4.8-4.6C178.2,177.2,179.3,173.8,180.3,170.2z"/>
	</g>
	<text transform="matrix(1 0 0 1 60.7967 46.5951)" class="st5 st6 st7">W</text>
	<text transform="matrix(1 0 0 1 141.5 123.8404)" class="st5 st6 st7">O</text>
	<text transform="matrix(1 0 0 1 73.7816 201.5951)" class="st5 st6 st7">R</text>
	<text transform="matrix(1 0 0 1 -11 123.8404)" class="st5 st6 st7">K</text>
</g>
<g id="Layer_5" class="st0">
	<g class="st3">
		<path class="st8" d="M202.3,36.4c-0.4,1.9-0.9,3.7-1.3,5.6c-1.9,7.6-6.1,13.7-12.3,18.4c-7.9,6-16.9,8.3-26.8,6.7
			c-1.7-0.3-2.9-0.1-4.2,1.2c-7,7.2-14.2,14.3-21.3,21.4c-3.8,3.8-7.6,7.6-11.4,11.4c-0.2,0.2-31.6,31.5-33.9,33.9
			c-6.4,6.4-12.8,12.8-19.2,19.3c-5.4,5.4-10.7,10.7-16,16.1c-0.5,0.5-0.8,1.3-0.8,2c0.1,6.5-1.6,12.5-5.6,17.7
			c-4.6,6-10.6,9.8-18,10.8c-11.6,1.6-21.1-2.4-27.7-11.9c-5.7-8.3-6.6-17.4-2.7-26.7c4.1-9.7,11.6-15.2,21.9-17
			c1.4-0.2,2.8-0.2,4.1-0.2c1.2,0.1,2.1-0.3,3.1-1.2c13.6-13.6,27.2-27.2,40.8-40.8c0.4-0.4,28.7-28.7,29.3-29.3
			c10.6-10.7,21.3-21.3,32-32c0.9-0.9,1.1-1.8,0.9-2.9c-1.8-11.1,0.7-21,8.2-29.5c7.4-8.3,16.7-12,27.6-11.6
			c3.1,0.1,6.2,0.9,9.3,1.4c0.1,0.2,0.2,0.4,0.3,0.7c-2,1.9-4.1,3.8-6.1,5.8c-3.3,3.2-6.5,6.5-9.8,9.7c-5.2,5.2-6.1,11.8-3.3,17.5
			c3.1,6.5,9.6,10.1,16.4,9.2c4.1-0.5,7.2-2.9,10-5.7c4.5-4.6,9-9.1,13.6-13.6c0.3-0.3,0.8-0.6,1.4-1.1c0.6,2.8,1.2,5.4,1.8,8
			C202.3,32,202.3,34.2,202.3,36.4z M30.5,187.5c0.4-0.3,1-0.6,1.4-1c2.9-2.8,5.7-5.7,8.6-8.5c0.7-0.7,0.8-1.3,0.6-2.2
			c-1.1-3.9-2.2-7.9-3.2-11.9c-0.3-1.1-0.8-1.4-1.7-1.7c-4-1-8-2.2-12-3.1c-0.5-0.1-1.4,0.2-1.8,0.6c-3,2.9-6,5.9-8.9,8.9
			c-0.4,0.4-0.6,1.3-0.5,1.9c1,4.1,2.1,8.2,3.3,12.3c0.1,0.4,0.5,0.8,0.8,0.9C21.3,185,25.8,186.2,30.5,187.5z"/>
	</g>
</g>
<g id="Layer_6" class="st0">
	<rect y="102.9" class="st2" width="191.5" height="43.7"/>
	<text transform="matrix(1 0 0 1 17.6724 140.0951)" class="st9 st6 st10 st11">WORK</text>
	<path class="st2" d="M14.1,74.9c1.3,0.9,2.8,1.6,4.2,2.4c2.3,1.3,3.2,3.4,2.6,5.5c-0.7,2.3-2.8,3.6-5.4,3.3
		c-1.4-0.1-2.9-0.4-4.8-0.7c0.5,1.5,0.7,2.8,1.4,3.9c1.5,2.4,3.1,4.7,4.8,7h158.9c0.2-3.3,0.2-6.5,0.2-9.8c0-0.6-0.3-1.3-0.7-1.8
		c-1.2-1.4-2.5-2.6-3.7-3.9c-1.8-2-2-4.3-0.6-6.1c1.4-1.8,4-2.3,6.2-1.2c1,0.5,2,1.1,3,1.5c0.3,0.1,0.8-0.1,1.3-0.2c0-1,0-2,0-3
		c-1.1-3.5-2.3-7-3.3-10.5c-0.3-1.1-0.8-1.9-1.9-2.3c-1.4-0.7-2.8-1.5-4.1-2.2c-2.2-1.3-3.2-3.4-2.6-5.5c0.7-2.3,2.7-3.6,5.4-3.3
		c1.4,0.1,2.9,0.4,4.8,0.7c-0.5-1.5-0.7-2.8-1.4-3.8c-2-3.2-4.2-6.2-6.4-9.3c-0.4-0.5-1.1-0.9-1.7-1.1c-1.7-0.4-3.5-0.7-5.3-1.1
		c-2.3-0.5-4-2.3-4-4.4c0-2.2,1.6-4.3,4-4.8c1.5-0.3,3.1-0.5,5-0.9c-1.1-1.3-1.8-2.5-2.8-3.4c-2.8-2.3-5.8-4.5-8.7-6.7
		c-0.5-0.4-1.2-0.5-1.8-0.5c-1.7,0.1-3.3,0.4-5,0.6c-2.7,0.4-4.9-0.8-5.7-3.1c-0.7-2.2,0.4-4.6,2.7-5.9c1.2-0.6,2.5-1.3,4.2-2.1
		c-1.5-0.9-2.6-1.8-3.9-2.3c-3.3-1.3-6.6-2.4-10-3.5c-0.7-0.2-1.7-0.1-2.5,0.2c-1.6,0.6-3,1.4-4.6,2.1c-2.3,1-4.6,0.5-5.9-1.2
		c-1.4-1.9-1.1-4.5,0.6-6.3c1-1,2.2-2,3.2-2.9c0-0.2-0.1-0.4-0.1-0.6c-1.3-0.4-2.6-1-3.9-1.1c-3.7-0.2-7.4-0.2-11.1-0.3
		c-0.6,0-1.3,0.3-1.7,0.7c-1.3,1.1-2.5,2.4-3.8,3.6c-1.9,1.8-4.3,2-6.1,0.7c-1.9-1.4-2.4-4.1-1.3-6.4c0.5-1,1.1-2,1.5-3
		c0.2-0.3,0.1-0.8,0.1-1.2c-1.1,0-2.2,0-3.4,0c-3.6,1.1-7.1,2.2-10.7,3.4c-0.8,0.3-1.6,0.9-2.1,1.7c-0.9,1.4-1.6,3-2.5,4.4
		c-1.3,2.1-3.4,3.1-5.4,2.4c-2.2-0.7-3.5-2.6-3.3-5c0.1-1.6,0.4-3.1,0.7-5.1C75.4-17.2,74-17,73-16.3c-3.2,2-6.2,4.2-9.3,6.4
		c-0.5,0.4-0.9,1.1-1.1,1.7c-0.4,1.7-0.7,3.4-1,5.1c-0.5,2.4-2.3,4.1-4.4,4.1c-2.2,0-4.2-1.6-4.7-4c-0.3-1.5-0.5-3-0.9-4.9
		c-1.1,0.8-2.3,1.4-3.1,2.3c-2.4,3-4.8,6.1-7.1,9.2C41.1,4.2,41,4.9,41,5.4c0.1,1.6,0.4,3.2,0.6,4.8c0.4,2.7-0.7,5-2.9,5.8
		c-2.4,0.8-4.8-0.3-6.1-2.8c-0.6-1.2-1.2-2.4-2-4c-0.9,1.4-1.8,2.5-2.3,3.7c-1.3,3.4-2.5,6.8-3.6,10.3c-0.2,0.7-0.1,1.5,0.1,2.2
		c0.6,1.5,1.4,2.9,2.1,4.4c1.1,2.5,0.7,4.9-1.1,6.2c-2,1.4-4.7,1.1-6.7-0.9c-0.9-0.9-1.7-1.9-2.6-2.9c-0.2,0-0.4,0.1-0.6,0.1
		c-0.4,1.4-1,2.7-1,4.1c-0.2,3.6-0.2,7.2-0.2,10.8c0,0.7,0.4,1.5,0.8,2c1,1.3,2.2,2.4,3.3,3.6c1.9,2,2.2,4.4,0.8,6.3
		c-1.4,1.9-4,2.4-6.4,1.3c-1-0.5-2-1.1-3-1.5c-0.3-0.2-0.8-0.1-1.2-0.1c0,1.1,0,2.2,0,3.4c1.1,3.6,2.2,7.1,3.4,10.7
		C12.7,73.7,13.4,74.4,14.1,74.9z M159.4,63.5c1.8,0,3.3,1.5,3.4,3.3c0,1.8-1.4,3.4-3.2,3.4c-1.8,0.1-3.5-1.6-3.5-3.4
		C156.1,65.1,157.6,63.5,159.4,63.5z M95.4-0.5c1.8,0,3.3,1.6,3.3,3.4c0,1.8-1.6,3.3-3.3,3.4c-1.7,0-3.4-1.6-3.4-3.3
		C91.9,1,93.5-0.6,95.4-0.5z M95.5,50.4c8.9,0,16.3,7.6,16.3,16.6c0,8.9-7.5,16.4-16.4,16.4c-9,0-16.6-7.5-16.5-16.3
		C78.8,57.8,86.2,50.4,95.5,50.4z M31.3,63.5c1.7,0.1,3.3,1.7,3.3,3.4c0,1.8-1.6,3.3-3.4,3.3c-1.8,0-3.4-1.6-3.3-3.5
		C27.9,65,29.5,63.5,31.3,63.5z"/>
</g>
<g id="Layer_7" class="st0">
	<rect x="-7.2" y="128.6" class="st12" width="218.5" height="43.7"/>
	<path class="st12" d="M20.5,101.2c1.3,0.9,2.8,1.6,4.2,2.4c2.3,1.3,3.2,3.4,2.6,5.5c-0.7,2.3-2.8,3.6-5.4,3.3
		c-1.4-0.1-2.9-0.4-4.8-0.7c0.5,1.5,0.7,2.8,1.4,3.9c1.5,2.4,3.1,4.7,4.8,7h158.9c0.2-3.3,0.2-6.5,0.2-9.8c0-0.6-0.3-1.3-0.7-1.8
		c-1.2-1.4-2.5-2.6-3.7-3.9c-1.8-2-2-4.3-0.6-6.1c1.4-1.8,4-2.3,6.2-1.2c1,0.5,2,1.1,3,1.5c0.3,0.1,0.8-0.1,1.3-0.2c0-1,0-2,0-3
		c-1.1-3.5-2.3-7-3.3-10.5c-0.3-1.1-0.8-1.9-1.9-2.3c-1.4-0.7-2.8-1.5-4.1-2.2c-2.2-1.3-3.2-3.4-2.6-5.5c0.7-2.3,2.7-3.6,5.4-3.3
		c1.4,0.1,2.9,0.4,4.8,0.7c-0.5-1.5-0.7-2.8-1.4-3.8c-2-3.2-4.2-6.2-6.4-9.3c-0.4-0.5-1.1-0.9-1.7-1.1c-1.7-0.4-3.5-0.7-5.3-1.1
		c-2.3-0.5-4-2.3-4-4.4c0-2.2,1.6-4.3,4-4.8c1.5-0.3,3.1-0.5,5-0.9c-1.1-1.3-1.8-2.5-2.8-3.4c-2.8-2.3-5.8-4.5-8.7-6.7
		c-0.5-0.4-1.2-0.5-1.8-0.5c-1.7,0.1-3.3,0.4-5,0.6c-2.7,0.4-4.9-0.8-5.7-3.1c-0.7-2.2,0.4-4.6,2.7-5.9c1.2-0.6,2.5-1.3,4.2-2.1
		c-1.5-0.9-2.6-1.8-3.9-2.3c-3.3-1.3-6.6-2.4-10-3.5c-0.7-0.2-1.7-0.1-2.5,0.2c-1.6,0.6-3,1.4-4.6,2.1c-2.3,1-4.6,0.5-5.9-1.2
		c-1.4-1.9-1.1-4.5,0.6-6.3c1-1,2.2-2,3.2-2.9c0-0.2-0.1-0.4-0.1-0.6c-1.3-0.4-2.6-1-3.9-1.1c-3.7-0.2-7.4-0.2-11.1-0.3
		c-0.6,0-1.3,0.3-1.7,0.7c-1.3,1.1-2.5,2.4-3.8,3.6c-1.9,1.8-4.3,2-6.1,0.7c-1.9-1.4-2.4-4.1-1.3-6.4c0.5-1,1.1-2,1.5-3
		c0.2-0.3,0.1-0.8,0.1-1.2c-1.1,0-2.2,0-3.4,0C102.8,8,99.2,9,95.7,10.3c-0.8,0.3-1.6,0.9-2.1,1.7c-0.9,1.4-1.6,3-2.5,4.4
		c-1.3,2.1-3.4,3.1-5.4,2.4c-2.2-0.7-3.5-2.6-3.3-5c0.1-1.6,0.4-3.1,0.7-5.1c-1.4,0.5-2.8,0.7-3.8,1.4c-3.2,2-6.2,4.2-9.3,6.4
		c-0.5,0.4-0.9,1.1-1.1,1.7c-0.4,1.7-0.7,3.4-1,5.1c-0.5,2.4-2.3,4.1-4.4,4.1c-2.2,0-4.2-1.6-4.7-4c-0.3-1.5-0.5-3-0.9-4.9
		c-1.1,0.8-2.3,1.4-3.1,2.3c-2.4,3-4.8,6.1-7.1,9.2c-0.3,0.4-0.5,1.1-0.4,1.7c0.1,1.6,0.4,3.2,0.6,4.8c0.4,2.7-0.7,5-2.9,5.8
		c-2.4,0.8-4.8-0.3-6.1-2.8c-0.6-1.2-1.2-2.4-2-4c-0.9,1.4-1.8,2.5-2.3,3.7c-1.3,3.4-2.5,6.8-3.6,10.3c-0.2,0.7-0.1,1.5,0.1,2.2
		c0.6,1.5,1.4,2.9,2.1,4.4c1.1,2.5,0.7,4.9-1.1,6.2c-2,1.4-4.7,1.1-6.7-0.9c-0.9-0.9-1.7-1.9-2.6-2.9c-0.2,0-0.4,0.1-0.6,0.1
		c-0.4,1.4-1,2.7-1,4.1C21,66.3,21,69.9,21,73.5c0,0.7,0.4,1.5,0.8,2c1,1.3,2.2,2.4,3.3,3.6c1.9,2,2.2,4.4,0.8,6.3
		c-1.4,1.9-4,2.4-6.4,1.3c-1-0.5-2-1.1-3-1.5c-0.3-0.2-0.8-0.1-1.2-0.1c0,1.1,0,2.2,0,3.4c1.1,3.6,2.2,7.1,3.4,10.7
		C19.1,99.9,19.8,100.7,20.5,101.2z M165.7,89.8c1.8,0,3.3,1.5,3.4,3.3c0,1.8-1.4,3.4-3.2,3.4c-1.8,0.1-3.5-1.6-3.5-3.4
		C162.4,91.4,164,89.8,165.7,89.8z M101.7,25.7c1.8,0,3.3,1.6,3.3,3.4c0,1.8-1.6,3.3-3.3,3.4c-1.7,0-3.4-1.6-3.4-3.3
		C98.3,27.3,99.9,25.7,101.7,25.7z M101.9,76.6c8.9,0,16.3,7.6,16.3,16.6c0,8.9-7.5,16.4-16.4,16.4c-9,0-16.6-7.5-16.5-16.3
		C85.2,84,92.6,76.6,101.9,76.6z M37.7,89.8c1.7,0.1,3.3,1.7,3.3,3.4c0,1.8-1.6,3.3-3.4,3.3c-1.8,0-3.4-1.6-3.3-3.5
		C34.3,91.2,35.9,89.7,37.7,89.8z"/>
	<text transform="matrix(1 0 0 1 21.3266 165.8037)" class="st13 st6 st10 st11">WORK</text>
</g>
<g id="Layer_8" class="st0">
	<path class="st2" d="M-20.8,97c1.9,1.3,4.1,2.3,6.1,3.4c3.3,1.9,4.6,4.9,3.7,7.8c-1.1,3.3-4,5.2-7.7,4.8c-2.1-0.2-4.1-0.6-6.9-1.1
		c0.8,2.1,1.1,4,2,5.5c2.2,3.4,4.5,6.7,6.8,10h228.2c0.2-4.7,0.3-9.4,0.3-14c0-0.9-0.4-1.9-1-2.5c-1.7-2-3.6-3.7-5.3-5.7
		c-2.5-2.8-2.8-6.2-0.8-8.8c2-2.6,5.7-3.4,9-1.8c1.4,0.7,2.8,1.6,4.3,2.2c0.5,0.2,1.2-0.2,1.8-0.3c0-1.5,0-2.9,0-4.4
		c-1.6-5-3.2-10.1-4.7-15.1c-0.5-1.6-1.2-2.7-2.7-3.4c-2-0.9-4-2.1-5.9-3.2c-3.2-1.9-4.6-4.9-3.7-7.8c1-3.3,3.9-5.2,7.7-4.8
		c2.1,0.2,4.1,0.6,6.9,1.1c-0.7-2.1-1-4-2-5.5c-2.9-4.5-6.1-8.9-9.2-13.3c-0.5-0.7-1.6-1.3-2.5-1.5c-2.5-0.6-5.1-1-7.6-1.5
		c-3.3-0.7-5.7-3.3-5.8-6.3c-0.1-3.2,2.3-6.1,5.7-6.9c2.2-0.5,4.4-0.8,7.2-1.2c-1.5-1.9-2.6-3.6-4.1-4.8c-4.1-3.3-8.3-6.4-12.5-9.6
		c-0.7-0.5-1.8-0.8-2.6-0.7c-2.4,0.2-4.8,0.5-7.2,0.9C173,9,169.8,7.3,168.8,4c-1.1-3.2,0.5-6.6,3.9-8.4c1.8-0.9,3.6-1.8,6-3
		c-2.1-1.3-3.8-2.6-5.6-3.4c-4.7-1.9-9.5-3.5-14.3-5.1c-1.1-0.3-2.5-0.2-3.6,0.2c-2.3,0.8-4.4,2-6.6,3c-3.3,1.5-6.7,0.7-8.5-1.8
		c-2-2.7-1.6-6.5,0.9-9.1c1.5-1.5,3.1-2.8,4.6-4.2c-0.1-0.3-0.1-0.5-0.2-0.8c-1.9-0.5-3.7-1.4-5.6-1.5c-5.3-0.3-10.6-0.3-16-0.4
		c-0.8,0-1.8,0.5-2.5,1.1c-1.9,1.6-3.6,3.4-5.5,5.1c-2.8,2.5-6.2,2.9-8.8,1c-2.7-2-3.5-5.8-1.8-9.1c0.7-1.4,1.5-2.8,2.2-4.3
		c0.2-0.5,0.1-1.2,0.1-1.7c-1.6,0-3.2,0-4.8,0c-5.1,1.6-10.3,3.2-15.3,4.9c-1.1,0.4-2.3,1.4-3,2.4c-1.3,2-2.3,4.2-3.5,6.3
		c-1.8,3.1-4.9,4.4-7.7,3.5c-3.2-1-5-3.7-4.8-7.2c0.1-2.2,0.6-4.4,1-7.4c-2.1,0.7-4,1-5.5,2c-4.5,2.9-8.9,6.1-13.3,9.2
		c-0.7,0.5-1.3,1.6-1.5,2.5c-0.6,2.4-1,4.9-1.5,7.3C46.8-11.4,44.1-9,41.1-9c-3.2,0-6-2.3-6.8-5.8c-0.5-2.1-0.8-4.3-1.2-7
		c-1.6,1.2-3.3,2-4.4,3.3c-3.5,4.3-6.8,8.8-10.1,13.2c-0.5,0.6-0.6,1.6-0.6,2.4c0.2,2.3,0.5,4.6,0.9,6.9c0.6,3.9-1,7.2-4.2,8.3
		c-3.4,1.2-6.8-0.4-8.8-4.1C4.9,6.7,4.1,5,2.9,2.7c-1.3,2-2.6,3.6-3.3,5.3c-1.9,4.9-3.6,9.8-5.2,14.8c-0.3,0.9-0.2,2.2,0.2,3.1
		c0.8,2.2,2,4.2,2.9,6.3c1.6,3.6,1,7.1-1.6,8.9c-2.9,2.1-6.7,1.6-9.6-1.4c-1.3-1.3-2.5-2.7-3.7-4.1c-0.3,0-0.6,0.1-0.8,0.1
		c-0.5,1.9-1.4,3.9-1.5,5.8C-20,47-20,52.1-20,57.3c0,1,0.5,2.2,1.2,2.9c1.5,1.8,3.2,3.4,4.8,5.1c2.7,2.9,3.1,6.3,1.2,9
		c-1.9,2.7-5.8,3.5-9.1,1.8c-1.4-0.7-2.8-1.5-4.3-2.2c-0.5-0.2-1.2-0.1-1.7-0.1c0,1.6,0,3.2,0,4.8c1.6,5.1,3.2,10.3,4.9,15.3
		C-22.8,95.2-21.8,96.4-20.8,97z M187.8,80.7c2.5,0,4.8,2.2,4.8,4.7c0.1,2.6-2.1,4.8-4.6,5c-2.6,0.1-5-2.3-5-4.9
		C183.1,83,185.3,80.7,187.8,80.7z M95.9-11.3c2.6,0,4.8,2.3,4.8,4.8c0,2.5-2.3,4.8-4.8,4.8c-2.5,0-4.8-2.2-4.9-4.8
		C91-9.1,93.3-11.4,95.9-11.3z M96.1,61.8c12.7,0,23.4,10.9,23.4,23.8c0,12.8-10.8,23.6-23.6,23.6c-12.9,0-23.8-10.7-23.7-23.4
		C72.2,72.4,82.8,61.8,96.1,61.8z M3.9,80.7c2.5,0.1,4.8,2.4,4.7,4.9c0,2.5-2.3,4.8-4.8,4.8c-2.6,0-4.9-2.4-4.8-5
		C-0.9,82.8,1.4,80.6,3.9,80.7z"/>
	<text transform="matrix(1 0 0 1 23.3725 163.2405)" class="st2 st6 st10 st14">WORK</text>
	<rect x="-29" y="150.4" class="st2" width="50" height="2"/>
	<rect x="171" y="150.4" class="st2" width="50" height="2"/>
</g>
<g id="Layer_9" class="st0">
	<rect x="-29" y="34.6" class="st2" width="250" height="2"/>
	<path class="st2" d="M21.5,133.6c1.3,0.9,2.7,1.5,4,2.2c2.1,1.3,3,3.2,2.4,5.1c-0.7,2.2-2.6,3.4-5.1,3.1c-1.4-0.1-2.7-0.4-4.5-0.7
		c0.5,1.4,0.7,2.6,1.3,3.6c1.4,2.2,2.9,4.4,4.5,6.5h149.4c0.1-3.1,0.2-6.1,0.2-9.2c0-0.6-0.3-1.2-0.6-1.7c-1.1-1.3-2.3-2.4-3.5-3.7
		c-1.7-1.9-1.9-4.1-0.5-5.8c1.3-1.7,3.7-2.2,5.9-1.2c0.9,0.5,1.9,1,2.8,1.4c0.3,0.1,0.8-0.1,1.2-0.2c0-1,0-1.9,0-2.9
		c-1-3.3-2.1-6.6-3.1-9.9c-0.3-1-0.8-1.7-1.8-2.2c-1.3-0.6-2.6-1.4-3.9-2.1c-2.1-1.2-3-3.2-2.4-5.1c0.7-2.2,2.6-3.4,5-3.1
		c1.4,0.1,2.7,0.4,4.5,0.7c-0.5-1.4-0.7-2.6-1.3-3.6c-1.9-3-4-5.9-6-8.7c-0.3-0.5-1-0.9-1.6-1c-1.6-0.4-3.3-0.6-5-1
		c-2.2-0.5-3.7-2.2-3.8-4.1c0-2.1,1.5-4,3.7-4.5c1.4-0.3,2.9-0.5,4.7-0.8c-1-1.2-1.7-2.4-2.7-3.2c-2.7-2.2-5.4-4.2-8.2-6.3
		c-0.5-0.3-1.2-0.5-1.7-0.5c-1.6,0.1-3.1,0.3-4.7,0.6c-2.6,0.4-4.6-0.8-5.3-2.9c-0.7-2.1,0.3-4.3,2.6-5.5c1.2-0.6,2.3-1.2,3.9-2
		c-1.4-0.9-2.5-1.7-3.7-2.2c-3.1-1.2-6.2-2.3-9.4-3.3c-0.7-0.2-1.6-0.1-2.3,0.1c-1.5,0.5-2.9,1.3-4.3,2c-2.2,1-4.4,0.5-5.6-1.1
		c-1.3-1.7-1.1-4.2,0.6-5.9c1-1,2-1.8,3-2.8c0-0.2-0.1-0.4-0.1-0.5c-1.2-0.3-2.4-0.9-3.7-1c-3.5-0.2-7-0.2-10.4-0.2
		c-0.6,0-1.2,0.3-1.6,0.7c-1.2,1.1-2.4,2.2-3.6,3.3c-1.8,1.7-4.1,1.9-5.8,0.7c-1.7-1.3-2.3-3.8-1.2-6c0.5-0.9,1-1.9,1.4-2.8
		c0.1-0.3,0.1-0.8,0.1-1.1c-1.1,0-2.1,0-3.2,0c-3.4,1.1-6.7,2.1-10,3.2c-0.7,0.3-1.5,0.9-2,1.6c-0.9,1.3-1.5,2.8-2.3,4.1
		c-1.2,2-3.2,2.9-5.1,2.3c-2.1-0.7-3.3-2.4-3.1-4.7c0.1-1.5,0.4-2.9,0.7-4.8c-1.4,0.5-2.6,0.7-3.6,1.3c-3,1.9-5.8,4-8.7,6
		c-0.5,0.3-0.9,1-1,1.6c-0.4,1.6-0.6,3.2-1,4.8c-0.5,2.3-2.2,3.9-4.2,3.9c-2.1,0-4-1.5-4.5-3.8c-0.3-1.4-0.5-2.8-0.8-4.6
		c-1.1,0.8-2.2,1.3-2.9,2.2c-2.3,2.8-4.5,5.7-6.6,8.7c-0.3,0.4-0.4,1.1-0.4,1.6c0.1,1.5,0.3,3,0.6,4.5c0.4,2.6-0.7,4.7-2.7,5.4
		c-2.2,0.8-4.5-0.3-5.7-2.7c-0.6-1.1-1.1-2.2-1.9-3.7c-0.8,1.3-1.7,2.3-2.2,3.5c-1.2,3.2-2.4,6.4-3.4,9.7c-0.2,0.6-0.1,1.4,0.1,2.1
		c0.6,1.4,1.3,2.8,1.9,4.2c1.1,2.4,0.7,4.6-1,5.9c-1.9,1.4-4.4,1-6.3-0.9c-0.9-0.9-1.6-1.8-2.4-2.7c-0.2,0-0.4,0.1-0.5,0.1
		c-0.3,1.3-0.9,2.5-1,3.8c-0.2,3.4-0.2,6.8-0.2,10.1c0,0.6,0.3,1.4,0.8,1.9c1,1.2,2.1,2.2,3.1,3.4c1.8,1.9,2.1,4.1,0.8,5.9
		c-1.3,1.8-3.8,2.3-6,1.2c-0.9-0.5-1.9-1-2.8-1.4c-0.3-0.1-0.8-0.1-1.1-0.1c0,1.1,0,2.1,0,3.2c1.1,3.4,2.1,6.7,3.2,10
		C20.2,132.4,20.8,133.1,21.5,133.6z M158,122.9c1.7,0,3.1,1.4,3.2,3.1c0,1.7-1.4,3.2-3,3.2c-1.7,0.1-3.3-1.5-3.3-3.2
		C154.9,124.4,156.4,122.9,158,122.9z M97.9,62.7c1.7,0,3.1,1.5,3.1,3.2c0,1.6-1.5,3.1-3.1,3.2c-1.6,0-3.2-1.5-3.2-3.1
		C94.6,64.1,96.1,62.6,97.9,62.7z M98,110.5c8.3,0,15.3,7.1,15.3,15.6c0,8.4-7,15.4-15.5,15.4c-8.5,0-15.6-7-15.5-15.3
		C82.4,117.5,89.3,110.5,98,110.5z M37.7,122.9c1.6,0,3.1,1.6,3.1,3.2c0,1.6-1.5,3.1-3.2,3.1c-1.7,0-3.2-1.5-3.1-3.3
		C34.5,124.2,36,122.8,37.7,122.9z"/>
	<text transform="matrix(1 0 0 1 -281.6275 206.2405)" class="st2 st6 st10 st14">WORK</text>
	<rect x="-334" y="193.4" class="st2" width="50" height="2"/>
	<rect x="-134" y="193.4" class="st2" width="50" height="2"/>
	<rect x="-320" y="96.6" class="st2" width="248.8" height="2"/>
	<rect x="-29" y="207.9" class="st2" width="250" height="2"/>
	<text transform="matrix(1 0 0 1 25.7058 201.2404)" class="st2 st6 st10 st14">WORK</text>
	<rect x="-29" y="163.9" class="st2" width="250" height="2"/>
</g>
<g id="Layer_10" class="st0">
	<g class="st3">
		<path class="st15" d="M-25.7-14.4V96.8h45.7c0-2.1,0.1-4.1,0.1-6.2c0-1.3,0-2.5-0.1-3.8c0-0.9-0.4-1.9-0.9-2.7
			c-0.2-0.3-0.5-0.5-0.8-0.7c-4.4-2.7-9-5.3-13.5-7.8c-2.8-1.6-4.2-3-4.3-5c-0.2-1.2,0.1-2.5,0.8-4.1c2.1-5,4.2-10.1,6.3-15.1
			c1.9-4.5,4-5.5,8.6-4.2c5,1.4,10.1,2.6,15,4.2c0.2,0.1,0.4,0.1,0.6,0.2c0.9,0.1,2.1-0.3,2.9-0.8c0.2-0.2,0.4-0.4,0.6-0.6
			c4.1-4.4,8.1-9,12.7-12.9c2.1-1.8,13.3-11.2,28.3-14.8c0.9-0.2,1.7-0.4,2.6-0.6v0.1l0-0.1c0.9,0,1.6,0.7,1.6,1.5v8.5v0v8.8
			c0,0.9-0.7,1.6-1.6,1.6h-0.1c-22.2,7-38.5,27.1-39.9,51.2c-0.1,1.1-0.1,2.1-0.1,3.2c0,0.1,0,0.1,0,0.2h114.1
			c0-25.5-16.8-47.2-40-54.4H113c-0.9,0-1.6-0.7-1.6-1.6v-8.8v0v-8.5c0-0.8,0.7-1.5,1.6-1.5v0c0,0,0,0,0,0c0,0,0,0,0,0v0
			c16.3,3.1,28.6,13.5,30.8,15.4c4.6,3.9,8.6,8.4,12.7,12.9c1.3,1.4,2.2,2,4.2,1.3c5-1.6,10-2.8,15-4.2c4.7-1.3,6.8-0.2,8.6,4.2
			c2.1,5,4.2,10,6.3,15.1c1.7,4,0.8,6.5-2.9,8.6c-4.7,2.7-9.5,5.3-14.2,8.2c-1,0.6-1.7,2.3-1.7,3.6c-0.1,3.3-0.2,6.6-0.2,9.8h90.6
			V-14.4H-25.7z M105.3,77.7H86.7V0h18.7V77.7z"/>
		<rect x="86.7" class="st8" width="18.7" height="77.7"/>
		<path class="st8" d="M39,93.4c1.3-24.1,17.7-44.3,39.9-51.2H79c0.9,0,1.6-0.7,1.6-1.6v-8.8v0v-8.5c0-0.9-0.7-1.5-1.6-1.5l0,0.1
			v-0.1c-0.9,0.2-1.7,0.4-2.6,0.6c-15,3.7-26.1,13-28.3,14.8c-4.6,3.9-8.6,8.4-12.7,12.9c-0.2,0.2-0.4,0.5-0.6,0.6
			c-0.8,0.6-2,1-2.9,0.8c-0.2,0-0.4-0.1-0.6-0.2c-5-1.6-10-2.8-15-4.2c-4.7-1.3-6.8-0.2-8.6,4.2c-2.1,5-4.2,10-6.3,15.1
			c-0.7,1.6-0.9,3-0.8,4.1c0.2,2,1.5,3.4,4.3,5c4.5,2.6,9.1,5.1,13.5,7.8c0.3,0.2,0.5,0.4,0.8,0.7c0.5,0.8,0.9,1.9,0.9,2.7
			c0,1.3,0.1,2.5,0.1,3.8c0,2.1-0.1,4.1-0.1,6.2h18.9c0-0.1,0-0.1,0-0.2C38.9,95.5,39,94.5,39,93.4z"/>
		<path class="st8" d="M173.6,83.4c4.6-2.9,9.4-5.4,14.2-8.2c3.8-2.2,4.6-4.6,2.9-8.6c-2.1-5-4.2-10.1-6.3-15.1
			c-1.9-4.5-4-5.5-8.6-4.2c-5,1.4-10.1,2.6-15,4.2c-2,0.6-2.9,0.1-4.2-1.3c-4.1-4.4-8.1-9-12.7-12.9c-2.2-1.9-14.6-12.2-30.8-15.4v0
			c0,0,0,0,0,0c0,0,0,0,0,0v0c-0.9,0-1.6,0.7-1.6,1.5v8.5v0v8.8c0,0.9,0.7,1.6,1.6,1.6h0.1c23.2,7.3,39.9,28.9,40,54.4h18.7
			c0-3.3,0.1-6.6,0.2-9.8C172,85.7,172.7,84,173.6,83.4z"/>
	</g>
	<rect y="103.9" class="st2" width="191.5" height="43.7"/>
	<text transform="matrix(1 0 0 1 17.6724 141.0951)" class="st16 st6 st10 st11">WORK</text>
</g>
<g id="Layer_11">
	<path class="st15" d="M-25.7-14.4V96.8h45.7c0-2.1,0.1-4.1,0.1-6.2c0-1.3,0-2.5-0.1-3.8c0-0.9-0.4-1.9-0.9-2.7
		c-0.2-0.3-0.5-0.5-0.8-0.7c-4.4-2.7-9-5.3-13.5-7.8c-2.8-1.6-4.2-3-4.3-5c-0.2-1.2,0.1-2.5,0.8-4.1c2.1-5,4.2-10.1,6.3-15.1
		c1.9-4.5,4-5.5,8.6-4.2c5,1.4,10.1,2.6,15,4.2c0.2,0.1,0.4,0.1,0.6,0.2c0.9,0.1,2.1-0.3,2.9-0.8c0.2-0.2,0.4-0.4,0.6-0.6
		c4.1-4.4,8.1-9,12.7-12.9c2.1-1.8,13.3-11.2,28.3-14.8c0.9-0.2,1.7-0.4,2.6-0.6v0.1l0-0.1c0.9,0,1.6,0.7,1.6,1.5v8.5v0v8.8
		c0,0.9-0.7,1.6-1.6,1.6h-0.1c-22.2,7-38.5,27.1-39.9,51.2c-0.1,1.1-0.1,2.1-0.1,3.2c0,0.1,0,0.1,0,0.2h114.1
		c0-25.5-16.8-47.2-40-54.4H113c-0.9,0-1.6-0.7-1.6-1.6v-8.8v0v-8.5c0-0.8,0.7-1.5,1.6-1.5v0c0,0,0,0,0,0c0,0,0,0,0,0v0
		c16.3,3.1,28.6,13.5,30.8,15.4c4.6,3.9,8.6,8.4,12.7,12.9c1.3,1.4,2.2,2,4.2,1.3c5-1.6,10-2.8,15-4.2c4.7-1.3,6.8-0.2,8.6,4.2
		c2.1,5,4.2,10,6.3,15.1c1.7,4,0.8,6.5-2.9,8.6c-4.7,2.7-9.5,5.3-14.2,8.2c-1,0.6-1.7,2.3-1.7,3.6c-0.1,3.3-0.2,6.6-0.2,9.8h90.6
		V-14.4H-25.7z M105.3,77.7H86.7V0h18.7V77.7z"/>
	<path class="st8" d="M39,93.4c1.3-24.1,17.7-44.3,39.9-51.2H79c0.9,0,1.6-0.7,1.6-1.6v-8.8v0v-8.5c0-0.9-0.7-1.5-1.6-1.5l0,0.1
		v-0.1c-0.9,0.2-1.7,0.4-2.6,0.6c-15,3.7-26.1,13-28.3,14.8c-4.6,3.9-8.6,8.4-12.7,12.9c-0.2,0.2-0.4,0.5-0.6,0.6
		c-0.8,0.6-2,1-2.9,0.8c-0.2,0-0.4-0.1-0.6-0.2c-5-1.6-10-2.8-15-4.2c-4.7-1.3-6.8-0.2-8.6,4.2c-2.1,5-4.2,10-6.3,15.1
		c-0.7,1.6-0.9,3-0.8,4.1c0.2,2,1.5,3.4,4.3,5c4.5,2.6,9.1,5.1,13.5,7.8c0.3,0.2,0.5,0.4,0.8,0.7c0.5,0.8,0.9,1.9,0.9,2.7
		c0,1.3,0.1,2.5,0.1,3.8c0,2.1-0.1,4.1-0.1,6.2h18.9c0-0.1,0-0.1,0-0.2C38.9,95.5,39,94.5,39,93.4z"/>
	<path class="st8" d="M173.6,83.4c4.6-2.9,9.4-5.4,14.2-8.2c3.8-2.2,4.6-4.6,2.9-8.6c-2.1-5-4.2-10.1-6.3-15.1
		c-1.9-4.5-4-5.5-8.6-4.2c-5,1.4-10.1,2.6-15,4.2c-2,0.6-2.9,0.1-4.2-1.3c-4.1-4.4-8.1-9-12.7-12.9c-2.2-1.9-14.6-12.2-30.8-15.4v0
		c0,0,0,0,0,0c0,0,0,0,0,0v0c-0.9,0-1.6,0.7-1.6,1.5v8.5v0v8.8c0,0.9,0.7,1.6,1.6,1.6h0.1c23.2,7.3,39.9,28.9,40,54.4h18.7
		c0-3.3,0.1-6.6,0.2-9.8C172,85.7,172.7,84,173.6,83.4z"/>
	<rect y="103.9" class="st8" width="191.5" height="43.7"/>
	<g>
		<path class="st17" d="M17.9,111.5h4.6c0.5,0,0.9,0.1,1.2,0.3s0.5,0.5,0.6,0.9l5,17.7c0.1,0.4,0.2,0.9,0.3,1.4
			c0.1,0.5,0.2,1.1,0.3,1.6c0.1-0.6,0.2-1.1,0.4-1.6s0.3-1,0.4-1.4l5.8-17.7c0.1-0.3,0.3-0.6,0.6-0.9c0.3-0.3,0.7-0.4,1.2-0.4h1.6
			c0.5,0,0.9,0.1,1.2,0.3c0.3,0.2,0.5,0.5,0.7,0.9l5.8,17.7c0.3,0.9,0.6,1.8,0.8,2.9c0.1-0.5,0.2-1,0.3-1.5c0.1-0.5,0.2-0.9,0.3-1.4
			l5-17.7c0.1-0.3,0.3-0.6,0.6-0.9s0.7-0.4,1.2-0.4h4.3l-9.2,29.6h-5l-6.5-20.3c-0.1-0.3-0.2-0.5-0.3-0.8c-0.1-0.3-0.2-0.6-0.3-1
			c-0.1,0.3-0.2,0.7-0.3,1c-0.1,0.3-0.2,0.6-0.3,0.8l-6.5,20.3h-5L17.9,111.5z"/>
		<path class="st17" d="M98.7,126.3c0,2.2-0.4,4.2-1.1,6c-0.7,1.9-1.7,3.5-3.1,4.8c-1.3,1.4-2.9,2.4-4.7,3.2
			c-1.8,0.8-3.9,1.1-6.1,1.1c-2.2,0-4.3-0.4-6.1-1.1c-1.9-0.8-3.4-1.8-4.8-3.2c-1.3-1.4-2.3-3-3.1-4.8c-0.7-1.9-1.1-3.9-1.1-6
			s0.4-4.2,1.1-6c0.7-1.9,1.7-3.5,3.1-4.8c1.3-1.4,2.9-2.4,4.8-3.2c1.9-0.8,3.9-1.1,6.1-1.1c2.2,0,4.3,0.4,6.1,1.1
			c1.8,0.8,3.4,1.8,4.7,3.2c1.3,1.3,2.3,2.9,3.1,4.8C98.3,122.1,98.7,124.1,98.7,126.3z M93,126.3c0-1.6-0.2-3.1-0.6-4.4
			c-0.4-1.3-1-2.4-1.9-3.3c-0.8-0.9-1.8-1.6-2.9-2.1s-2.5-0.7-3.9-0.7s-2.8,0.2-3.9,0.7s-2.1,1.2-3,2.1c-0.8,0.9-1.4,2-1.9,3.3
			c-0.4,1.3-0.7,2.8-0.7,4.4s0.2,3.1,0.7,4.4c0.4,1.3,1.1,2.4,1.9,3.3c0.8,0.9,1.8,1.6,3,2.1c1.2,0.5,2.5,0.7,3.9,0.7
			s2.8-0.2,3.9-0.7c1.2-0.5,2.1-1.2,2.9-2.1c0.8-0.9,1.4-2,1.9-3.3C92.8,129.4,93,127.9,93,126.3z"/>
		<path class="st17" d="M116.5,129.5v11.6H111v-29.6h9c2,0,3.8,0.2,5.2,0.6c1.4,0.4,2.6,1,3.5,1.8c0.9,0.8,1.6,1.7,2,2.7
			s0.6,2.2,0.6,3.5c0,1-0.1,1.9-0.4,2.8c-0.3,0.9-0.7,1.7-1.3,2.4c-0.6,0.7-1.2,1.4-2.1,1.9c-0.8,0.5-1.7,1-2.8,1.3
			c0.7,0.4,1.3,1,1.8,1.7l7.4,10.9h-5c-0.5,0-0.9-0.1-1.2-0.3s-0.6-0.5-0.9-0.8l-6.2-9.5c-0.2-0.4-0.5-0.6-0.8-0.8s-0.7-0.2-1.2-0.2
			H116.5z M116.5,125.6h3.4c1,0,1.9-0.1,2.7-0.4c0.8-0.3,1.4-0.6,1.9-1.1c0.5-0.5,0.9-1,1.1-1.6s0.4-1.3,0.4-2.1
			c0-1.5-0.5-2.7-1.5-3.5c-1-0.8-2.5-1.2-4.5-1.2h-3.5V125.6z"/>
		<path class="st17" d="M150.7,123.9h1.3c0.5,0,0.9-0.1,1.3-0.2c0.3-0.1,0.6-0.4,0.9-0.7l8.2-10.4c0.3-0.4,0.7-0.7,1.1-0.9
			s0.9-0.3,1.4-0.3h4.8l-10,12.3c-0.3,0.4-0.6,0.7-0.9,1s-0.6,0.5-0.9,0.6c0.5,0.2,0.9,0.4,1.2,0.7c0.4,0.3,0.7,0.7,1.1,1.1
			l10.3,13.9h-4.9c-0.7,0-1.1-0.1-1.5-0.3c-0.3-0.2-0.6-0.5-0.8-0.8l-8.4-10.9c-0.3-0.4-0.6-0.6-0.9-0.8c-0.3-0.2-0.8-0.2-1.5-0.2
			h-1.7v13h-5.5v-29.7h5.5V123.9z"/>
	</g>
	<g>
		<path class="st18" d="M105.3,72.7c0,2.8-2.2,5-5,5h-8.7c-2.8,0-5-2.2-5-5V5c0-2.8,2.2-5,5-5h8.7c2.8,0,5,2.2,5,5V72.7z"/>
	</g>
</g>
</svg>
