<?xml version="1.0" encoding="utf-8"?>
<!-- Generator: Adobe Illustrator 19.2.1, SVG Export Plug-In . SVG Version: 6.00 Build 0)  -->
<svg version="1.1" xmlns="http://www.w3.org/2000/svg" xmlns:xlink="http://www.w3.org/1999/xlink" x="0px" y="0px"
	 viewBox="0 0 191.546 147.595" enable-background="new 0 0 191.546 147.595" xml:space="preserve">
<g id="Layer_1" display="none">
	
		<circle display="inline" fill="none" stroke="#262626" stroke-width="3" stroke-miterlimit="10" cx="96.617" cy="100.746" r="118.379"/>
	<circle display="inline" fill="#262626" cx="96.617" cy="100.746" r="111.334"/>
	<g display="inline">
		<path fill="#4BB1B7" d="M176.355,52.332c-0.338,1.434-0.659,2.872-1.017,4.301c-1.458,5.821-4.694,10.526-9.398,14.128
			c-6.048,4.631-12.947,6.336-20.494,5.142c-1.311-0.207-2.235-0.085-3.25,0.955c-5.387,5.523-10.878,10.944-16.334,16.4
			c-2.908,2.908-5.818,5.814-8.725,8.723c-0.144,0.144-0.276,0.302-0.598,0.657c1.554,1.49,3.105,2.927,4.6,4.419
			c9.282,9.266,18.559,18.539,27.811,27.835c0.605,0.608,1.211,0.776,2.018,0.76c6.69-0.136,12.216,2.434,16.668,7.348
			c5.904,6.516,6.869,17.455,2.264,24.955c-4.495,7.321-11.071,10.944-19.62,10.73c-11.31-0.283-20.526-9.833-20.523-21.145
			c0-1.318-0.314-2.284-1.268-3.228c-8.675-8.592-17.306-17.229-25.948-25.854c-1.945-1.942-3.883-3.891-5.93-5.943
			c-1.875,1.855-3.682,3.626-5.471,5.415c-4.915,4.918-9.822,9.843-14.732,14.765c-4.103,4.112-8.219,8.211-12.29,12.354
			c-0.36,0.366-0.62,1.014-0.613,1.526c0.067,5.003-1.262,9.552-4.299,13.555c-3.494,4.605-8.101,7.47-13.819,8.272
			c-8.875,1.245-16.127-1.816-21.218-9.146c-4.391-6.322-5.051-13.359-2.072-20.484c3.106-7.431,8.886-11.674,16.792-13.019
			c1.037-0.176,2.12-0.165,3.176-0.116c0.957,0.045,1.646-0.228,2.341-0.926c10.394-10.438,20.819-20.845,31.235-31.261
			c0.295-0.295,0.568-0.613,1.046-1.13c-2.475-2.398-4.926-4.728-7.326-7.109c-4.936-4.896-9.845-9.819-14.764-14.732
			c-1.439-1.438-2.803-2.964-4.351-4.273c-0.488-0.412-1.495-0.441-2.208-0.317c-3.398,0.592-6.765,0.474-10.121-0.217
			c-4.852-1-9.08-3.234-12.666-6.635c-4.561-4.326-7.215-9.644-8.14-15.861c-0.545-3.665-0.129-8.288,1.27-12.037
			c1.425,1.416,2.784,2.788,4.167,4.136c3.214,3.135,6.281,6.444,9.7,9.337c3.925,3.321,10.012,3.018,14.013-0.285
			c6.031-4.979,6.358-12.739,0.8-18.232c-3.772-3.728-7.504-7.497-11.251-11.251c-0.173-0.173-0.317-0.375-0.761-0.908
			c2.809-0.414,5.323-1.004,7.858-1.114c6.184-0.269,11.842,1.536,16.795,5.213c4.201,3.119,7.234,7.204,9.044,12.162
			c1.718,4.705,1.994,9.504,1.174,14.417c-0.087,0.52,0.146,1.289,0.515,1.66c8.522,8.587,17.084,17.135,25.64,25.688
			c0.145,0.145,0.313,0.266,0.822,0.696c0.405-0.561,0.734-1.176,1.206-1.649c8.152-8.176,16.312-16.344,24.505-24.481
			c0.7-0.695,0.81-1.344,0.663-2.258c-1.356-8.482,0.542-16.074,6.315-22.564c5.635-6.334,12.792-9.158,21.166-8.878
			c2.375,0.079,4.731,0.716,7.096,1.097c0.064,0.169,0.129,0.339,0.193,0.508c-1.558,1.48-3.137,2.938-4.669,4.444
			c-2.512,2.469-4.989,4.972-7.488,7.454c-3.979,3.951-4.654,9.012-2.563,13.438c2.369,5.014,7.385,7.72,12.544,7.033
			c3.157-0.421,5.524-2.189,7.679-4.394c3.436-3.515,6.928-6.973,10.404-10.449c0.263-0.263,0.578-0.474,1.04-0.848
			c0.478,2.142,0.923,4.132,1.367,6.123C176.355,48.934,176.355,50.633,176.355,52.332z M44.694,168.072
			c0.298-0.214,0.732-0.447,1.068-0.78c2.199-2.176,4.358-4.392,6.575-6.549c0.531-0.517,0.648-0.959,0.445-1.669
			c-0.859-3.015-1.693-6.039-2.441-9.083c-0.199-0.81-0.634-1.11-1.336-1.294c-3.073-0.804-6.136-1.652-9.222-2.401
			c-0.41-0.099-1.064,0.146-1.387,0.458c-2.318,2.239-4.601,4.516-6.833,6.84c-0.304,0.316-0.461,1.01-0.353,1.446
			c0.784,3.166,1.644,6.313,2.513,9.457c0.077,0.28,0.345,0.646,0.596,0.717C37.702,166.174,41.097,167.09,44.694,168.072z
			 M162.171,154.421c-0.114-0.191-0.241-0.546-0.482-0.789c-2.295-2.324-4.59-4.649-6.941-6.915
			c-0.312-0.301-0.988-0.474-1.413-0.37c-3.127,0.765-6.241,1.589-9.338,2.471c-0.422,0.12-0.926,0.607-1.046,1.024
			c-0.906,3.135-1.744,6.29-2.548,9.452c-0.094,0.368,0.009,0.957,0.257,1.214c2.269,2.344,4.564,4.666,6.925,6.917
			c0.363,0.346,1.151,0.506,1.661,0.391c2.395-0.54,4.741-1.311,7.146-1.796c2.058-0.415,3.292-1.261,3.674-3.532
			C160.516,159.824,161.415,157.236,162.171,154.421z"/>
	</g>
	
		<text transform="matrix(1 0 0 1 -6.781 124.8292)" display="inline" fill="#E9EBE5" stroke="#262626" stroke-miterlimit="10" font-family="'Lato-Bold'" font-size="65px">WORK</text>
</g>
<g id="Layer_2" display="none">
	
		<rect x="-44.067" y="16.827" display="inline" fill="none" stroke="#262626" stroke-width="3" stroke-miterlimit="10" width="294" height="181"/>
	<rect x="-35.192" y="22.291" display="inline" fill="#262626" width="276.25" height="170.072"/>
	<g display="inline">
		<path fill="#4BB1B7" d="M182.671,58.301c-0.338,1.434-0.659,2.872-1.017,4.301c-1.458,5.821-4.694,10.526-9.398,14.128
			c-6.048,4.631-12.947,6.336-20.494,5.142c-1.311-0.207-2.235-0.085-3.25,0.955c-5.387,5.523-10.878,10.944-16.334,16.4
			c-2.908,2.908-5.818,5.814-8.725,8.723c-0.144,0.144-0.276,0.302-0.598,0.657c1.554,1.49,3.105,2.927,4.6,4.419
			c9.282,9.266,18.559,18.539,27.811,27.835c0.605,0.608,1.211,0.776,2.018,0.76c6.69-0.136,12.216,2.434,16.668,7.348
			c5.904,6.516,6.869,17.455,2.264,24.955c-4.495,7.321-11.071,10.944-19.62,10.73c-11.31-0.283-20.526-9.833-20.523-21.145
			c0-1.318-0.314-2.284-1.268-3.228c-8.675-8.592-17.306-17.229-25.948-25.854c-1.945-1.942-3.883-3.891-5.93-5.943
			c-1.875,1.855-3.682,3.626-5.471,5.415c-4.915,4.918-9.822,9.843-14.732,14.765c-4.103,4.112-8.219,8.211-12.29,12.354
			c-0.36,0.366-0.62,1.014-0.613,1.526c0.067,5.003-1.261,9.552-4.299,13.555c-3.494,4.605-8.101,7.47-13.819,8.272
			c-8.875,1.245-16.127-1.816-21.218-9.146c-4.391-6.322-5.051-13.359-2.072-20.484c3.106-7.431,8.886-11.674,16.792-13.019
			c1.037-0.176,2.12-0.165,3.176-0.116c0.957,0.045,1.646-0.228,2.341-0.926c10.394-10.438,20.819-20.845,31.235-31.261
			c0.295-0.295,0.568-0.613,1.046-1.13c-2.475-2.398-4.926-4.728-7.326-7.109c-4.936-4.896-9.845-9.819-14.764-14.732
			c-1.439-1.438-2.803-2.964-4.351-4.273c-0.488-0.412-1.495-0.441-2.208-0.317c-3.398,0.592-6.765,0.474-10.121-0.217
			c-4.852-1-9.08-3.234-12.666-6.635c-4.561-4.326-7.215-9.644-8.14-15.861c-0.545-3.665-0.129-8.288,1.27-12.037
			c1.425,1.416,2.784,2.788,4.167,4.136c3.214,3.135,6.281,6.444,9.7,9.337c3.925,3.321,10.012,3.018,14.013-0.285
			c6.031-4.979,6.358-12.739,0.8-18.232c-3.772-3.728-7.504-7.497-11.251-11.251c-0.173-0.173-0.317-0.375-0.761-0.908
			c2.809-0.414,5.323-1.004,7.858-1.114c6.184-0.269,11.842,1.536,16.795,5.213c4.201,3.119,7.234,7.204,9.044,12.162
			c1.718,4.705,1.994,9.504,1.174,14.417c-0.087,0.52,0.146,1.289,0.515,1.66c8.523,8.587,17.084,17.135,25.64,25.688
			c0.145,0.145,0.313,0.266,0.822,0.696c0.405-0.561,0.734-1.176,1.206-1.649c8.152-8.176,16.312-16.344,24.505-24.481
			c0.7-0.695,0.81-1.344,0.663-2.258c-1.356-8.482,0.542-16.074,6.315-22.564c5.635-6.334,12.792-9.158,21.166-8.878
			c2.375,0.079,4.731,0.716,7.096,1.097c0.064,0.169,0.129,0.339,0.193,0.508c-1.558,1.48-3.137,2.938-4.669,4.444
			c-2.512,2.469-4.989,4.972-7.488,7.454c-3.979,3.951-4.654,9.012-2.563,13.438c2.369,5.014,7.385,7.72,12.544,7.033
			c3.157-0.421,5.524-2.189,7.679-4.394c3.436-3.515,6.928-6.973,10.404-10.449c0.263-0.263,0.578-0.474,1.04-0.848
			c0.478,2.142,0.923,4.132,1.367,6.123C182.671,54.904,182.671,56.602,182.671,58.301z M51.011,174.041
			c0.298-0.214,0.732-0.447,1.068-0.78c2.199-2.176,4.358-4.392,6.575-6.549c0.531-0.517,0.648-0.959,0.445-1.669
			c-0.859-3.015-1.693-6.039-2.441-9.083c-0.199-0.81-0.634-1.11-1.336-1.294c-3.073-0.804-6.136-1.652-9.222-2.401
			c-0.41-0.099-1.064,0.146-1.387,0.458c-2.318,2.239-4.601,4.516-6.833,6.84c-0.304,0.316-0.461,1.01-0.353,1.446
			c0.784,3.166,1.644,6.313,2.513,9.457c0.077,0.28,0.345,0.646,0.596,0.717C44.018,172.144,47.414,173.059,51.011,174.041z
			 M168.487,160.391c-0.114-0.191-0.241-0.546-0.482-0.789c-2.295-2.324-4.59-4.649-6.941-6.915
			c-0.312-0.301-0.988-0.474-1.413-0.37c-3.127,0.765-6.241,1.589-9.338,2.471c-0.422,0.12-0.926,0.607-1.046,1.024
			c-0.906,3.135-1.744,6.29-2.548,9.452c-0.094,0.368,0.009,0.957,0.257,1.214c2.269,2.344,4.564,4.666,6.925,6.917
			c0.363,0.346,1.151,0.506,1.661,0.391c2.395-0.54,4.741-1.311,7.146-1.796c2.058-0.415,3.292-1.261,3.674-3.532
			C166.832,165.793,167.732,163.205,168.487,160.391z"/>
	</g>
	
		<text transform="matrix(1 0 0 1 -0.4643 130.7987)" display="inline" fill="#E9EBE5" stroke="#262626" stroke-miterlimit="10" font-family="'Lato-Bold'" font-size="65px">WORK</text>
</g>
<g id="Layer_3" display="none">
	<g display="inline">
		<path fill="#262626" d="M201.407,35.647c-0.441,1.872-0.86,3.749-1.327,5.614c-1.903,7.599-6.128,13.74-12.268,18.441
			c-7.895,6.045-16.901,8.271-26.752,6.713c-1.712-0.271-2.917-0.111-4.242,1.247c-7.032,7.209-14.2,14.286-21.321,21.408
			c-3.796,3.796-7.594,7.59-11.39,11.386c-0.189,0.189-0.36,0.394-0.78,0.858c2.028,1.945,4.053,3.82,6.005,5.769
			c12.117,12.096,24.225,24.2,36.303,36.334c0.789,0.793,1.581,1.013,2.634,0.992c8.732-0.177,15.946,3.177,21.758,9.592
			c7.707,8.506,8.966,22.784,2.955,32.575c-5.867,9.557-14.451,14.286-25.611,14.007c-14.764-0.369-26.793-12.836-26.789-27.602
			c0-1.721-0.41-2.981-1.655-4.214c-11.324-11.216-22.591-22.489-33.872-33.748c-2.539-2.534-5.069-5.079-7.741-7.758
			c-2.448,2.421-4.807,4.733-7.141,7.069c-6.416,6.419-12.821,12.849-19.231,19.274c-5.356,5.368-10.728,10.719-16.043,16.126
			c-0.469,0.478-0.809,1.323-0.8,1.992c0.088,6.531-1.647,12.468-5.611,17.694c-4.56,6.011-10.575,9.751-18.039,10.798
			c-11.585,1.625-21.051-2.371-27.697-11.938c-5.732-8.252-6.593-17.438-2.705-26.739c4.055-9.701,11.599-15.238,21.919-16.995
			c1.353-0.23,2.768-0.216,4.146-0.152c1.249,0.058,2.149-0.297,3.056-1.208c13.568-13.625,27.176-27.209,40.772-40.806
			c0.385-0.385,0.742-0.8,1.365-1.475c-3.231-3.131-6.43-6.172-9.563-9.279c-6.443-6.391-12.852-12.817-19.272-19.23
			c-1.879-1.877-3.659-3.869-5.679-5.578c-0.636-0.538-1.952-0.576-2.882-0.414c-4.435,0.773-8.831,0.619-13.211-0.284
			c-6.333-1.305-11.852-4.221-16.534-8.661C-1.79,51.808-5.254,44.867-6.461,36.752C-7.173,31.969-6.63,25.934-4.804,21.04
			c1.86,1.848,3.634,3.639,5.439,5.399c4.195,4.092,8.199,8.412,12.661,12.188c5.123,4.335,13.069,3.939,18.292-0.373
			c7.873-6.499,8.299-16.629,1.044-23.799c-4.924-4.867-9.795-9.787-14.686-14.687c-0.226-0.226-0.413-0.49-0.993-1.185
			c3.666-0.54,6.948-1.311,10.257-1.454c8.073-0.351,15.458,2.005,21.924,6.805c5.484,4.072,9.442,9.404,11.805,15.876
			c2.242,6.141,2.603,12.406,1.532,18.819c-0.113,0.679,0.191,1.682,0.672,2.167c11.125,11.209,22.301,22.367,33.47,33.532
			c0.189,0.189,0.409,0.348,1.074,0.908c0.528-0.732,0.958-1.535,1.574-2.153c10.641-10.673,21.293-21.335,31.987-31.956
			c0.913-0.907,1.057-1.754,0.866-2.948c-1.77-11.072,0.707-20.982,8.244-29.453c7.356-8.268,16.698-11.954,27.629-11.589
			c3.1,0.104,6.176,0.935,9.262,1.432c0.084,0.221,0.168,0.442,0.252,0.663c-2.034,1.931-4.095,3.835-6.095,5.8
			c-3.279,3.222-6.512,6.491-9.774,9.73c-5.194,5.158-6.075,11.764-3.346,17.541c3.093,6.545,9.64,10.077,16.375,9.18
			c4.122-0.549,7.21-2.858,10.023-5.735c4.485-4.588,9.044-9.103,13.58-13.64c0.343-0.343,0.754-0.619,1.357-1.107
			c0.624,2.796,1.204,5.394,1.785,7.992C201.407,31.213,201.407,33.43,201.407,35.647z M29.545,186.728
			c0.389-0.279,0.956-0.584,1.394-1.018c2.87-2.84,5.689-5.733,8.582-8.549c0.693-0.675,0.845-1.252,0.581-2.178
			c-1.121-3.936-2.209-7.883-3.186-11.857c-0.26-1.058-0.827-1.449-1.744-1.689c-4.012-1.05-8.009-2.157-12.038-3.134
			c-0.535-0.13-1.389,0.191-1.81,0.598c-3.026,2.923-6.006,5.895-8.92,8.928c-0.396,0.413-0.602,1.318-0.461,1.888
			c1.023,4.132,2.146,8.241,3.28,12.345c0.101,0.365,0.45,0.843,0.778,0.936C20.417,184.251,24.849,185.446,29.545,186.728z
			 M182.892,168.91c-0.148-0.25-0.315-0.713-0.629-1.031c-2.996-3.033-5.991-6.069-9.06-9.027c-0.408-0.393-1.29-0.619-1.844-0.484
			c-4.082,0.999-8.147,2.074-12.189,3.225c-0.55,0.157-1.208,0.792-1.366,1.337c-1.183,4.092-2.276,8.21-3.325,12.338
			c-0.122,0.48,0.011,1.249,0.336,1.585c2.962,3.06,5.957,6.091,9.04,9.029c0.473,0.451,1.503,0.661,2.169,0.51
			c3.127-0.705,6.189-1.712,9.328-2.344c2.687-0.541,4.297-1.646,4.795-4.611C180.731,175.961,181.906,172.583,182.892,168.91z"/>
	</g>
	
		<text transform="matrix(1 0 0 1 -6.0759 122.2987)" display="inline" fill="#E9EBE5" stroke="#262626" stroke-miterlimit="10" font-family="'Lato-Bold'" font-size="65px">WORK</text>
</g>
<g id="Layer_4" display="none">
	<g display="inline">
		<path fill="#262626" d="M198.829,36.907c-0.441,1.872-0.86,3.749-1.327,5.614c-1.903,7.599-6.128,13.74-12.268,18.441
			c-7.895,6.045-16.901,8.271-26.752,6.713c-1.712-0.271-2.917-0.111-4.242,1.247c-7.032,7.209-14.2,14.286-21.321,21.408
			c-3.796,3.796-7.594,7.59-11.39,11.386c-0.189,0.189-0.36,0.394-0.78,0.858c2.028,1.945,4.053,3.82,6.005,5.769
			c12.117,12.096,24.225,24.2,36.303,36.334c0.789,0.793,1.581,1.013,2.634,0.992c8.732-0.177,15.946,3.177,21.758,9.592
			c7.706,8.506,8.966,22.784,2.955,32.575c-5.867,9.557-14.451,14.286-25.611,14.007c-14.764-0.369-26.793-12.836-26.789-27.602
			c0-1.721-0.41-2.981-1.655-4.214c-11.324-11.216-22.591-22.489-33.872-33.748c-2.539-2.534-5.069-5.079-7.741-7.758
			c-2.448,2.421-4.807,4.733-7.141,7.069c-6.416,6.419-12.821,12.849-19.231,19.274c-5.356,5.368-10.728,10.719-16.043,16.126
			c-0.469,0.477-0.809,1.323-0.8,1.992c0.088,6.531-1.647,12.468-5.611,17.694c-4.56,6.011-10.575,9.751-18.039,10.798
			c-11.585,1.625-21.051-2.371-27.697-11.938c-5.732-8.252-6.593-17.438-2.705-26.739c4.055-9.701,11.599-15.238,21.919-16.995
			c1.353-0.23,2.768-0.216,4.146-0.152c1.249,0.058,2.149-0.297,3.056-1.208c13.568-13.625,27.176-27.209,40.772-40.806
			c0.385-0.385,0.742-0.8,1.365-1.475c-3.231-3.131-6.43-6.172-9.563-9.279c-6.443-6.391-12.852-12.817-19.272-19.23
			c-1.879-1.877-3.659-3.869-5.679-5.578c-0.636-0.538-1.952-0.576-2.882-0.414c-4.435,0.773-8.831,0.619-13.211-0.284
			c-6.333-1.305-11.852-4.221-16.534-8.661C-4.369,53.068-7.832,46.126-9.04,38.012c-0.712-4.783-0.168-10.818,1.658-15.713
			c1.86,1.848,3.634,3.639,5.439,5.399c4.195,4.092,8.199,8.412,12.661,12.188c5.123,4.335,13.069,3.939,18.292-0.373
			c7.873-6.499,8.299-16.629,1.044-23.799c-4.924-4.867-9.795-9.787-14.686-14.687c-0.226-0.226-0.413-0.49-0.993-1.185
			c3.666-0.54,6.948-1.311,10.257-1.454c8.073-0.351,15.458,2.005,21.924,6.805c5.484,4.072,9.442,9.404,11.805,15.876
			c2.242,6.141,2.603,12.406,1.532,18.819c-0.113,0.679,0.191,1.682,0.672,2.167c11.125,11.209,22.301,22.367,33.47,33.532
			c0.189,0.189,0.408,0.348,1.074,0.908c0.528-0.732,0.958-1.535,1.574-2.153c10.641-10.673,21.293-21.335,31.987-31.956
			c0.913-0.907,1.057-1.754,0.866-2.948c-1.77-11.072,0.707-20.982,8.244-29.453c7.356-8.268,16.698-11.954,27.629-11.589
			c3.1,0.104,6.176,0.935,9.262,1.432c0.084,0.221,0.168,0.442,0.252,0.663c-2.034,1.931-4.095,3.835-6.095,5.8
			c-3.279,3.222-6.512,6.491-9.774,9.73c-5.194,5.158-6.075,11.764-3.346,17.541c3.093,6.545,9.64,10.077,16.375,9.18
			c4.122-0.549,7.21-2.858,10.023-5.735c4.485-4.588,9.044-9.103,13.58-13.64c0.343-0.343,0.754-0.619,1.357-1.107
			c0.624,2.796,1.204,5.394,1.785,7.992C198.829,32.472,198.829,34.689,198.829,36.907z M26.967,187.988
			c0.389-0.279,0.956-0.584,1.394-1.018c2.87-2.84,5.689-5.733,8.582-8.549c0.693-0.675,0.845-1.252,0.581-2.178
			c-1.121-3.936-2.209-7.883-3.186-11.857c-0.26-1.058-0.827-1.449-1.744-1.689c-4.012-1.05-8.009-2.157-12.038-3.134
			c-0.535-0.13-1.389,0.191-1.81,0.598c-3.026,2.923-6.006,5.895-8.92,8.928c-0.396,0.413-0.602,1.318-0.461,1.888
			c1.023,4.132,2.146,8.241,3.28,12.345c0.101,0.365,0.45,0.843,0.778,0.936C17.839,185.511,22.271,186.705,26.967,187.988z
			 M180.314,170.169c-0.148-0.25-0.315-0.713-0.629-1.031c-2.996-3.033-5.991-6.069-9.06-9.027c-0.408-0.393-1.29-0.619-1.844-0.484
			c-4.082,0.999-8.147,2.074-12.189,3.225c-0.55,0.157-1.208,0.792-1.366,1.337c-1.183,4.092-2.276,8.21-3.325,12.338
			c-0.122,0.48,0.011,1.249,0.336,1.585c2.962,3.06,5.957,6.091,9.04,9.029c0.473,0.451,1.503,0.661,2.169,0.51
			c3.127-0.705,6.189-1.712,9.328-2.344c2.687-0.541,4.297-1.646,4.795-4.611C178.153,177.221,179.327,173.843,180.314,170.169z"/>
	</g>
	
		<text transform="matrix(1 0 0 1 60.7967 46.5951)" display="inline" fill="#E9EBE5" stroke="#262626" stroke-miterlimit="10" font-family="'Lato-Bold'" font-size="65px">W</text>
	
		<text transform="matrix(1 0 0 1 141.5 123.8404)" display="inline" fill="#E9EBE5" stroke="#262626" stroke-miterlimit="10" font-family="'Lato-Bold'" font-size="65px">O</text>
	
		<text transform="matrix(1 0 0 1 73.7816 201.5951)" display="inline" fill="#E9EBE5" stroke="#262626" stroke-miterlimit="10" font-family="'Lato-Bold'" font-size="65px">R</text>
	
		<text transform="matrix(1 0 0 1 -11 123.8404)" display="inline" fill="#E9EBE5" stroke="#262626" stroke-miterlimit="10" font-family="'Lato-Bold'" font-size="65px">K</text>
</g>
<g id="Layer_5" display="none">
	<g display="inline">
		<path fill="#262626" d="M202.329,36.397c-0.441,1.872-0.86,3.749-1.327,5.614c-1.903,7.599-6.128,13.74-12.268,18.441
			c-7.895,6.045-16.901,8.271-26.752,6.713c-1.712-0.271-2.917-0.111-4.242,1.247c-7.032,7.209-14.2,14.286-21.321,21.408
			c-3.796,3.796-7.594,7.59-11.39,11.386c-0.189,0.189-31.6,31.538-33.934,33.874c-6.416,6.419-12.821,12.849-19.231,19.274
			c-5.356,5.368-10.728,10.719-16.043,16.126c-0.469,0.478-0.809,1.323-0.8,1.992c0.088,6.531-1.647,12.468-5.611,17.694
			c-4.56,6.011-10.575,9.751-18.039,10.798c-11.585,1.625-21.051-2.371-27.697-11.938c-5.732-8.252-6.593-17.438-2.705-26.739
			c4.055-9.701,11.599-15.238,21.919-16.995c1.353-0.23,2.768-0.216,4.146-0.152c1.249,0.058,2.149-0.297,3.056-1.208
			c13.568-13.625,27.176-27.209,40.772-40.806c0.385-0.385,28.706-28.676,29.322-29.294c10.641-10.673,21.293-21.335,31.987-31.956
			c0.913-0.907,1.057-1.754,0.866-2.948c-1.77-11.072,0.707-20.982,8.244-29.453c7.356-8.268,16.698-11.954,27.629-11.589
			c3.1,0.104,6.176,0.935,9.262,1.432c0.084,0.221,0.168,0.442,0.252,0.663c-2.034,1.931-4.095,3.835-6.095,5.8
			c-3.279,3.222-6.512,6.491-9.774,9.73c-5.194,5.158-6.075,11.764-3.346,17.541c3.093,6.545,9.64,10.077,16.375,9.18
			c4.122-0.549,7.21-2.858,10.023-5.735c4.485-4.588,9.044-9.103,13.58-13.64c0.343-0.343,0.754-0.619,1.357-1.107
			c0.624,2.796,1.204,5.394,1.785,7.992C202.329,31.963,202.329,34.18,202.329,36.397z M30.467,187.478
			c0.389-0.279,0.956-0.584,1.394-1.018c2.87-2.84,5.689-5.733,8.582-8.549c0.693-0.675,0.845-1.252,0.581-2.178
			c-1.121-3.936-2.209-7.883-3.186-11.857c-0.26-1.058-0.827-1.449-1.744-1.689c-4.012-1.05-8.009-2.157-12.038-3.134
			c-0.535-0.13-1.389,0.191-1.81,0.598c-3.026,2.923-6.006,5.895-8.92,8.928c-0.396,0.413-0.602,1.318-0.461,1.888
			c1.023,4.132,2.146,8.241,3.28,12.345c0.101,0.365,0.45,0.843,0.778,0.936C21.339,185.001,25.771,186.196,30.467,187.478z"/>
	</g>
</g>
<g id="Layer_6" display="none">
	<rect y="102.895" display="inline" fill="#262626" width="191.546" height="43.7"/>
	
		<text transform="matrix(1 0 0 1 17.6724 140.0951)" display="inline" fill="#4AB1B6" stroke="#E9EBE5" stroke-width="0.5" stroke-miterlimit="10" font-family="'Lato-Bold'" font-size="41px" letter-spacing="8">WORK</text>
	<path display="inline" fill="#262626" d="M14.098,74.926c1.336,0.914,2.843,1.572,4.246,2.392c2.279,1.332,3.23,3.401,2.566,5.454
		c-0.741,2.291-2.756,3.587-5.379,3.342c-1.441-0.134-2.866-0.431-4.807-0.734c0.524,1.482,0.741,2.818,1.413,3.861
		c1.521,2.363,3.134,4.668,4.767,6.958h158.942c0.153-3.255,0.182-6.518,0.196-9.777c0.003-0.597-0.293-1.312-0.685-1.772
		c-1.164-1.365-2.474-2.605-3.676-3.94c-1.773-1.97-1.973-4.318-0.581-6.133c1.388-1.81,3.977-2.335,6.236-1.238
		c1.008,0.489,1.969,1.084,3.003,1.505c0.341,0.139,0.843-0.12,1.271-0.197c0-1.011,0-2.023,0-3.034
		c-1.11-3.512-2.26-7.012-3.306-10.542c-0.325-1.096-0.809-1.855-1.887-2.348c-1.424-0.652-2.779-1.46-4.137-2.247
		c-2.241-1.299-3.223-3.414-2.581-5.457c0.721-2.293,2.723-3.589,5.365-3.349c1.444,0.131,2.872,0.432,4.814,0.736
		c-0.505-1.464-0.705-2.803-1.373-3.841c-2.033-3.16-4.218-6.226-6.42-9.273c-0.37-0.512-1.081-0.918-1.709-1.074
		c-1.737-0.433-3.518-0.683-5.272-1.052c-2.302-0.483-3.961-2.325-4.008-4.386c-0.05-2.199,1.632-4.264,3.988-4.773
		c1.512-0.327,3.051-0.53,5.031-0.865c-1.074-1.303-1.797-2.523-2.828-3.367c-2.822-2.31-5.754-4.489-8.692-6.652
		c-0.48-0.354-1.225-0.542-1.826-0.502c-1.675,0.113-3.343,0.368-5.008,0.602c-2.721,0.381-4.919-0.807-5.669-3.094
		c-0.736-2.245,0.357-4.599,2.743-5.861c1.228-0.649,2.473-1.264,4.152-2.118c-1.49-0.913-2.618-1.841-3.911-2.349
		c-3.282-1.289-6.621-2.443-9.979-3.521c-0.743-0.238-1.729-0.123-2.481,0.156c-1.571,0.584-3.049,1.414-4.588,2.091
		c-2.318,1.02-4.635,0.521-5.914-1.222c-1.359-1.852-1.145-4.499,0.612-6.311c1.011-1.043,2.151-1.961,3.232-2.935
		c-0.049-0.19-0.099-0.381-0.148-0.571c-1.303-0.37-2.592-0.985-3.913-1.062c-3.698-0.216-7.409-0.243-11.115-0.255
		c-0.589-0.002-1.286,0.337-1.749,0.733c-1.322,1.129-2.532,2.39-3.819,3.561c-1.949,1.773-4.341,2.032-6.148,0.709
		c-1.86-1.362-2.408-4.053-1.273-6.371c0.493-1.007,1.069-1.974,1.527-2.996c0.155-0.347,0.061-0.805,0.081-1.213
		c-1.124,0-2.247,0-3.371,0c-3.566,1.125-7.15,2.197-10.682,3.418c-0.797,0.276-1.598,0.949-2.075,1.657
		c-0.936,1.389-1.604,2.954-2.458,4.402c-1.255,2.129-3.392,3.063-5.376,2.433c-2.199-0.698-3.507-2.572-3.344-5.037
		c0.103-1.556,0.415-3.097,0.702-5.134c-1.445,0.497-2.789,0.696-3.829,1.367c-3.159,2.036-6.222,4.225-9.265,6.432
		c-0.512,0.371-0.908,1.089-1.068,1.721c-0.424,1.681-0.679,3.405-1.022,5.107c-0.486,2.41-2.325,4.114-4.44,4.139
		c-2.231,0.026-4.208-1.609-4.74-4.017c-0.325-1.474-0.53-2.974-0.86-4.871c-1.14,0.836-2.331,1.399-3.084,2.32
		c-2.45,2.998-4.761,6.111-7.065,9.225c-0.32,0.432-0.45,1.13-0.406,1.683c0.129,1.618,0.358,3.231,0.608,4.837
		c0.423,2.728-0.705,5.003-2.916,5.776c-2.381,0.833-4.755-0.272-6.094-2.845c-0.615-1.182-1.217-2.372-2.034-3.967
		c-0.896,1.412-1.829,2.481-2.314,3.724c-1.324,3.389-2.5,6.838-3.631,10.298c-0.213,0.651-0.116,1.527,0.139,2.182
		c0.587,1.511,1.382,2.94,2.051,4.421c1.141,2.525,0.705,4.944-1.088,6.229c-2.014,1.444-4.653,1.094-6.691-0.943
		c-0.909-0.909-1.738-1.899-2.603-2.852c-0.192,0.031-0.383,0.062-0.575,0.094c-0.359,1.355-0.955,2.696-1.032,4.067
		c-0.202,3.586-0.222,7.186-0.204,10.78c0.003,0.691,0.36,1.498,0.807,2.045c1.027,1.259,2.216,2.384,3.327,3.575
		c1.871,2.005,2.183,4.403,0.829,6.271c-1.351,1.864-4.034,2.414-6.371,1.28c-1.008-0.489-1.975-1.067-2.997-1.523
		c-0.348-0.156-0.807-0.064-1.216-0.085c0,1.124,0,2.247,0,3.371c1.126,3.565,2.197,7.149,3.419,10.681
		C12.705,73.653,13.39,74.442,14.098,74.926z M159.377,63.523c1.766-0.02,3.332,1.511,3.37,3.294
		c0.038,1.79-1.438,3.372-3.217,3.448c-1.794,0.077-3.49-1.57-3.484-3.383C156.051,65.115,157.611,63.543,159.377,63.523z
		 M95.368-0.543c1.783,0.031,3.322,1.591,3.312,3.355c-0.01,1.753-1.589,3.339-3.343,3.357c-1.729,0.019-3.351-1.564-3.392-3.31
		C91.901,1.019,93.505-0.575,95.368-0.543z M95.519,50.397c8.87,0.012,16.291,7.573,16.272,16.578
		c-0.018,8.945-7.499,16.406-16.447,16.401c-9.007-0.005-16.572-7.468-16.536-16.314C78.847,57.754,86.237,50.384,95.519,50.397z
		 M31.292,63.524c1.749,0.05,3.317,1.674,3.293,3.411c-0.024,1.755-1.619,3.33-3.373,3.331c-1.835,0.001-3.409-1.648-3.34-3.499
		C27.939,64.978,29.525,63.473,31.292,63.524z"/>
</g>
<g id="Layer_7" display="none">
	
		<rect x="-7.246" y="128.604" display="inline" fill="#4AB1B5" stroke="#262626" stroke-miterlimit="10" width="218.5" height="43.7"/>
	<path display="inline" fill="#4AB1B5" stroke="#262626" stroke-miterlimit="10" d="M20.464,101.171
		c1.336,0.914,2.843,1.572,4.246,2.392c2.279,1.332,3.23,3.401,2.566,5.454c-0.741,2.291-2.756,3.587-5.379,3.342
		c-1.441-0.134-2.866-0.431-4.807-0.734c0.524,1.482,0.741,2.818,1.413,3.861c1.521,2.363,3.134,4.668,4.767,6.958h158.942
		c0.153-3.255,0.182-6.518,0.196-9.777c0.003-0.597-0.293-1.312-0.685-1.772c-1.164-1.365-2.474-2.605-3.676-3.94
		c-1.773-1.97-1.973-4.318-0.581-6.133c1.388-1.81,3.977-2.335,6.236-1.238c1.008,0.489,1.969,1.084,3.003,1.505
		c0.341,0.139,0.843-0.12,1.271-0.197c0-1.011,0-2.023,0-3.034c-1.11-3.512-2.26-7.012-3.306-10.542
		c-0.325-1.096-0.809-1.855-1.887-2.348c-1.424-0.652-2.779-1.46-4.137-2.247c-2.241-1.299-3.223-3.414-2.581-5.457
		c0.721-2.293,2.723-3.589,5.365-3.349c1.444,0.131,2.872,0.432,4.814,0.736c-0.505-1.464-0.705-2.803-1.373-3.841
		c-2.033-3.16-4.218-6.226-6.42-9.273c-0.37-0.512-1.081-0.918-1.709-1.074c-1.737-0.433-3.518-0.683-5.272-1.052
		c-2.302-0.483-3.961-2.325-4.008-4.386c-0.05-2.199,1.632-4.264,3.988-4.773c1.512-0.327,3.051-0.53,5.031-0.865
		c-1.074-1.303-1.797-2.523-2.828-3.367c-2.822-2.31-5.754-4.489-8.692-6.652c-0.48-0.354-1.225-0.542-1.826-0.502
		c-1.675,0.113-3.343,0.368-5.008,0.602c-2.721,0.381-4.919-0.807-5.669-3.094c-0.736-2.245,0.357-4.599,2.743-5.861
		c1.228-0.649,2.473-1.264,4.152-2.118c-1.49-0.913-2.618-1.841-3.911-2.349c-3.282-1.289-6.621-2.443-9.979-3.521
		c-0.743-0.238-1.729-0.123-2.481,0.156c-1.571,0.584-3.049,1.414-4.588,2.091c-2.318,1.02-4.635,0.521-5.914-1.222
		c-1.359-1.852-1.145-4.499,0.612-6.311c1.011-1.043,2.151-1.961,3.232-2.935c-0.049-0.19-0.099-0.381-0.148-0.571
		c-1.303-0.37-2.592-0.985-3.913-1.062c-3.698-0.216-7.409-0.243-11.115-0.255c-0.589-0.002-1.286,0.337-1.749,0.733
		c-1.322,1.129-2.532,2.39-3.819,3.561c-1.949,1.773-4.341,2.032-6.148,0.709c-1.86-1.362-2.408-4.053-1.273-6.371
		c0.493-1.007,1.069-1.974,1.527-2.996c0.155-0.347,0.061-0.805,0.081-1.213c-1.124,0-2.247,0-3.371,0
		c-3.566,1.125-7.15,2.197-10.682,3.418c-0.797,0.276-1.598,0.949-2.075,1.657c-0.936,1.389-1.604,2.954-2.458,4.402
		c-1.255,2.129-3.392,3.063-5.376,2.433c-2.199-0.698-3.507-2.572-3.344-5.037c0.103-1.556,0.415-3.097,0.702-5.134
		c-1.445,0.497-2.789,0.696-3.829,1.367c-3.159,2.036-6.222,4.225-9.265,6.432c-0.512,0.371-0.908,1.089-1.068,1.721
		c-0.424,1.681-0.679,3.405-1.022,5.107c-0.486,2.41-2.325,4.114-4.44,4.139c-2.231,0.026-4.208-1.609-4.74-4.017
		c-0.325-1.474-0.53-2.974-0.86-4.871c-1.14,0.836-2.331,1.399-3.084,2.32c-2.45,2.998-4.761,6.111-7.065,9.225
		c-0.32,0.432-0.45,1.13-0.406,1.683c0.129,1.618,0.358,3.231,0.608,4.837c0.423,2.728-0.705,5.003-2.916,5.776
		c-2.381,0.833-4.755-0.272-6.094-2.845c-0.615-1.182-1.217-2.372-2.034-3.967c-0.896,1.412-1.829,2.481-2.314,3.724
		c-1.324,3.389-2.5,6.838-3.631,10.298c-0.213,0.651-0.116,1.527,0.139,2.182c0.587,1.511,1.382,2.94,2.051,4.421
		c1.141,2.525,0.705,4.944-1.088,6.229c-2.014,1.444-4.653,1.094-6.691-0.943c-0.909-0.909-1.738-1.899-2.603-2.852
		c-0.192,0.031-0.383,0.062-0.575,0.094c-0.359,1.355-0.955,2.696-1.032,4.067c-0.202,3.586-0.222,7.186-0.204,10.78
		c0.003,0.691,0.36,1.498,0.807,2.045c1.027,1.259,2.216,2.384,3.327,3.575c1.871,2.005,2.183,4.403,0.829,6.271
		c-1.351,1.864-4.034,2.414-6.371,1.28c-1.008-0.489-1.975-1.067-2.997-1.523c-0.348-0.156-0.807-0.064-1.216-0.085
		c0,1.124,0,2.247,0,3.371c1.126,3.565,2.197,7.149,3.419,10.681C19.071,99.898,19.756,100.687,20.464,101.171z M165.743,89.768
		c1.766-0.02,3.332,1.511,3.37,3.294c0.038,1.79-1.438,3.372-3.217,3.448c-1.794,0.077-3.49-1.57-3.484-3.383
		C162.417,91.36,163.977,89.788,165.743,89.768z M101.734,25.702c1.783,0.031,3.322,1.591,3.312,3.355
		c-0.01,1.753-1.589,3.339-3.343,3.357c-1.729,0.019-3.351-1.564-3.392-3.31C98.268,27.264,99.872,25.67,101.734,25.702z
		 M101.886,76.642c8.87,0.012,16.291,7.573,16.272,16.578c-0.018,8.945-7.499,16.406-16.447,16.401
		c-9.007-0.005-16.572-7.468-16.536-16.314C85.213,83.999,92.603,76.629,101.886,76.642z M37.658,89.769
		c1.749,0.05,3.317,1.674,3.293,3.411c-0.024,1.755-1.619,3.33-3.373,3.331c-1.835,0.001-3.409-1.648-3.34-3.499
		C34.305,91.223,35.891,89.718,37.658,89.769z"/>
	
		<text transform="matrix(1 0 0 1 21.3266 165.8037)" display="inline" fill="#262626" stroke="#E9EBE5" stroke-width="0.5" stroke-miterlimit="10" font-family="'Lato-Bold'" font-size="41px" letter-spacing="8">WORK</text>
</g>
<g id="Layer_8" display="none">
	<path display="inline" fill="#262626" d="M-20.764,97.047c1.918,1.312,4.082,2.258,6.097,3.435
		c3.273,1.913,4.638,4.883,3.685,7.832c-1.064,3.29-3.958,5.151-7.724,4.799c-2.069-0.193-4.116-0.619-6.902-1.054
		c0.752,2.128,1.064,4.046,2.029,5.544c2.184,3.393,4.5,6.703,6.844,9.991h228.228c0.22-4.674,0.261-9.359,0.281-14.039
		c0.004-0.857-0.421-1.883-0.984-2.544c-1.672-1.96-3.552-3.741-5.278-5.657c-2.546-2.828-2.833-6.2-0.835-8.806
		c1.993-2.6,5.711-3.352,8.955-1.778c1.447,0.702,2.828,1.557,4.312,2.161c0.489,0.199,1.21-0.172,1.825-0.283
		c0-1.452,0-2.904,0-4.357c-1.594-5.043-3.245-10.068-4.747-15.138c-0.466-1.574-1.162-2.663-2.71-3.372
		c-2.044-0.936-3.99-2.096-5.94-3.226c-3.218-1.865-4.628-4.903-3.706-7.836c1.036-3.293,3.91-5.153,7.703-4.809
		c2.073,0.188,4.124,0.621,6.912,1.056c-0.724-2.102-1.012-4.025-1.971-5.516c-2.92-4.538-6.056-8.94-9.219-13.315
		c-0.531-0.735-1.552-1.318-2.453-1.543c-2.494-0.622-5.051-0.981-7.57-1.51c-3.305-0.694-5.688-3.339-5.755-6.298
		c-0.072-3.157,2.344-6.123,5.727-6.854c2.172-0.469,4.382-0.761,7.224-1.242c-1.542-1.871-2.58-3.622-4.06-4.834
		c-4.052-3.318-8.262-6.445-12.481-9.552c-0.69-0.508-1.759-0.779-2.622-0.72c-2.406,0.162-4.8,0.529-7.191,0.864
		c-3.907,0.547-7.063-1.158-8.14-4.443c-1.057-3.224,0.512-6.604,3.939-8.415c1.763-0.932,3.552-1.815,5.961-3.042
		c-2.14-1.311-3.76-2.644-5.617-3.373c-4.713-1.85-9.507-3.509-14.329-5.056c-1.067-0.342-2.482-0.177-3.563,0.225
		c-2.256,0.838-4.378,2.031-6.587,3.003c-3.329,1.464-6.655,0.749-8.492-1.755c-1.952-2.66-1.644-6.461,0.879-9.062
		c1.452-1.497,3.088-2.815,4.641-4.214c-0.071-0.274-0.142-0.547-0.213-0.821c-1.871-0.531-3.722-1.414-5.618-1.525
		c-5.31-0.31-10.639-0.35-15.96-0.367c-0.846-0.003-1.846,0.484-2.512,1.052c-1.899,1.622-3.635,3.432-5.484,5.114
		c-2.799,2.546-6.233,2.918-8.829,1.018c-2.671-1.956-3.457-5.819-1.828-9.148c0.707-1.446,1.535-2.835,2.192-4.302
		c0.223-0.498,0.088-1.156,0.116-1.741c-1.614,0-3.227,0-4.841,0c-5.12,1.616-10.267,3.154-15.339,4.907
		c-1.145,0.396-2.295,1.363-2.98,2.379c-1.344,1.994-2.303,4.242-3.529,6.321c-1.802,3.057-4.871,4.398-7.72,3.494
		c-3.158-1.003-5.036-3.693-4.801-7.232c0.148-2.234,0.595-4.448,1.007-7.372c-2.075,0.714-4.005,1-5.498,1.962
		c-4.535,2.924-8.934,6.066-13.304,9.236c-0.735,0.533-1.304,1.564-1.533,2.471c-0.61,2.414-0.975,4.889-1.468,7.334
		c-0.698,3.461-3.339,5.908-6.376,5.943c-3.204,0.037-6.042-2.31-6.806-5.768c-0.467-2.116-0.762-4.27-1.236-6.994
		c-1.636,1.2-3.348,2.008-4.428,3.331c-3.518,4.305-6.837,8.776-10.145,13.247c-0.459,0.621-0.647,1.622-0.583,2.417
		c0.185,2.324,0.515,4.64,0.873,6.946c0.608,3.917-1.013,7.184-4.188,8.294c-3.418,1.196-6.828-0.391-8.751-4.085
		C4.939,6.728,4.075,5.021,2.901,2.73C1.614,4.758,0.275,6.292-0.422,8.077c-1.901,4.867-3.59,9.819-5.214,14.787
		c-0.306,0.935-0.166,2.192,0.2,3.133c0.843,2.17,1.984,4.222,2.945,6.348c1.639,3.626,1.012,7.099-1.563,8.945
		c-2.893,2.073-6.682,1.571-9.608-1.354c-1.306-1.305-2.495-2.726-3.737-4.095c-0.275,0.045-0.55,0.09-0.825,0.135
		c-0.516,1.946-1.371,3.872-1.482,5.84c-0.29,5.15-0.318,10.318-0.294,15.479c0.005,0.992,0.517,2.151,1.159,2.937
		c1.474,1.807,3.182,3.423,4.778,5.133c2.687,2.879,3.135,6.322,1.191,9.005c-1.94,2.676-5.793,3.466-9.149,1.838
		c-1.448-0.702-2.837-1.532-4.304-2.187c-0.5-0.223-1.159-0.091-1.745-0.122c0,1.614,0,3.227,0,4.841
		c1.617,5.119,3.154,10.266,4.91,15.336C-22.765,95.219-21.781,96.352-20.764,97.047z M187.844,80.673
		c2.536-0.029,4.785,2.169,4.839,4.73c0.054,2.57-2.065,4.841-4.619,4.951c-2.577,0.111-5.012-2.254-5.003-4.858
		C183.069,82.959,185.308,80.702,187.844,80.673z M95.933-11.32c2.561,0.045,4.771,2.284,4.756,4.818
		c-0.015,2.517-2.282,4.794-4.8,4.821c-2.482,0.027-4.812-2.246-4.871-4.752C90.955-9.078,93.258-11.367,95.933-11.32z
		 M96.15,61.825c12.736,0.018,23.392,10.874,23.366,23.805c-0.026,12.845-10.769,23.557-23.616,23.55
		c-12.933-0.007-23.795-10.724-23.744-23.425C72.209,72.389,82.821,61.806,96.15,61.825z M3.924,80.674
		c2.512,0.072,4.763,2.403,4.729,4.898c-0.035,2.52-2.325,4.782-4.843,4.783c-2.634,0.001-4.895-2.367-4.796-5.024
		C-0.89,82.762,1.388,80.601,3.924,80.674z"/>
	
		<text transform="matrix(1 0 0 1 23.3725 163.2405)" display="inline" fill="#262626" font-family="'Lato-Bold'" font-size="41px" letter-spacing="4">WORK</text>
	<rect x="-29" y="150.422" display="inline" fill="#262626" width="50" height="2"/>
	<rect x="171" y="150.422" display="inline" fill="#262626" width="50" height="2"/>
</g>
<g id="Layer_9" display="none">
	<rect x="-29" y="34.595" display="inline" fill="#262626" width="250" height="2"/>
	<path display="inline" fill="#262626" d="M21.489,133.598c1.256,0.859,2.672,1.478,3.991,2.249
		c2.143,1.252,3.036,3.197,2.412,5.127c-0.696,2.154-2.591,3.372-5.056,3.142c-1.354-0.126-2.694-0.405-4.518-0.69
		c0.493,1.393,0.697,2.649,1.328,3.629c1.43,2.221,2.946,4.388,4.48,6.54h149.402c0.144-3.059,0.171-6.126,0.184-9.191
		c0.002-0.561-0.275-1.233-0.644-1.665c-1.095-1.283-2.325-2.449-3.455-3.703c-1.667-1.851-1.855-4.059-0.547-5.765
		c1.305-1.702,3.739-2.195,5.862-1.164c0.947,0.46,1.851,1.019,2.823,1.415c0.32,0.13,0.792-0.113,1.195-0.185
		c0-0.951,0-1.901,0-2.852c-1.043-3.301-2.125-6.591-3.108-9.91c-0.305-1.03-0.761-1.743-1.774-2.207
		c-1.338-0.613-2.612-1.372-3.889-2.112c-2.107-1.221-3.03-3.209-2.426-5.13c0.678-2.156,2.56-3.373,5.043-3.148
		c1.357,0.123,2.7,0.406,4.525,0.692c-0.474-1.376-0.662-2.635-1.29-3.611c-1.911-2.971-3.964-5.852-6.035-8.716
		c-0.348-0.481-1.016-0.863-1.606-1.01c-1.632-0.407-3.307-0.642-4.955-0.988c-2.163-0.454-3.723-2.186-3.767-4.123
		c-0.047-2.067,1.534-4.008,3.749-4.487c1.422-0.307,2.868-0.498,4.729-0.813c-1.009-1.225-1.689-2.371-2.658-3.165
		c-2.652-2.172-5.408-4.219-8.17-6.253c-0.452-0.333-1.151-0.51-1.717-0.471c-1.575,0.106-3.142,0.346-4.708,0.566
		c-2.557,0.358-4.624-0.758-5.329-2.908c-0.692-2.11,0.335-4.323,2.578-5.509c1.154-0.61,2.325-1.188,3.902-1.991
		c-1.401-0.858-2.461-1.731-3.677-2.208c-3.085-1.211-6.224-2.297-9.38-3.31c-0.698-0.224-1.625-0.116-2.332,0.147
		c-1.477,0.549-2.866,1.329-4.312,1.966c-2.179,0.959-4.357,0.49-5.559-1.149c-1.278-1.741-1.076-4.229,0.575-5.932
		c0.95-0.98,2.022-1.843,3.038-2.759c-0.046-0.179-0.093-0.358-0.139-0.537c-1.225-0.347-2.437-0.926-3.678-0.998
		c-3.476-0.203-6.964-0.229-10.448-0.24c-0.554-0.002-1.209,0.317-1.644,0.689c-1.243,1.062-2.38,2.246-3.59,3.348
		c-1.832,1.667-4.08,1.91-5.779,0.666c-1.749-1.28-2.263-3.809-1.197-5.989c0.463-0.946,1.005-1.856,1.435-2.816
		c0.146-0.326,0.057-0.757,0.076-1.14c-1.056,0-2.113,0-3.169,0c-3.352,1.058-6.721,2.065-10.041,3.213
		c-0.75,0.259-1.502,0.892-1.951,1.557c-0.88,1.305-1.508,2.777-2.31,4.138c-1.18,2.001-3.189,2.879-5.053,2.287
		c-2.067-0.657-3.296-2.418-3.143-4.734c0.097-1.462,0.39-2.912,0.659-4.826c-1.359,0.467-2.622,0.654-3.599,1.285
		c-2.969,1.914-5.848,3.971-8.709,6.046c-0.481,0.349-0.854,1.024-1.004,1.617c-0.399,1.58-0.638,3.2-0.961,4.801
		c-0.457,2.266-2.186,3.867-4.174,3.89c-2.098,0.024-3.955-1.512-4.455-3.776c-0.306-1.385-0.499-2.795-0.809-4.578
		c-1.071,0.786-2.191,1.315-2.899,2.181c-2.303,2.818-4.475,5.745-6.641,8.672c-0.301,0.406-0.423,1.062-0.382,1.582
		c0.121,1.521,0.337,3.037,0.571,4.547c0.398,2.564-0.663,4.703-2.741,5.43c-2.238,0.783-4.47-0.256-5.728-2.674
		c-0.578-1.111-1.144-2.229-1.912-3.729c-0.843,1.328-1.719,2.332-2.175,3.5c-1.244,3.186-2.35,6.428-3.413,9.68
		c-0.2,0.612-0.109,1.435,0.131,2.051c0.552,1.42,1.299,2.764,1.928,4.155c1.073,2.374,0.663,4.647-1.023,5.856
		c-1.893,1.357-4.374,1.028-6.29-0.887c-0.855-0.854-1.633-1.785-2.447-2.68c-0.18,0.029-0.36,0.059-0.54,0.088
		c-0.338,1.274-0.898,2.535-0.97,3.823c-0.19,3.371-0.208,6.755-0.192,10.133c0.003,0.65,0.339,1.408,0.758,1.923
		c0.965,1.183,2.083,2.241,3.128,3.36c1.759,1.885,2.052,4.138,0.78,5.895c-1.27,1.752-3.792,2.269-5.989,1.203
		c-0.948-0.46-1.857-1.003-2.818-1.432c-0.327-0.146-0.759-0.06-1.143-0.08c0,1.056,0,2.113,0,3.169
		c1.058,3.351,2.065,6.72,3.214,10.04C20.179,132.401,20.823,133.143,21.489,133.598z M158.048,122.879
		c1.66-0.019,3.132,1.42,3.167,3.096c0.036,1.682-1.352,3.169-3.024,3.241c-1.687,0.072-3.281-1.475-3.275-3.18
		C154.922,124.376,156.387,122.898,158.048,122.879z M97.881,62.659c1.676,0.029,3.123,1.495,3.113,3.154
		c-0.01,1.648-1.494,3.138-3.142,3.156c-1.625,0.017-3.15-1.47-3.189-3.111C94.622,64.127,96.13,62.628,97.881,62.659z
		 M98.023,110.541c8.337,0.012,15.313,7.119,15.296,15.583c-0.017,8.409-7.049,15.421-15.46,15.417
		c-8.466-0.005-15.577-7.02-15.543-15.335C82.351,117.456,89.298,110.528,98.023,110.541z M37.65,122.88
		c1.644,0.047,3.118,1.573,3.095,3.206c-0.023,1.65-1.522,3.13-3.17,3.131c-1.725,0.001-3.204-1.549-3.139-3.289
		C34.499,124.246,35.99,122.832,37.65,122.88z"/>
	
		<text transform="matrix(1 0 0 1 -281.6275 206.2405)" display="inline" fill="#262626" font-family="'Lato-Bold'" font-size="41px" letter-spacing="4">WORK</text>
	<rect x="-334" y="193.422" display="inline" fill="#262626" width="50" height="2"/>
	<rect x="-134" y="193.422" display="inline" fill="#262626" width="50" height="2"/>
	<rect x="-320" y="96.595" display="inline" fill="#262626" width="248.77" height="2"/>
	<rect x="-29" y="207.928" display="inline" fill="#262626" width="250" height="2"/>
	
		<text transform="matrix(1 0 0 1 25.7058 201.2404)" display="inline" fill="#262626" font-family="'Lato-Bold'" font-size="41px" letter-spacing="4">WORK</text>
	<rect x="-29" y="163.928" display="inline" fill="#262626" width="250" height="2"/>
</g>
<g id="Layer_10" display="none">
	<g display="inline">
		<path fill="none" d="M-25.667-14.405V96.779h45.743c0.029-2.06,0.067-4.12,0.086-6.179c-0.025-1.274-0.038-2.549-0.076-3.821
			c-0.028-0.857-0.389-1.944-0.926-2.734c-0.241-0.278-0.502-0.519-0.766-0.681c-4.442-2.727-9.003-5.262-13.544-7.823
			c-2.804-1.583-4.17-3.003-4.344-4.994c-0.158-1.183,0.1-2.533,0.759-4.14c2.066-5.042,4.191-10.06,6.289-15.09
			c1.862-4.47,3.968-5.511,8.641-4.245c5.021,1.364,10.091,2.603,15.049,4.177c0.214,0.068,0.412,0.116,0.604,0.157
			c0.907,0.115,2.137-0.265,2.938-0.843c0.21-0.19,0.422-0.398,0.646-0.641c4.097-4.437,8.134-8.991,12.73-12.864
			c2.122-1.787,13.276-11.154,28.254-14.816c0.855-0.209,1.722-0.4,2.601-0.569v0.069l0-0.069c0.866,0,1.575,0.697,1.575,1.548
			v8.505v0.019v8.825c0,0.884-0.709,1.607-1.575,1.607h-0.113c-22.172,6.956-38.517,27.08-39.865,51.21
			c-0.06,1.067-0.09,2.141-0.09,3.223c0,0.057,0,0.114,0,0.171H153.05c-0.005-25.547-16.803-47.168-39.955-54.431h-0.099
			c-0.866,0-1.575-0.723-1.575-1.607v-8.825v-0.019v-8.505c0-0.847,0.702-1.54,1.562-1.547v-0.001c0.001,0,0.003,0.001,0.004,0.001
			c0.003,0,0.006-0.001,0.009-0.001v0.003c16.27,3.14,28.6,13.494,30.842,15.383c4.597,3.873,8.634,8.427,12.731,12.864
			c1.287,1.399,2.221,1.952,4.188,1.327c4.958-1.574,10.028-2.813,15.049-4.177c4.673-1.266,6.778-0.225,8.641,4.245
			c2.098,5.03,4.223,10.048,6.289,15.09c1.652,4.032,0.829,6.46-2.94,8.639c-4.72,2.727-9.544,5.282-14.158,8.173
			c-0.963,0.603-1.684,2.328-1.724,3.561c-0.097,3.273-0.151,6.551-0.167,9.828h90.587V-14.405H-25.667z M105.327,77.677H86.673V0
			h18.654V77.677z"/>
		<rect x="86.673" fill="#262626" width="18.654" height="77.677"/>
		<path fill="#262626" d="M39.039,93.386c1.348-24.13,17.693-44.254,39.865-51.21h0.113c0.866,0,1.575-0.723,1.575-1.607v-8.825
			v-0.019V23.22c0-0.852-0.709-1.548-1.575-1.548l0,0.069v-0.069c-0.879,0.169-1.746,0.36-2.601,0.569
			c-14.978,3.662-26.132,13.029-28.254,14.816c-4.597,3.874-8.634,8.427-12.73,12.864c-0.224,0.243-0.436,0.451-0.646,0.641
			c-0.801,0.578-2.032,0.958-2.938,0.843c-0.192-0.041-0.389-0.089-0.604-0.157c-4.958-1.574-10.028-2.813-15.049-4.177
			c-4.673-1.266-6.778-0.225-8.641,4.245c-2.098,5.03-4.223,10.048-6.289,15.09c-0.659,1.607-0.917,2.956-0.759,4.14
			c0.174,1.991,1.541,3.411,4.344,4.994c4.542,2.562,9.102,5.097,13.544,7.823c0.264,0.162,0.525,0.403,0.766,0.681
			c0.538,0.79,0.899,1.878,0.926,2.734c0.038,1.273,0.05,2.548,0.076,3.821c-0.019,2.06-0.057,4.12-0.086,6.179H38.95
			c0-0.057,0-0.114,0-0.171C38.95,95.527,38.98,94.452,39.039,93.386z"/>
		<path fill="#262626" d="M173.637,83.39c4.614-2.891,9.438-5.446,14.158-8.173c3.77-2.178,4.593-4.607,2.94-8.639
			c-2.066-5.042-4.191-10.06-6.289-15.09c-1.862-4.47-3.968-5.511-8.641-4.245c-5.021,1.364-10.091,2.603-15.049,4.177
			c-1.967,0.624-2.9,0.072-4.188-1.327c-4.097-4.437-8.134-8.991-12.731-12.864c-2.242-1.889-14.573-12.242-30.842-15.383v-0.003
			c-0.003,0-0.006,0.001-0.009,0.001c-0.001,0-0.003-0.001-0.004-0.001v0.001c-0.86,0.007-1.562,0.7-1.562,1.547v8.505v0.019v8.825
			c0,0.884,0.709,1.607,1.575,1.607h0.099c23.152,7.263,39.95,28.884,39.955,54.431h18.696c0.016-3.278,0.069-6.555,0.167-9.828
			C171.953,85.718,172.674,83.992,173.637,83.39z"/>
	</g>
	<rect y="103.895" display="inline" fill="#262626" width="191.546" height="43.7"/>
	
		<text transform="matrix(1 0 0 1 17.6724 141.0951)" display="inline" fill="#4DB1B9" font-family="'Lato-Bold'" font-size="41px" letter-spacing="8">WORK</text>
</g>
<g id="Layer_11">
	<path fill="none" d="M-25.667-14.405V96.779h45.743c0.029-2.06,0.067-4.12,0.086-6.179c-0.025-1.274-0.038-2.549-0.076-3.821
		c-0.028-0.857-0.389-1.944-0.926-2.734c-0.241-0.278-0.502-0.519-0.766-0.681c-4.442-2.727-9.003-5.262-13.544-7.823
		c-2.804-1.583-4.17-3.003-4.344-4.994c-0.158-1.183,0.1-2.533,0.759-4.14c2.066-5.042,4.191-10.06,6.289-15.09
		c1.862-4.47,3.968-5.511,8.641-4.245c5.021,1.364,10.091,2.603,15.049,4.177c0.214,0.068,0.412,0.116,0.604,0.157
		c0.907,0.115,2.137-0.265,2.938-0.843c0.21-0.19,0.422-0.398,0.646-0.641c4.097-4.437,8.134-8.991,12.73-12.864
		c2.122-1.787,13.276-11.154,28.254-14.816c0.855-0.209,1.722-0.4,2.601-0.569v0.069l0-0.069c0.866,0,1.575,0.697,1.575,1.548v8.505
		v0.019v8.825c0,0.884-0.709,1.607-1.575,1.607h-0.113c-22.172,6.956-38.517,27.08-39.865,51.21c-0.06,1.067-0.09,2.141-0.09,3.223
		c0,0.057,0,0.114,0,0.171H153.05c-0.005-25.547-16.803-47.168-39.955-54.431h-0.099c-0.866,0-1.575-0.723-1.575-1.607v-8.825
		v-0.019v-8.505c0-0.847,0.702-1.54,1.562-1.547v-0.001c0.001,0,0.003,0.001,0.004,0.001c0.003,0,0.006-0.001,0.009-0.001v0.003
		c16.27,3.14,28.6,13.494,30.842,15.383c4.597,3.873,8.634,8.427,12.731,12.864c1.287,1.399,2.221,1.952,4.188,1.327
		c4.958-1.574,10.028-2.813,15.049-4.177c4.673-1.266,6.778-0.225,8.641,4.245c2.098,5.03,4.223,10.048,6.289,15.09
		c1.652,4.032,0.829,6.46-2.94,8.639c-4.72,2.727-9.544,5.282-14.158,8.173c-0.963,0.603-1.684,2.328-1.724,3.561
		c-0.097,3.273-0.151,6.551-0.167,9.828h90.587V-14.405H-25.667z M105.327,77.677H86.673V0h18.654V77.677z"/>
	<path fill="#262626" d="M39.039,93.386c1.348-24.13,17.693-44.254,39.865-51.21h0.113c0.866,0,1.575-0.723,1.575-1.607v-8.825
		v-0.019V23.22c0-0.852-0.709-1.548-1.575-1.548l0,0.069v-0.069c-0.879,0.169-1.746,0.36-2.601,0.569
		c-14.978,3.662-26.132,13.029-28.254,14.816c-4.597,3.874-8.634,8.427-12.73,12.864c-0.224,0.243-0.436,0.451-0.646,0.641
		c-0.801,0.578-2.032,0.958-2.938,0.843c-0.192-0.041-0.389-0.089-0.604-0.157c-4.958-1.574-10.028-2.813-15.049-4.177
		c-4.673-1.266-6.778-0.225-8.641,4.245c-2.098,5.03-4.223,10.048-6.289,15.09c-0.659,1.607-0.917,2.956-0.759,4.14
		c0.174,1.991,1.541,3.411,4.344,4.994c4.542,2.562,9.102,5.097,13.544,7.823c0.264,0.162,0.525,0.403,0.766,0.681
		c0.538,0.79,0.899,1.878,0.926,2.734c0.038,1.273,0.05,2.548,0.076,3.821c-0.019,2.06-0.057,4.12-0.086,6.179H38.95
		c0-0.057,0-0.114,0-0.171C38.95,95.527,38.98,94.452,39.039,93.386z"/>
	<path fill="#262626" d="M173.637,83.39c4.614-2.891,9.438-5.446,14.158-8.173c3.77-2.178,4.593-4.607,2.94-8.639
		c-2.066-5.042-4.191-10.06-6.289-15.09c-1.862-4.47-3.968-5.511-8.641-4.245c-5.021,1.364-10.091,2.603-15.049,4.177
		c-1.967,0.624-2.9,0.072-4.188-1.327c-4.097-4.437-8.134-8.991-12.731-12.864c-2.242-1.889-14.573-12.242-30.842-15.383v-0.003
		c-0.003,0-0.006,0.001-0.009,0.001c-0.001,0-0.003-0.001-0.004-0.001v0.001c-0.86,0.007-1.562,0.7-1.562,1.547v8.505v0.019v8.825
		c0,0.884,0.709,1.607,1.575,1.607h0.099c23.152,7.263,39.95,28.884,39.955,54.431h18.696c0.016-3.278,0.069-6.555,0.167-9.828
		C171.953,85.718,172.674,83.992,173.637,83.39z"/>
	<rect y="103.895" fill="#262626" width="191.546" height="43.7"/>
	<g>
		<path fill="#E9EBE5" d="M60.415,111.453l-9.205,29.643h-4.981l-6.478-20.254c-0.178-0.492-0.342-1.094-0.492-1.805
			c-0.082,0.342-0.164,0.664-0.246,0.964c-0.082,0.301-0.171,0.581-0.266,0.841l-6.54,20.254h-5.002l-9.184-29.643h4.612
			c0.479,0,0.878,0.112,1.199,0.338s0.536,0.529,0.646,0.912l5.043,17.732c0.109,0.438,0.215,0.912,0.318,1.425
			c0.102,0.513,0.208,1.05,0.317,1.609c0.109-0.574,0.229-1.114,0.359-1.62c0.13-0.505,0.27-0.977,0.42-1.414l5.822-17.732
			c0.109-0.314,0.325-0.602,0.646-0.861c0.321-0.26,0.714-0.389,1.179-0.389h1.619c0.479,0,0.868,0.115,1.169,0.348
			c0.3,0.232,0.526,0.533,0.676,0.902l5.801,17.732c0.287,0.848,0.547,1.824,0.779,2.932c0.177-1.08,0.375-2.057,0.594-2.932
			l5.043-17.732c0.082-0.342,0.291-0.635,0.625-0.881c0.334-0.246,0.734-0.369,1.199-0.369H60.415z"/>
		<path fill="#E9EBE5" d="M99.164,126.274c0,2.173-0.358,4.186-1.076,6.037c-0.718,1.853-1.732,3.454-3.044,4.808
			c-1.312,1.353-2.891,2.408-4.736,3.167c-1.845,0.759-3.895,1.138-6.15,1.138c-2.242,0-4.285-0.379-6.129-1.138
			c-1.845-0.759-3.427-1.814-4.746-3.167c-1.319-1.354-2.341-2.955-3.065-4.808c-0.725-1.852-1.086-3.864-1.086-6.037
			s0.362-4.186,1.086-6.038c0.724-1.852,1.746-3.453,3.065-4.807c1.318-1.354,2.9-2.408,4.746-3.167
			c1.845-0.759,3.888-1.138,6.129-1.138c1.503,0,2.918,0.174,4.244,0.522c1.325,0.349,2.542,0.841,3.649,1.476
			c1.107,0.636,2.101,1.408,2.983,2.316c0.881,0.91,1.629,1.924,2.245,3.045c0.614,1.121,1.083,2.337,1.404,3.648
			C99.003,123.445,99.164,124.826,99.164,126.274z M93.526,126.274c0-1.626-0.219-3.085-0.656-4.377s-1.059-2.388-1.865-3.29
			c-0.807-0.902-1.787-1.592-2.942-2.07c-1.155-0.479-2.457-0.718-3.905-0.718s-2.75,0.239-3.905,0.718s-2.139,1.168-2.952,2.07
			s-1.438,1.998-1.875,3.29c-0.438,1.292-0.656,2.751-0.656,4.377s0.219,3.085,0.656,4.376c0.437,1.292,1.062,2.386,1.875,3.281
			c0.813,0.895,1.797,1.582,2.952,2.06c1.155,0.479,2.457,0.718,3.905,0.718s2.75-0.239,3.905-0.718
			c1.155-0.478,2.135-1.165,2.942-2.06c0.806-0.896,1.428-1.989,1.865-3.281C93.308,129.359,93.526,127.9,93.526,126.274z"/>
		<path fill="#E9EBE5" d="M135.03,141.095h-4.981c-0.942,0-1.626-0.369-2.05-1.107l-6.231-9.491
			c-0.233-0.354-0.489-0.608-0.77-0.759s-0.693-0.225-1.24-0.225H117.4v11.582h-5.515v-29.643h9.041
			c2.009,0,3.734,0.208,5.176,0.625c1.442,0.417,2.624,1.001,3.547,1.752c0.923,0.752,1.603,1.65,2.04,2.696
			c0.437,1.046,0.655,2.197,0.655,3.454c0,0.998-0.146,1.941-0.44,2.829c-0.294,0.889-0.718,1.694-1.271,2.419
			c-0.554,0.725-1.237,1.36-2.051,1.906c-0.812,0.547-1.739,0.978-2.777,1.292c0.355,0.205,0.684,0.448,0.984,0.728
			c0.3,0.28,0.573,0.611,0.819,0.994L135.03,141.095z M120.845,125.556c1.038,0,1.944-0.13,2.716-0.39
			c0.772-0.259,1.408-0.618,1.907-1.076c0.498-0.458,0.871-1.001,1.117-1.63s0.369-1.318,0.369-2.07
			c0-1.503-0.496-2.658-1.486-3.465c-0.991-0.806-2.505-1.209-4.541-1.209H117.4v9.84H120.845z"/>
		<path fill="#E9EBE5" d="M151.537,123.874h1.291c0.52,0,0.95-0.071,1.292-0.215c0.341-0.143,0.636-0.372,0.881-0.687l8.18-10.353
			c0.342-0.438,0.7-0.741,1.076-0.912s0.852-0.256,1.425-0.256h4.756l-9.983,12.32c-0.588,0.752-1.195,1.285-1.824,1.599
			c0.451,0.164,0.857,0.394,1.22,0.687c0.362,0.295,0.707,0.68,1.035,1.158l10.291,13.879h-4.858c-0.656,0-1.145-0.092-1.466-0.277
			c-0.321-0.184-0.591-0.453-0.81-0.809l-8.385-10.947c-0.26-0.369-0.561-0.629-0.901-0.779c-0.342-0.15-0.834-0.226-1.477-0.226
			h-1.742v13.038h-5.515v-29.643h5.515V123.874z"/>
	</g>
	<g>
		<path fill-rule="evenodd" clip-rule="evenodd" fill="#262626" d="M105.334,72.677c0,2.75-2.25,5-5,5H91.68c-2.75,0-5-2.25-5-5V5
			c0-2.75,2.25-5,5-5h8.654c2.75,0,5,2.25,5,5V72.677z"/>
	</g>
</g>
</svg>
