<?xml version="1.0" encoding="utf-8"?>
<!-- Generator: Adobe Illustrator 21.0.0, SVG Export Plug-In . SVG Version: 6.00 Build 0)  -->
<svg version="1.1" id="Layer_1" xmlns="http://www.w3.org/2000/svg" xmlns:xlink="http://www.w3.org/1999/xlink" x="0px" y="0px"
	 viewBox="0 0 27 27" style="enable-background:new 0 0 27 27;" xml:space="preserve">
<style type="text/css">
	.st0{fill:#EAEAEA;}
</style>
<g>
	<path class="st0" d="M0,21.1c0-4.8,0-9.5,0-14.3c0-0.1,0-0.1,0-0.2c0.1-0.7,0.5-1.4,1-1.9c0.7-0.6,1.5-0.9,2.4-0.9
		c6.6,0,13.1,0,19.7,0c0.2,0,0.5,0,0.7,0C25.1,4,26,4.5,26.6,5.6c0.2,0.4,0.3,0.8,0.4,1.2c0,4.8,0,9.5,0,14.3c0,0.1-0.1,0.2-0.1,0.3
		c-0.2,0.7-0.5,1.3-1,1.8c-0.7,0.6-1.5,0.9-2.4,0.9c-2.7,0-5.3,0-8,0c-4,0-8,0-12,0c-1.5,0-2.5-0.6-3.2-2C0.2,21.7,0.1,21.4,0,21.1z
		 M2.9,22.2C3,22.2,3,22.2,2.9,22.2c0.2,0.1,0.4,0.2,0.7,0.2c4.3,0,8.6,0,12.9,0c2.3,0,4.6,0,7,0c0.2,0,0.4-0.1,0.7-0.1
		c-2.5-2.8-4.9-5.6-7.3-8.4c-0.2,0.1-0.3,0.2-0.4,0.4c-0.8,0.7-1.5,1.3-2.3,2c-0.3,0.3-0.8,0.3-1.1,0c-0.5-0.4-1-0.8-1.5-1.2
		c-0.4-0.4-0.8-0.7-1.3-1.1C7.8,16.7,5.4,19.4,2.9,22.2z M13.5,14.5c3.5-3,6.9-5.9,10.5-9c-0.2,0-0.3-0.1-0.5-0.1
		c-6.6,0-13.3,0-19.9,0c-0.1,0-0.3,0-0.5,0.1C6.6,8.5,10,11.5,13.5,14.5z M18.1,12.8c2.4,2.7,4.8,5.4,7.1,8.2c0,0,0,0,0.1,0
		c0-0.2,0-0.3,0-0.5c0-4.4,0-8.8,0-13.1c0-0.2,0-0.3,0-0.5c0,0,0-0.1-0.1-0.2C22.8,8.7,20.5,10.7,18.1,12.8z M1.9,6.7
		C1.8,6.7,1.8,6.7,1.9,6.7C1.8,6.9,1.7,7.1,1.7,7.3c0,4.4,0,8.9,0,13.3c0,0.1,0,0.3,0,0.4c0,0,0,0,0.1,0c2.4-2.7,4.8-5.4,7.1-8.2
		C6.6,10.7,4.2,8.7,1.9,6.7z"/>
</g>
</svg>
