<?xml version="1.0" encoding="utf-8"?>
<!-- Generator: Adobe Illustrator 21.0.0, SVG Export Plug-In . SVG Version: 6.00 Build 0)  -->
<svg version="1.1" id="Layer_1" xmlns="http://www.w3.org/2000/svg" xmlns:xlink="http://www.w3.org/1999/xlink" x="0px" y="0px"
	 viewBox="0 0 27 27" style="enable-background:new 0 0 27 27;" xml:space="preserve">
<style type="text/css">
	.st0{fill:#E9EBE4;}
	.st1{fill:none;}
</style>
<g>
	<g>
		<path class="st0" d="M2.9,13.4c0-3.8,0-7.6,0-11.4c0-1.2,0.8-2,2-2C8.9,0,13,0,17,0c0.1,0,0.3,0.1,0.4,0.2
			c2.1,2.1,4.3,4.3,6.4,6.4c0.1,0.1,0.1,0.2,0.1,0.3c0,4.9,0,9.8,0,14.6c0,1.1,0,2.2,0,3.3c0,0.9-0.6,1.6-1.4,1.9
			c-0.2,0.1-0.4,0.1-0.6,0.1c-5.7,0-11.3,0-17,0c-1.2,0-2-0.8-2-2C2.9,21,2.9,17.2,2.9,13.4C2.9,13.4,2.9,13.4,2.9,13.4z M15.3,1.9
			c-0.1,0-0.2,0-0.2,0c-2.8,0-5.6,0-8.4,0c-0.1,0-0.2,0-0.3,0c-1,0.2-1.6,1-1.6,2.1c0,6.3,0,12.5,0,18.8c0,1.3,0.8,2.1,2.1,2.1
			c4.4,0,8.7,0,13.1,0c1.2,0,2-0.8,2-2c0-4.6,0-9.3,0-13.9c0-0.1,0-0.2,0-0.3c-0.2,0-0.3,0-0.5,0c-1.4,0-2.8,0-4.2,0
			c-1.2,0-2-0.8-2-2c0-1.5,0-2.9,0-4.4C15.3,2.1,15.3,2,15.3,1.9z"/>
		<path class="st1" d="M2.9,13.4c0,3.8,0,7.6,0,11.4c0,1.2,0.8,2,2,2c5.7,0,11.3,0,17,0c0.2,0,0.4,0,0.6-0.1c0.8-0.2,1.4-1,1.4-1.9
			c0-1.1,0-2.2,0-3.3c0-4.9,0-9.8,0-14.6c0-0.1-0.1-0.3-0.1-0.3c-2.1-2.1-4.3-4.3-6.4-6.4C17.3,0.1,17.1,0,17,0C13,0,8.9,0,4.9,0
			c-1.2,0-2,0.8-2,2C2.9,5.8,2.9,9.6,2.9,13.4C2.9,13.4,2.9,13.4,2.9,13.4z"/>
	</g>
	<path class="st0" d="M13.4,22.9c-1.9,0-3.8,0-5.7,0c-0.6,0-1-0.4-1-1c0-0.6,0.4-0.9,1-0.9c3.8,0,7.5,0,11.3,0c0.6,0,1,0.4,1,1
		c0,0.6-0.4,0.9-1,0.9C17.2,22.9,15.3,22.9,13.4,22.9z"/>
	<path class="st0" d="M13.4,13.4c1.9,0,3.8,0,5.6,0c0.6,0,1,0.4,1,0.9c0,0.6-0.4,1-1,1c-1.3,0-2.6,0-3.9,0c-2.5,0-4.9,0-7.4,0
		c-0.8,0-1.3-0.6-1-1.3c0.1-0.4,0.5-0.6,1-0.6c1.4,0,2.8,0,4.1,0C12.4,13.4,12.9,13.4,13.4,13.4C13.4,13.4,13.4,13.4,13.4,13.4z"/>
	<path class="st0" d="M13.4,19.1c-1.9,0-3.8,0-5.7,0c-0.8,0-1.3-0.7-0.9-1.4c0.2-0.4,0.5-0.5,1-0.5c1.1,0,2.2,0,3.3,0
		c2.6,0,5.2,0,7.8,0c0.2,0,0.4,0,0.6,0.1c0.4,0.2,0.6,0.6,0.5,1.1c-0.1,0.4-0.5,0.7-0.9,0.7c-1.2,0-2.5,0-3.7,0
		C14.8,19.1,14.1,19.1,13.4,19.1C13.4,19.1,13.4,19.1,13.4,19.1z"/>
	<path class="st0" d="M10,11.5c-0.8,0-1.5,0-2.3,0c-0.6,0-1-0.4-1-0.9c0-0.6,0.4-1,1-1c1.5,0,3.1,0,4.6,0c0.6,0,1.1,0.4,1,1
		c0,0.5-0.5,0.9-1,0.9C11.6,11.5,10.8,11.5,10,11.5z"/>
</g>
</svg>
