<?xml version="1.0" encoding="utf-8"?>
<!-- Generator: Adobe Illustrator 21.0.0, SVG Export Plug-In . SVG Version: 6.00 Build 0)  -->
<svg version="1.1" id="Layer_2" xmlns="http://www.w3.org/2000/svg" xmlns:xlink="http://www.w3.org/1999/xlink" x="0px" y="0px"
	 viewBox="0 0 1000 1000" style="enable-background:new 0 0 1000 1000;" xml:space="preserve">
<style type="text/css">
	.st0{fill:#27235E;}
	.st1{fill:#00AF48;}
</style>
<circle class="st0" cx="504.8" cy="513.8" r="432"/>
<title>zombie_selfie</title>
<path class="st1" d="M514.8,0c23.5,3,50,5,71,9.5C857.6,57,1039.5,315.9,992,587.7s-306.4,453.7-578.2,406.2
	C141.9,946.4-40,687.5,7.5,415.7C41.7,220.4,188,63.8,380.4,16.5C411.9,9.5,443.9,6,475.9,0H514.8z M475.4,125.4
	c-206.6,19.9-357.9,203.5-338,410.1c18.1,187.3,171.9,332.4,359.9,339.4c226.8,0,386.7-199.9,373.8-373.8
	C887.1,333.3,726.2,112.4,475.4,125.4z"/>
</svg>
