<?xml version="1.0" encoding="utf-8"?>
<!-- Generator: Adobe Illustrator 21.0.0, SVG Export Plug-In . SVG Version: 6.00 Build 0)  -->
<svg version="1.1" id="contact" xmlns="http://www.w3.org/2000/svg" xmlns:xlink="http://www.w3.org/1999/xlink" x="0px" y="0px"
	 viewBox="0 0 20.9 16.6" style="enable-background:new 0 0 20.9 16.6;" xml:space="preserve">
<style type="text/css">
	.st0{fill:#E9EBE5;}
</style>
<title>zombie_selfie</title>
<path class="st0" d="M10.8,8.4c0.8,0.5,1.5,1,2.2,1.6c1.7,1.5,2.8,3.6,3.3,5.8c0.1,0.6,0,0.8-0.7,0.8c-4.6,0-9.2,0-13.7,0l-1.2,0
	C1.3,13,3,9.7,6.5,8.3C6,7.7,5.5,7,5.1,6.3c-0.8-1.7-0.5-3.6,0.7-5c1.1-1.2,2.8-1.5,4.2-0.7c2.3,1.3,3.1,4.3,1.7,6.6
	C11.5,7.6,11.1,8,10.8,8.4z"/>
<path class="st0" d="M15.7,7.6L16.4,8c1.7,1.1,3.1,2.8,3.8,4.7c0.2,0.4,0.4,0.9,0.5,1.4c0.1,0.6-0.1,0.8-0.7,0.8s-1.1,0-1.7,0
	c-0.6,0-1.2-0.4-1.3-1c-0.6-2.1-1.9-4-3.7-5.3c-0.3-0.3-0.6-0.6-0.8-0.9c1.6-2.2,1.4-5.2-0.4-7.3c1.2-0.8,2.8-0.6,3.7,0.5
	c2.1,2.1,1.9,4.9,0.1,6.4C15.7,7.5,15.7,7.5,15.7,7.6z"/>
</svg>
