<?xml version="1.0" encoding="utf-8"?>
<!-- Generator: Adobe Illustrator 21.0.0, SVG Export Plug-In . SVG Version: 6.00 Build 0)  -->
<svg version="1.1" id="contact" xmlns="http://www.w3.org/2000/svg" xmlns:xlink="http://www.w3.org/1999/xlink" x="0px" y="0px"
	 viewBox="0 0 20.9 16.6" style="enable-background:new 0 0 20.9 16.6;" xml:space="preserve">
<style type="text/css">
	.st0{fill:#E9EBE5;}
</style>
<title>zombie_selfie</title>
<g>
	<path class="st0" d="M0,8.3C1.5,7,3,5.7,4.5,4.5c1.6-1.3,3.1-2.6,4.7-3.9c0.9-0.7,1.6-0.7,2.4,0c0.9,0.8,1.9,1.6,2.9,2.4
		c0-0.8,0-1.5,0-2.2c0-0.7,0.1-0.8,0.8-0.8c0.6,0,1.3,0,1.9,0c0.5,0,0.6,0.1,0.6,0.6c0,1.6,0,3.1,0,4.7c0,0.2,0.1,0.5,0.3,0.6
		c0.9,0.8,1.8,1.5,2.7,2.3c0,0.1,0,0.2,0,0.4c-0.3,0.3-0.5,0.6-0.8,0.9c-0.3,0.4-0.5,0.4-0.9,0c-1.7-1.4-3.5-2.9-5.2-4.3
		c-1.2-1-2.4-2-3.6-3c-1.2,1-2.5,2-3.7,3.1C5.1,6.7,3.4,8.1,1.7,9.6C1.3,9.9,1.1,9.9,0.8,9.5C0.5,9.2,0.3,8.9,0,8.6
		C0,8.5,0,8.4,0,8.3z"/>
	<path class="st0" d="M12.1,16.6c0-1.7,0-3.3,0-4.9c-1.1,0-2.2,0-3.3,0c0,1.6,0,3.2,0,4.9c-0.2,0-0.3,0-0.4,0c-1.5,0-2.9,0-4.4,0
		c-0.7,0-1-0.3-1-1c0-1.9,0-3.8,0-5.8c0-0.2,0.1-0.4,0.2-0.5c2.4-2,4.8-4,7.2-6c0.9,0.7,1.7,1.4,2.5,2.1c1.6,1.3,3.1,2.6,4.6,3.8
		c0.1,0.1,0.3,0.4,0.3,0.6c0,1.9,0,3.8,0,5.7c0,0.7-0.3,1-1,1C15.3,16.6,13.8,16.6,12.1,16.6z"/>
</g>
</svg>
