<?xml version="1.0" encoding="utf-8"?>
<!-- Generator: Adobe Illustrator 21.0.0, SVG Export Plug-In . SVG Version: 6.00 Build 0)  -->
<svg version="1.1" xmlns="http://www.w3.org/2000/svg" xmlns:xlink="http://www.w3.org/1999/xlink" x="0px" y="0px"
	 viewBox="0 0 27 27" style="enable-background:new 0 0 27 27;" xml:space="preserve">
<style type="text/css">
	.st0{fill:#F3F3F4;}
	.st1{fill:#262626;}
</style>
<g id="Layer_1">
	<path class="st0" d="M7.6,11l-4.9,4.5v5.1c0,0,1.4,2.8,4.2,3.2s9.1,0.6,10.9,0.3s6.2-1.6,6.4-3.4s1.9-6.4,0-7.6s-6.9-2.1-8.6-2.1
		S7.6,11,7.6,11z"/>
	<g>
		<path class="st1" d="M0,15.4c0-0.7,0-1.4,0-2c0,0,0-0.1,0.1-0.1c0.2-1.7,0.9-3.2,2-4.5c0.1-0.1,0.1-0.3,0.1-0.5c0-0.7,0-1.5,0-2.2
			c0.1-1.4,0.4-2.7,1-4c2.3,0.5,4.3,1.5,6.2,2.8C9.6,5,10,5,10.3,5c1.7,0,3.4-0.3,5.1-0.1c1.2,0.1,2.2,0,3.3-0.7
			c1.5-1,3.3-1.8,5.2-2.1c0.7,1.9,1.1,3.7,1,5.7c0,0.6,0.1,1,0.4,1.4c0.5,0.8,1,1.7,1.3,2.6c0.6,1.6,0.4,3.3,0.1,5
			c-0.6,4.3-3.7,7.4-8,7.9c-3.5,0.4-7,0.5-10.5,0c-3.8-0.5-6.8-2.8-7.8-6.8C0.2,17.1,0.1,16.2,0,15.4z M13.5,23.7c2,0,4.1,0,6-0.6
			c3.6-1,4.3-4.3,3.7-6.8c-0.5-2.1-2.2-3.2-4.5-3.2c-2.1,0-4.1,0.2-6.2,0.2c-1.4,0-2.7-0.2-4.1-0.2c-1.5,0-2.8,0.4-3.8,1.7
			C2.4,17.7,3.8,22,7.4,23C9.4,23.6,11.4,23.7,13.5,23.7z"/>
	</g>
</g>
<g id="Layer_2">
	<ellipse class="st1" cx="8.9" cy="18.1" rx="1.9" ry="2.6"/>
	<ellipse class="st1" cx="18.3" cy="18" rx="1.9" ry="2.6"/>
</g>
</svg>
