<?xml version="1.0" encoding="utf-8"?>
<!-- Generator: Adobe Illustrator 21.0.0, SVG Export Plug-In . SVG Version: 6.00 Build 0)  -->
<svg version="1.1" id="Layer_1" xmlns="http://www.w3.org/2000/svg" xmlns:xlink="http://www.w3.org/1999/xlink" x="0px" y="0px"
	 viewBox="0 0 1000 682.5" style="enable-background:new 0 0 1000 682.5;" xml:space="preserve">
<style type="text/css">
	.st0{fill:#262626;}
</style>
<g>
	<path class="st0" d="M664.4,682.4c-54.4,0-108.1,0-163.4,0c0.9-21.2,1.5-42.1,2.9-63c1.5-21.7,3.4-43.5,6.1-65.1
		c4.2-33.5,22.1-58.6,49.6-77.4c37.2-25.5,74.3-51.1,111.5-76.5c13.4-9.2,29.1-7.3,38.2,4.1c9.1,11.4,7.6,26.8-4.2,38.2
		c-25.8,24.6-51.7,49-77.8,73.4c-6.6,6.2-11.8,12.5-5,21.5c5.4,7.2,12.9,6.7,22.8-1.2c32.9-26.4,66-52.5,98.5-79.4
		c4.3-3.6,7.5-10.7,7.9-16.5c3-39.9,5.1-79.8,7.5-119.8c0.8-13.4,1.4-26.9,2.5-40.3c1.4-15.9,13.1-26.3,28.3-25.7
		c15.2,0.5,26.3,11.9,25.5,28.1c-2.1,42.5-4.9,84.9-7.5,127.4c-1.2,20.7-2.7,41.4-3.6,62.1c-0.5,12.5-4.4,22.7-13.7,31.9
		c-41.6,41.2-82.5,83.1-123.9,124.5c-5.2,5.2-6.9,10.4-6,17.4C662.4,658,663.2,669.9,664.4,682.4z"/>
	<path class="st0" d="M456.9,682.5c-56.1,0-109.7,0-164.3,0c1-11,1.4-21.5,3.1-31.8c1.6-10.1-0.8-17.4-8.4-25
		c-41.3-40.9-82.3-82.3-122.6-124.2c-5.8-6-10.6-15.4-11.2-23.5c-4.7-64.2-8.4-128.4-12-192.7c-0.9-16.3,7.3-27.3,21-30
		c17-3.4,31.7,8,32.9,26.1c3.2,49.7,6.6,99.4,8.8,149.2c0.6,14.6,4.9,24.6,16.9,33.7c31.1,23.4,60.8,48.5,91.5,72.5
		c3.9,3.1,9.8,5.4,14.6,5c3.5-0.3,8.9-5.3,9.4-8.7c0.6-4.5-1.5-10.9-4.8-14.1c-26.3-25.6-53.4-50.5-79.6-76.1
		c-4.8-4.7-8.6-11.9-9.9-18.5c-2.1-10.4,2.6-19.3,11.7-25.1c9.4-6,19.6-6.6,28.8-0.4c40.6,27.6,81.1,55.2,121.3,83.4
		c27,18.9,40.9,46.3,44.1,78.3C452.1,600.6,454,640.9,456.9,682.5z"/>
	<path class="st0" d="M590.4,402.9c-5.3-21.3-10.2-41.2-15.2-61c-0.6,0.1-1.3,0.1-1.9,0.2c0,19.4-0.3,38.9,0.2,58.3
		c0.2,7.1-2.2,10.2-9,12.1c-57.4,15.7-114.8,15.8-172.2-0.1c-6.8-1.9-9-5.1-8.8-12.1c0.5-19.4,0.2-38.9-1.6-58.5
		c-5,19.9-9.9,39.8-15.2,60.9c-23.9-8.9-44.1-21.6-61.4-39.1c-1.5-1.5-1.5-5.4-0.9-7.8c6.4-26.8,13-53.6,19.8-80.3
		c4.5-17.9,16.5-30.8,32.8-37.1c20.4-8,41.8-15,63.4-18.2c48.8-7.3,97.9-6.5,146.2,5.3c12.9,3.2,25.5,8.6,37.3,14.8
		c16.5,8.6,26.8,22.6,30.9,41.3c5.4,24.5,12,48.6,17.5,73.1c0.8,3.4-0.3,8.8-2.6,11.1C633.1,381.9,613.6,393.7,590.4,402.9z"/>
	<path class="st0" d="M479,0c53.2,0.1,96.2,43.2,96.3,96.5c0,53-43.3,96.6-96.3,96.8c-54,0.3-97.6-43.6-97.3-98
		C381.9,42.5,425.4-0.1,479,0z"/>
</g>
</svg>
