<?xml version="1.0" encoding="utf-8"?>
<!-- Generator: Adobe Illustrator 21.0.0, SVG Export Plug-In . SVG Version: 6.00 Build 0)  -->
<svg version="1.1" id="Layer_1" xmlns="http://www.w3.org/2000/svg" xmlns:xlink="http://www.w3.org/1999/xlink" x="0px" y="0px"
	 viewBox="0 0 27 27" style="enable-background:new 0 0 27 27;" xml:space="preserve">
<style type="text/css">
	.st0{fill:#F3F3F4;}
	.st1{fill:#262626;}
	.st2{font-family:'OpenSans-Bold';}
	.st3{font-size:7.9072px;}
</style>
<polygon class="st0" points="2.4,19.1 2.4,7.1 13.5,1.3 24.5,7.2 24.5,20.1 13.5,25.6 "/>
<text transform="matrix(1 0 0 1 6.041 19.2676)" class="st1 st2 st3">3</text>
<text transform="matrix(1 0 0 1 16.1182 19.2676)" class="st1 st2 st3">D</text>
<rect x="1.3" y="6.6" class="st1" width="2.3" height="13.8"/>
<rect x="17.8" y="-2.6" transform="matrix(0.472 -0.8816 0.8816 0.472 6.2409 19.0209)" class="st1" width="2.3" height="13.8"/>
<rect x="6.8" y="-2.6" transform="matrix(0.4772 0.8788 -0.8788 0.4772 7.9593 -4.6965)" class="st1" width="2.3" height="13.8"/>
<rect x="6.8" y="3.4" transform="matrix(-0.472 0.8816 -0.8816 -0.472 20.7717 8.1674)" class="st1" width="2.3" height="13.8"/>
<rect x="17.8" y="3.3" transform="matrix(-0.4772 -0.8788 0.8788 -0.4772 19.066 31.8695)" class="st1" width="2.3" height="13.8"/>
<rect x="6.8" y="15.8" transform="matrix(-0.472 0.8816 -0.8816 -0.472 31.6808 26.4251)" class="st1" width="2.3" height="13.8"/>
<rect x="17.8" y="15.7" transform="matrix(-0.4772 -0.8788 0.8788 -0.4772 8.1534 50.1686)" class="st1" width="2.3" height="13.8"/>
<rect x="12.2" y="12.2" class="st1" width="2.3" height="13.8"/>
<rect x="23.3" y="6.5" class="st1" width="2.3" height="13.8"/>
</svg>
