<?xml version="1.0" encoding="utf-8"?>
<!-- Generator: Adobe Illustrator 21.0.0, SVG Export Plug-In . SVG Version: 6.00 Build 0)  -->
<svg version="1.1" id="Layer_1" xmlns="http://www.w3.org/2000/svg" xmlns:xlink="http://www.w3.org/1999/xlink" x="0px" y="0px"
	 viewBox="0 0 27.3 27" style="enable-background:new 0 0 27.3 27;" xml:space="preserve">
<style type="text/css">
	.st0{fill:#262626;}
</style>
<g>
	<path class="st0" d="M1.2,9c-0.1,0-0.3,0-0.4,0C0.4,9.1,0,9.1,0,8.7c0-0.5,0.3-0.6,0.7-0.6C1.5,8,2.4,7.9,3.3,7.8
		c7.3-1,14-3.5,20.1-7.6c0.1,0,0.1-0.1,0.2-0.1c0.3,0,0.7-0.1,0.8,0c0.3,0.3,0.1,0.6-0.2,0.8c-1.2,0.7-2.3,1.5-3.6,2.2
		C15.1,6.1,9.3,8,3.1,8.9c-0.3,0-0.7,0.1-1,0.1C1.8,9,1.5,9,1.2,9C1.2,9,1.2,9,1.2,9z"/>
	<path class="st0" d="M14.3,20.3c-4.2-0.1-8.2-0.6-12.2-1.7c-0.4-0.1-0.7-0.2-0.6-0.7c0.1-0.5,0.5-0.4,0.9-0.3
		c5.7,1.6,11.5,1.9,17.3,1.3c2.2-0.2,4.4-0.8,6.6-1.2c0.1,0,0.2-0.1,0.2-0.1c0.3,0.1,0.6,0.1,0.7,0.3c0.2,0.3-0.1,0.6-0.5,0.6
		c-0.8,0.2-1.6,0.5-2.4,0.6c-1.2,0.2-2.4,0.5-3.6,0.6C18.6,20,16.5,20.1,14.3,20.3z"/>
	<path class="st0" d="M17.5,5.9c1.5-0.8,3-1.6,4.5-2.3c0.8,1.7,1.6,3.5,2.5,5.4c-0.9-0.1-1.6-0.2-2.3-0.4c-0.6-0.1-1,0-1.2,0.6
		c-0.2,0.7-0.6,1.3-1,2.2C19.1,9.4,18.3,7.7,17.5,5.9z"/>
	<path class="st0" d="M3.9,9.9c1.7-0.3,3.3-0.7,5-1c0.4,1.9,0.8,3.8,1.2,5.9c-0.8-0.4-1.5-0.6-2.1-1c-0.6-0.4-1-0.3-1.4,0.3
		c-0.4,0.6-0.9,1.1-1.5,1.7C4.7,13.8,4.3,11.9,3.9,9.9z"/>
	<path class="st0" d="M19.6,27.1c-0.3-2.1-0.5-4-0.7-5.9c1.7-0.2,3.3-0.5,5-0.7c0.2,1.9,0.5,3.8,0.7,5.9c-0.7-0.4-1.3-0.7-1.9-1
		c-1.1-0.6-0.7-0.7-1.6,0.2C20.6,26,20.2,26.5,19.6,27.1z"/>
	<path class="st0" d="M9.1,27c-0.7-0.7-1.3-1.3-1.9-1.9c-0.3-0.3-0.4-0.3-0.8-0.1c-0.7,0.4-1.5,0.8-2.3,1.3c0.2-2.1,0.5-4,0.7-5.9
		c1.6,0.2,3.1,0.4,4.6,0.6c0.1,0,0.4,0.3,0.4,0.4C9.5,23.3,9.3,25.1,9.1,27z"/>
	<path class="st0" d="M17.5,12.2c-0.8-0.3-1.5-0.5-2.2-0.7c-0.6-0.2-0.9-0.2-1.2,0.4c-0.4,0.6-0.8,1.2-1.3,2
		c-0.6-1.9-1.2-3.7-1.8-5.5c1.6-0.6,3.2-1.1,4.8-1.7C16.2,8.5,16.8,10.3,17.5,12.2z"/>
	<path class="st0" d="M11.8,27c0-2,0-3.9,0-5.8c1.7,0,3.3,0,5,0c0,1.9,0,3.7,0,5.8c-0.6-0.5-1.2-0.9-1.7-1.3c-0.8-0.6-0.8-0.6-1.5,0
		C13,26.1,12.5,26.5,11.8,27z"/>
</g>
</svg>
