<?xml version="1.0" encoding="utf-8"?>
<!-- Generator: Adobe Illustrator 21.0.0, SVG Export Plug-In . SVG Version: 6.00 Build 0)  -->
<svg version="1.1" id="Layer_1" xmlns="http://www.w3.org/2000/svg" xmlns:xlink="http://www.w3.org/1999/xlink" x="0px" y="0px"
	 viewBox="0 0 34.4 28" style="enable-background:new 0 0 34.4 28;" xml:space="preserve">
<style type="text/css">
	.st0{fill:#262626;}
</style>
<g>
	<path class="st0" d="M14.6,21.3c-2.6,0-5.1-0.5-7.5-1.5c-1.9-0.8-3.6-2-4.9-3.6c-1.1-1.3-1.8-2.7-2.1-4.4c-0.3-1.9,0.1-3.7,1.1-5.3
		c1-1.6,2.3-2.9,3.9-3.9c1.9-1.2,3.9-1.9,6.1-2.3c1.8-0.3,3.6-0.4,5.5-0.2c2.9,0.3,5.6,1.1,8,2.7c1.4,1,2.6,2.1,3.5,3.6
		c0.9,1.6,1.3,3.3,1.1,5.2c-0.2,1.5-0.8,2.9-1.7,4.1c-1.1,1.4-2.4,2.5-3.9,3.3c-2.1,1.2-4.3,1.8-6.6,2.1
		C16.2,21.2,15.4,21.2,14.6,21.3z M14.8,19.5c0.2,0,0.5,0,0.9-0.1c0.9-0.2,1.8-0.5,2.5-1.2c1-1,1-2.4,0.1-3.4
		c-0.3-0.4-0.7-0.7-1.2-0.9c-1.3-0.6-2.6-0.7-4-0.3c-0.8,0.2-1.5,0.6-2,1.3c-0.4,0.5-0.7,1.1-0.6,1.8c0.1,0.8,0.5,1.4,1.1,1.9
		C12.4,19.2,13.5,19.5,14.8,19.5z M22.7,13.7c0.2,0,0.5,0,0.8-0.1c1-0.2,1.8-0.5,2.5-1.3c1-1,1-2.4,0.1-3.4c-0.3-0.3-0.6-0.6-1-0.8
		c-1.2-0.6-2.4-0.8-3.7-0.5c-0.9,0.2-1.7,0.5-2.3,1.2c-0.6,0.6-0.9,1.4-0.7,2.3c0.2,0.7,0.6,1.3,1.2,1.7
		C20.5,13.5,21.5,13.7,22.7,13.7z M6.8,13.7c0.2,0,0.6-0.1,1-0.1c0.9-0.2,1.7-0.6,2.4-1.2c1-1,1-2.4,0-3.4c-0.3-0.3-0.6-0.6-1-0.8
		C8,7.5,6.6,7.4,5.3,7.7C4.4,7.9,3.6,8.4,3,9.1C2.3,10,2.2,11,2.8,12c0.2,0.4,0.5,0.6,0.9,0.9C4.6,13.5,5.6,13.7,6.8,13.7z M14.8,8
		c0.2,0,0.6,0,0.9-0.1c0.9-0.2,1.7-0.5,2.4-1.2c1-1,1-2.5,0-3.5c-0.2-0.2-0.5-0.5-0.8-0.6c-1.3-0.7-2.7-0.9-4.1-0.5
		c-0.8,0.2-1.6,0.6-2.2,1.3c-0.6,0.7-0.8,1.5-0.5,2.4c0.2,0.6,0.6,1,1,1.4C12.4,7.7,13.5,7.9,14.8,8z M14.5,11.4
		c0.4,0,0.8-0.1,1-0.3c0.3-0.3,0.3-0.7,0-1c-0.4-0.4-1.3-0.4-1.7,0c-0.3,0.3-0.3,0.7,0,1C14,11.3,14.3,11.4,14.5,11.4z"/>
	<path class="st0" d="M0,14.1c0.3,0.6,0.7,1.3,1.1,1.8c1.1,1.5,2.5,2.7,4.2,3.6c1.9,1.1,4,1.8,6.1,2.1c2.4,0.4,4.8,0.4,7.2-0.1
		c0.9-0.2,1.8-0.4,2.7-0.7c2.4-0.6,4.9-1.1,7.4-1.5c1.3-0.2,2.6-0.3,3.8-0.3c0.6,0,1.2,0.1,1.8,0.2c0.1,0,0.1,0.1,0.1,0.2
		c0,1.9,0,3.8,0,5.7c0,0,0,0.1,0,0.1c-0.3,0-0.6-0.1-0.9-0.1c-1.3-0.1-2.6-0.1-3.9,0c-2.6,0.2-5.1,0.6-7.5,1.3
		c-0.4,0.1-0.8,0.3-1.2,0.4c-1.4,0.5-2.9,0.8-4.4,0.9C15,28,13.5,28,12,27.8c-2.6-0.3-5-1.1-7.2-2.5c-1.5-1-2.8-2.2-3.7-3.7
		C0.4,20.2,0,18.9,0,17.4c0-1.1,0-2.1,0-3.2C0,14.1,0,14.1,0,14.1z"/>
	<path class="st0" d="M29.2,14.1c0,1.4,0.1,2.8,0,4.2c0,0.1-0.1,0.3-0.1,0.4c0,0.1-0.1,0.2-0.2,0.2c-1.8,0.2-3.5,0.5-5.3,0.9
		c-0.1,0-0.1,0-0.2,0C25.9,18.5,28,16.7,29.2,14.1z"/>
</g>
</svg>
