<?xml version="1.0" encoding="utf-8"?>
<!-- Generator: Adobe Illustrator 21.0.0, SVG Export Plug-In . SVG Version: 6.00 Build 0)  -->
<svg version="1.1" id="Layer_1" xmlns="http://www.w3.org/2000/svg" xmlns:xlink="http://www.w3.org/1999/xlink" x="0px" y="0px"
	 viewBox="0 0 1000 682.5" style="enable-background:new 0 0 1000 682.5;" xml:space="preserve">
<style type="text/css">
	.st0{fill:#262626;}
</style>
<g>
	<path class="st0" d="M1000,611.6c-235.7,19.7-462.8,38.6-689.9,57.6c-0.4-1.6-0.8-3.1-1.2-4.7c7-3.8,13.9-7.9,21-11.5
		c137.1-68.6,274.4-136.9,411.2-206c17-8.6,28.8-9,44.7,3.3C854.1,503.2,923.8,554.4,1000,611.6z"/>
	<path class="st0" d="M205,104c30.9,15.2,57,27,81.9,41.1c6.9,3.9,12,13.8,14.8,22c31.9,94.1,63.4,188.4,94.4,282.9
		c2.6,7.8,4,20.1-0.2,25.3c-41.8,51.9-84.8,102.7-132,159.3C243.9,454.6,224.7,281.8,205,104z"/>
	<path class="st0" d="M860,465.8c-27.6-20.5-51.3-39.7-76.8-56c-8-5.1-22.7-6.4-31.4-2.7c-30.3,12.8-59.3,28.7-92.4,39.2
		C754.2,303.8,849.1,161.4,944.1,19c1.6,0.6,3.3,1.2,4.9,1.8C919.6,167.8,890.2,314.8,860,465.8z"/>
	<path class="st0" d="M672.3,363.2c-31.6-32.7-63.2-65.4-97.6-101.1c-50,59.8-97.3,116.3-145.9,174.5c-16.5-27.4-19-50-2.4-78.1
		c45.9-77.6,88.3-157.2,132.1-235.9c4.4-7.9,9.2-15.7,15.7-26.8c31.4,47.1,61.3,91.8,91.1,136.4c6.2,9.3,12.4,18.6,18.5,27.9
		C718.9,312.6,718.9,312.7,672.3,363.2z"/>
	<path class="st0" d="M573.8,313c28.5,28.6,53.9,54.2,80.2,80.6c-29.6,50.5-59.5,98.4-120,123c-70.8,28.8-137.7,67.2-210.5,97
		C406.4,514,489.4,414.3,573.8,313z"/>
	<path class="st0" d="M173.2,115.6c3.4,27.6,7.4,54.2,9.4,81.1c0.5,6.3-4.4,16.9-9.5,19.1C117.8,238.9,62,260.8,4.9,283.7
		C61.7,227,116.7,172.1,173.2,115.6z"/>
</g>
</svg>
