<?xml version="1.0" encoding="utf-8"?>
<!-- Generator: Adobe Illustrator 21.0.0, SVG Export Plug-In . SVG Version: 6.00 Build 0)  -->
<svg version="1.1" id="Layer_1" xmlns="http://www.w3.org/2000/svg" xmlns:xlink="http://www.w3.org/1999/xlink" x="0px" y="0px"
	 viewBox="0 0 43.8 27" style="enable-background:new 0 0 43.8 27;" xml:space="preserve">
<style type="text/css">
	.st0{fill:#FC4A5B;}
	.st1{font-family:'MyriadPro-Bold';}
	.st2{font-size:37.0782px;}
</style>
<g>
	<path class="st0" d="M4.7,17.8c1.4,0,2.8,0,4.2,0c0.3,0,0.4,0.1,0.5,0.4c0.4,1,1.2,1.5,2.2,1.7c1.8,0.3,3.6,0.3,5.5,0
		c0.4-0.1,0.8-0.2,1.1-0.4c0.4-0.2,0.5-0.6,0.5-1c0-0.4-0.3-0.7-0.7-0.9c-0.9-0.3-1.9-0.4-2.9-0.5c-1.5-0.1-3-0.2-4.5-0.4
		c-2.4-0.2-4.7-0.6-6.8-1.7c-1.9-1-2.9-2.6-3.2-4.7C0.4,9,0.5,7.8,0.9,6.5c0.6-2,1.9-3.4,3.7-4.4c2-1.2,4.2-1.6,6.5-1.8
		c2.1-0.2,4.2-0.1,6.3,0.2c2.1,0.3,4.1,0.9,5.9,2.1c2,1.4,3.3,3.3,3.8,5.7c0.1,0.7,0.1,0.7-0.6,0.7c-2.6,0-5.3,0-7.9,0
		c-0.3,0-0.5-0.1-0.6-0.4c-0.3-0.8-0.9-1.1-1.6-1.3c-2-0.5-4.1-0.5-6.1,0c-0.7,0.2-1.1,0.7-1,1.3c0,0.4,0.3,0.6,0.6,0.7
		c0.7,0.3,1.4,0.3,2.1,0.4c1.9,0.2,3.7,0.3,5.6,0.5c1.7,0.2,3.4,0.4,5,1c2.1,0.7,3.8,1.8,4.5,4c0.4,1.1,0.5,2.2,0.4,3.3
		c-0.1,2.1-0.9,3.8-2.4,5.3c-1.2,1.2-2.7,1.9-4.3,2.3c-2.7,0.8-5.4,0.8-8.2,0.7c-2.2-0.1-4.4-0.4-6.5-1.1c-2.7-1-4.6-2.8-5.6-5.6
		c-0.2-0.6-0.3-1.3-0.4-2c0-0.3,0.1-0.3,0.3-0.3C1.8,17.8,3.2,17.8,4.7,17.8z"/>
</g>
<text transform="matrix(0.4954 0 0 1 27.3916 25.9102)" class="st0 st1 st2">W</text>
</svg>
