<?xml version="1.0" encoding="utf-8"?>
<!-- Generator: Adobe Illustrator 21.0.0, SVG Export Plug-In . SVG Version: 6.00 Build 0)  -->
<svg version="1.1" id="Layer_1" xmlns="http://www.w3.org/2000/svg" xmlns:xlink="http://www.w3.org/1999/xlink" x="0px" y="0px"
	 viewBox="0 0 18.6 28" style="enable-background:new 0 0 18.6 28;" xml:space="preserve">
<style type="text/css">
	.st0{fill:#262626;}
</style>
<g>
	<path class="st0" d="M0.6,11c0.8,2.3,1.7,4.5,2.8,6.7C5.1,21.1,7,24.5,8.9,28c0.1,0,0.2,0,0.3,0c0.1-0.2,0.3-0.4,0.4-0.6
		c1.1-2,2.3-3.9,3.4-5.9c1.7-3.2,3.4-6.4,4.5-9.8c0.5-1.5,0.7-3,0.4-4.6c-1.1-5.1-6.2-8.1-11.2-6.7C1.7,1.7-0.9,6.9,0.6,11z
		 M14.7,8.5c0.1,3.2-2.4,5.8-5.6,5.8c-3.1,0-5.7-2.4-5.8-5.5C3.3,5.8,5.8,3.3,9,3.2C12.1,3.2,14.7,5.6,14.7,8.5z"/>
	<path class="st0" d="M9,12.2c1.9,0,3.5-1.5,3.5-3.4c0-1.9-1.6-3.4-3.4-3.5c-1.8,0-3.4,1.5-3.4,3.4C5.6,10.6,7.2,12.2,9,12.2z"/>
</g>
</svg>
