<?xml version="1.0" encoding="utf-8"?>
<!-- Generator: Adobe Illustrator 24.1.0, SVG Export Plug-In . SVG Version: 6.00 Build 0)  -->
<svg version="1.1" id="Layer_1" xmlns="http://www.w3.org/2000/svg" xmlns:xlink="http://www.w3.org/1999/xlink" x="0px" y="0px"
	 viewBox="0 0 1000 682.5" style="enable-background:new 0 0 1000 682.5;" xml:space="preserve">
<style type="text/css">
	.st0{fill:#262626;}
</style>
<g>
	<path class="st0" d="M92.5,340.6c0-42.2,0-84.5,0-126.7c0-15.6,8-23.5,23.9-23.5c47.7,0,95.5,0.1,143.2-0.2c5,0,10.9-1.9,14.8-4.9
		C350.1,126.6,425.5,67.7,501,8.9c1.7-1.3,3.5-2.6,5.1-4.1c7.7-7.3,15.1-7.8,22.8-0.9c1.8,1.6,3.5,4.5,3.5,6.9
		c-0.2,47.7-1.1,95.3-1.1,143c-0.2,169-0.1,337.9-0.1,506.9c0,0.8,0,1.6,0,2.5c0.3,7.7-2,14.9-9.2,17.9c-7,2.9-14.1,1.5-20.6-3.8
		c-32.3-26.4-64.8-52.4-97.3-78.6c-43.3-34.9-86.6-70-130.1-104.7c-3.5-2.8-8.8-4.7-13.2-4.7c-48.3-0.3-96.6-0.2-144.8-0.2
		c-18.5,0-23.4-4.9-23.5-23.4C92.5,424,92.5,382.3,92.5,340.6L92.5,340.6z"/>
	<path class="st0" d="M800.5,603.2c-6.9-7-14.7-14.7-23.1-23.2c25.5-26.7,50.9-53.3,76.8-80.4c-25.8-25.9-51.3-51.4-77.7-77.8
		c26.1-26.9,51.8-53.2,78.2-80.4c-26.1-26.8-51.7-53.1-76.7-78.8c26-26.2,51.4-51.8,77.4-78.1c-26.7-27.9-52.1-54.6-77.7-81.4
		c8.5-8,16.6-15.6,24.3-22.8c33.9,33.9,68.7,68.7,103.9,103.9c-25.4,25.3-51.5,51.4-77.8,77.7c26.8,26.7,52.8,52.5,79.5,79
		c-27,26.7-53.2,52.6-79.6,78.7c27.1,26.9,53,52.8,78.3,78C870.6,533.2,835.7,568,800.5,603.2z"/>
	<path class="st0" d="M679.8,262.5c25.7,26.6,50.6,52.4,76.3,79c-25.3,26.2-50.4,52.2-76.3,79c25.4,26.3,50.6,52.4,76.3,79
		c-34.2,35.3-67.8,70.1-101.8,105.3c-9.5-8.3-18.5-16.2-27.7-24.2c26.9-26.9,53.5-53.4,80.8-80.6c-27.5-26.3-54.1-51.8-80.8-77.3
		c26.8-26.9,53.4-53.5,80.5-80.7c-27.4-27.5-54-54.2-81-81.2c26.9-25.7,53.4-51.1,80.3-76.7c-27-26.8-53.8-53.3-81.1-80.4
		c10.5-9.2,19.5-17.1,29.1-25.5c33.9,35.1,67.6,69.9,101.8,105.3C730.6,209.8,705.5,235.8,679.8,262.5z"/>
</g>
</svg>
