<?xml version="1.0" encoding="utf-8"?>
<!-- Generator: Adobe Illustrator 27.0.1, SVG Export Plug-In . SVG Version: 6.00 Build 0)  -->
<svg version="1.1" id="eeg" xmlns="http://www.w3.org/2000/svg" xmlns:xlink="http://www.w3.org/1999/xlink" x="0px" y="0px"
	 viewBox="0 0 17.7 19.8" style="enable-background:new 0 0 17.7 19.8;" xml:space="preserve">
<style type="text/css">
	.st0{fill:#E9EBE5;}
</style>
<g>
	<path class="st0" d="M5.7,8.7c-0.5,0.3-1,0.5-1.6,0.6c0.1,0,0.1-0.1,0.2-0.1c0.8-0.5,1.5-1,2.1-1.7C7,7,7.5,6.5,7.9,5.8
		C8,5.7,8,5.6,8.1,5.5C7.7,5.7,7.4,5.9,6.9,6c0.2-0.3,0.2-0.4,0.2-0.7C6.5,5.7,5.9,5.9,5.2,6c0.5-0.4,1-0.8,1.5-1.2
		c0.5-0.4,1-0.9,1.4-1.4c-0.2,0-0.4,0.1-0.7,0.1C7.7,3.2,8,3,8.1,2.6C7.9,3,7.5,3.1,7.1,3.2c0,0,0,0,0,0C7.6,2.8,8,2.3,8.3,1.8
		C8.5,1.4,8.8,1,9,0.6c0,0,0-0.1,0.1-0.1c0.1,0.6,0.5,1.2,0.8,1.7c0.4,0.5,0.8,1,1.2,1.5c0,0,0.1,0.1,0.1,0.1c-0.2,0-0.3,0-0.4-0.1
		c-0.1,0-0.2-0.1-0.4-0.1c0,0.1,0.1,0.2,0.1,0.2c0.2,0.2,0.4,0.5,0.6,0.7c0.4,0.4,0.8,0.7,1.2,1.1c0,0,0.1,0.1,0.1,0.1
		c-0.6-0.1-1.1-0.3-1.6-0.5c0,0.1,0,0.1,0.1,0.1c0.2,0.4,0.6,0.7,0.9,1c0.6,0.6,1.4,1.1,2.1,1.5c0,0,0.1,0,0.1,0.1c0,0,0,0,0,0
		c0,0-0.1,0.1-0.1,0.1c-0.3,0.2-0.6,0.3-0.9,0.3c-0.4,0.1-0.7,0.1-1.1,0c0,0.1,0,0.1,0.2,0.4c0.1,0.1,0.2,0.2,0.3,0.3
		c0.1,0.1,0.2,0.2,0.3,0.3c-0.2,0-0.3,0-0.4,0c-0.4-0.1-0.7-0.3-1-0.6c-0.1-0.1-0.1-0.1-0.2-0.2c0,0.1,0,0.1,0,0.2
		c0.2,0.5,0.4,0.9,0.7,1.3c0.6,0.8,1.2,1.4,2,2c0,0,0.1,0.1,0.1,0.1c-0.2,0.1-0.5,0.1-0.7,0c-0.2,0-0.4-0.1-0.7-0.2
		c0,0.1,0,0.1,0,0.2c0.1,0.3,0.2,0.5,0.4,0.8c0,0,0.1,0.1,0.1,0.2c-0.8-0.1-1.4-0.5-2.1-0.8c0,0.1,0.1,0.2,0.1,0.3
		c0.1,0.3,0.3,0.6,0.5,0.8c0.5,0.7,1.1,1.3,1.8,1.9c0.1,0.1,0.2,0.2,0.3,0.3c-0.2,0.1-0.5,0-1.1-0.3c0,0.2,0,0.3,0.1,0.5
		c-0.3-0.2-0.6-0.5-0.9-0.8c0,0.4,0.1,0.7,0.4,1c-0.1,0-0.2,0-0.2,0c-0.4-0.1-0.8-0.4-1.1-0.7c-0.3-0.3-0.5-0.6-0.8-0.9
		c0,0-0.1-0.1-0.1-0.1c0,0.9,0.1,1.7,0.2,2.6c0.1,0.9,0.3,1.7,0.6,2.5c-1.1,0-2.1,0-3.2,0c0.2-0.6,0.3-1.1,0.4-1.7
		C8,17.1,8.1,16.6,8.1,16c0.1-0.6,0.1-1.1,0.1-1.7c-0.5,0.7-1,1.3-1.7,1.8c0.1-0.4,0.1-0.7,0-1.1c-0.2,0.6-0.3,1.1-0.8,1.4
		c0.3-0.5,0.4-1,0.4-1.6c-0.1,0-0.1,0.1-0.1,0.1c-0.2,0.2-0.4,0.4-0.6,0.5c-0.2,0.1-0.4,0.2-0.6,0.2c-0.1,0-0.2,0-0.3,0
		c0,0,0.1-0.1,0.1-0.1c0.6-0.5,1.2-1.1,1.7-1.8c0.4-0.5,0.7-1,1-1.6c0.2-0.4,0.3-0.9,0.3-1.3c0-0.2,0-0.4-0.1-0.7
		c-0.2,0.7-0.5,1.3-0.9,1.8c0.1-0.3,0.1-0.7-0.1-1c-0.1,0.1-0.2,0.3-0.2,0.4c-0.1,0.1-0.2,0.2-0.3,0.4c-0.1,0.1-0.2,0.2-0.3,0.3
		c-0.1,0.1-0.2,0.2-0.3,0.3c0,0,0,0,0,0c0-0.1,0.1-0.2,0.1-0.3c0-0.1,0.1-0.2,0.1-0.3c0-0.1,0-0.2,0-0.4c-0.5,0.9-1,1.7-1.7,2.4
		c0.2-0.5,0.4-1.1,0.5-1.7C4.1,12,4,12.2,3.9,12.3c0,0,0,0,0,0c0.4-0.5,0.7-1,0.9-1.6c-0.3,0.1-0.6,0.2-1,0.2
		C4.5,10.2,5.1,9.5,5.7,8.7z"/>
</g>
</svg>
