<?xml version="1.0" encoding="utf-8"?>
<!-- Generator: Adobe Illustrator 24.1.0, SVG Export Plug-In . SVG Version: 6.00 Build 0)  -->
<svg version="1.1" xmlns="http://www.w3.org/2000/svg" xmlns:xlink="http://www.w3.org/1999/xlink" x="0px" y="0px"
	 viewBox="0 0 20 15.1" style="enable-background:new 0 0 20 15.1;" xml:space="preserve">
<style type="text/css">
	.st0{display:none;}
	.st1{display:inline;}
	.st2{fill:#E9EBE5;stroke:#E9EBE5;stroke-width:0.25;stroke-miterlimit:10;}
	.st3{fill:#E9EBE5;}
</style>
<g id="DW" class="st0">
	<g class="st1">
		<g>
			<path class="st2" d="M11.8,6.5H8.7c-0.1,0-0.3,0.1-0.3,0.3v3.1c0,0.1,0.1,0.3,0.3,0.3h3.1c0.1,0,0.3-0.1,0.3-0.3V6.8
				C12.1,6.6,12,6.5,11.8,6.5z M11.5,9.6H9V7h2.6V9.6z"/>
			<path class="st2" d="M15.7,12.3V9.9V4.4c0.6-0.1,1-0.6,1-1.3c0-0.7-0.6-1.3-1.3-1.3s-1.3,0.6-1.3,1.3c0,0.6,0.4,1.2,1,1.3v5.2
				h-1.6V5.2c0-0.1-0.1-0.3-0.3-0.3H7.1C7,5,6.9,5.1,6.9,5.2V6H5.3V4.4c0.6-0.1,1-0.6,1-1.3c0-0.7-0.6-1.3-1.3-1.3S3.8,2.4,3.8,3.1
				c0,0.6,0.4,1.2,1,1.3v1.8c0,0.1,0.1,0.3,0.3,0.3h1.8v3.6H5.1c-0.1,0-0.3,0.1-0.3,0.3v1.8c-0.6,0.1-1,0.6-1,1.3
				c0,0.7,0.6,1.3,1.3,1.3s1.3-0.6,1.3-1.3c0-0.6-0.4-1.2-1-1.3v-1.6h1.6v0.8c0,0.1,0.1,0.3,0.3,0.3h6.2c0.1,0,0.3-0.1,0.3-0.3v-1.3
				h1.6v2.1c-0.6,0.1-1,0.6-1,1.3c0,0.7,0.6,1.3,1.3,1.3s1.3-0.6,1.3-1.3C16.7,12.9,16.3,12.4,15.7,12.3z M4.3,3.1
				c0-0.4,0.3-0.8,0.8-0.8s0.8,0.3,0.8,0.8S5.5,3.9,5.1,3.9S4.3,3.6,4.3,3.1z M5.8,13.5c0,0.4-0.3,0.8-0.8,0.8S4.3,14,4.3,13.5
				s0.3-0.8,0.8-0.8S5.8,13.1,5.8,13.5z M13.1,11.2H7.4V5.5h5.7V11.2z M14.7,3.1c0-0.4,0.3-0.8,0.8-0.8c0.4,0,0.8,0.3,0.8,0.8
				s-0.3,0.8-0.8,0.8C15,3.9,14.7,3.6,14.7,3.1z M15.4,14.3c-0.4,0-0.8-0.3-0.8-0.8s0.3-0.8,0.8-0.8c0.4,0,0.8,0.3,0.8,0.8
				S15.9,14.3,15.4,14.3z"/>
		</g>
	</g>
</g>
<g id="Layer_2">
	<g>
		<g>
			<circle class="st3" cx="8.3" cy="10.5" r="0.6"/>
			<circle class="st3" cx="12.8" cy="4.8" r="0.6"/>
			<path class="st3" d="M10.6,0.2c-4.1,0-7.4,3.3-7.4,7.4c0,4.1,3.3,7.4,7.4,7.4c4.1,0,7.4-3.3,7.4-7.4C18,3.5,14.7,0.2,10.6,0.2z
				 M8.3,12.2c-0.9,0-1.7-0.8-1.7-1.7c0-0.7,0.5-1.4,1.1-1.6V6.4C7,6.1,6.6,5.5,6.6,4.8c0-0.9,0.8-1.7,1.7-1.7S10,3.8,10,4.8
				c0,0.7-0.5,1.4-1.1,1.6v2.5C9.5,9.1,10,9.7,10,10.5C10,11.4,9.2,12.2,8.3,12.2z M12.8,6.5c-0.3,0-0.5-0.1-0.7-0.2l-1,1v1.5
				c0,0.3-0.3,0.6-0.6,0.6c-0.3,0-0.6-0.3-0.6-0.6V7.1c0-0.2,0.1-0.3,0.2-0.4l1.1-1.1c-0.1-0.2-0.2-0.5-0.2-0.7
				c0-0.9,0.8-1.7,1.7-1.7c0.9,0,1.7,0.8,1.7,1.7S13.8,6.5,12.8,6.5z"/>
			<circle class="st3" cx="8.3" cy="4.8" r="0.6"/>
		</g>
	</g>
</g>
</svg>
