<?xml version="1.0" encoding="utf-8"?>
<!-- Generator: Adobe Illustrator 24.1.0, SVG Export Plug-In . SVG Version: 6.00 Build 0)  -->
<svg version="1.1" id="Layer_1" xmlns="http://www.w3.org/2000/svg" xmlns:xlink="http://www.w3.org/1999/xlink" x="0px" y="0px"
	 viewBox="0 0 27 27" style="enable-background:new 0 0 27 27;" xml:space="preserve">
<style type="text/css">
	.st0{fill:#F3F3F4;}
	.st1{fill:#262626;}
</style>
<polygon class="st0" points="2.4,19.1 2.4,7.1 13.5,1.3 24.5,7.2 24.5,20.1 13.5,25.6 "/>
<rect x="1.3" y="6.6" class="st1" width="2.3" height="13.8"/>
<rect x="17.8" y="-2.6" transform="matrix(0.472 -0.8816 0.8816 0.472 6.1896 19.0231)" class="st1" width="2.3" height="13.8"/>
<rect x="1.1" y="3.2" transform="matrix(0.8788 -0.4772 0.4772 0.8788 -1.1054 4.3315)" class="st1" width="13.8" height="2.3"/>
<rect x="6.8" y="3.4" transform="matrix(0.472 -0.8816 0.8816 0.472 -4.9016 12.4449)" class="st1" width="2.3" height="13.8"/>
<rect x="12.1" y="9.2" transform="matrix(0.8788 -0.4772 0.4772 0.8788 -2.6371 10.3148)" class="st1" width="13.8" height="2.3"/>
<rect x="6.8" y="15.8" transform="matrix(0.472 -0.8816 0.8816 0.472 -15.8497 18.9747)" class="st1" width="2.3" height="13.8"/>
<rect x="12.1" y="21.6" transform="matrix(0.8788 -0.4772 0.4772 0.8788 -8.5476 11.8081)" class="st1" width="13.8" height="2.3"/>
<rect x="12.2" y="12.2" class="st1" width="2.3" height="13.8"/>
<rect x="23.3" y="6.5" class="st1" width="2.3" height="13.8"/>
</svg>
