<?xml version="1.0" encoding="utf-8"?>
<!-- Generator: Adobe Illustrator 21.0.0, SVG Export Plug-In . SVG Version: 6.00 Build 0)  -->
<svg version="1.1" id="Layer_1" xmlns="http://www.w3.org/2000/svg" xmlns:xlink="http://www.w3.org/1999/xlink" x="0px" y="0px"
	 viewBox="0 0 1000 682.5" style="enable-background:new 0 0 1000 682.5;" xml:space="preserve">
<style type="text/css">
	.st0{fill:#F3F3F3;}
</style>
<path class="st0" d="M644.8,4.2C656.8,7.5,666.1,17,669,29c0.4,4,0.4,7.9,0,11.9c0,129.3,0,258.6,0,388.1c0,71.4,0,142.5,0,214
	c2.3,17.2-7.8,33.7-24.2,39.5H333.6c-11.8-3.1-21-12.3-24.2-24.2c-0.4-3.5-0.4-7,0-10.5c0-192.3,0-385.1,0-578.3c0-11.1,0-22.5,0-34
	c-1.6-15.4,8-29.7,22.8-34h2.4h310.2V4.2z M330.2,68.2v529h317.4v-529H330.2z M488.7,619.2c-11.6,0.2-20.9,9.5-21.1,21.1
	c0.2,11.6,9.8,20.9,21.4,20.7c11.6-0.2,20.9-9.8,20.7-21.4c-0.2-11.5-9.6-20.7-21.1-20.7V619.2z"/>
</svg>
